<svg width="55" height="43" viewBox="0 0 55 43" fill="none" xmlns="http://www.w3.org/2000/svg">
<circle cx="27.817" cy="14.8463" r="14.3775" fill="white"/>
<path d="M27.817 0.46875C19.8806 0.46875 13.4395 6.90987 13.4395 14.8463C13.4395 22.7826 19.8806 29.2238 27.817 29.2238C35.7533 29.2238 42.1945 22.7826 42.1945 14.8463C42.1945 6.90987 35.7533 0.46875 27.817 0.46875ZM27.817 23.3577C23.1155 23.3577 19.3055 19.5477 19.3055 14.8463C19.3055 10.1448 23.1155 6.33477 27.817 6.33477C32.5184 6.33477 36.3284 10.1448 36.3284 14.8463C36.3284 19.5477 32.5184 23.3577 27.817 23.3577ZM27.817 7.38433C23.705 7.38433 20.355 10.7343 20.355 14.8463C20.355 18.9582 23.705 22.3082 27.817 22.3082C31.9289 22.3082 35.2789 18.9582 35.2789 14.8463C35.2789 10.7343 31.9289 7.38433 27.817 7.38433ZM25.0421 19.0876V10.6049L32.389 14.8463L25.0421 19.0876Z" fill="#FF0000"/>
<path d="M4.62496 35.2011H5.42686L3.50716 38.3074V40.8711H2.82676V38.3074L0.907064 35.2011H1.70896L3.16696 37.5622L4.62496 35.2011ZM7.23519 40.9764C6.86259 40.9764 6.52239 40.8805 6.21459 40.6888C5.90949 40.4971 5.66514 40.2406 5.48154 39.9193C5.30064 39.5953 5.21019 39.2376 5.21019 38.8461C5.21019 38.5491 5.26284 38.2723 5.36814 38.0158C5.47344 37.7566 5.61789 37.5298 5.80149 37.3354C5.98779 37.1383 6.20379 36.9844 6.44949 36.8737C6.69519 36.763 6.95709 36.7077 7.23519 36.7077C7.60779 36.7077 7.94664 36.8035 8.25174 36.9952C8.55954 37.1869 8.80389 37.4448 8.98479 37.7688C9.16839 38.0928 9.26019 38.4519 9.26019 38.8461C9.26019 39.1404 9.20754 39.4158 9.10224 39.6723C8.99694 39.9288 8.85114 40.1556 8.66484 40.3527C8.48124 40.5471 8.26659 40.6996 8.02089 40.8103C7.77789 40.921 7.51599 40.9764 7.23519 40.9764ZM7.23519 40.296C7.48899 40.296 7.71714 40.2298 7.91964 40.0975C8.12484 39.9625 8.28549 39.7857 8.40159 39.567C8.52039 39.3456 8.57979 39.1053 8.57979 38.8461C8.57979 38.5815 8.51904 38.3385 8.39754 38.1171C8.27874 37.8957 8.11809 37.7188 7.91559 37.5865C7.71309 37.4542 7.48629 37.3881 7.23519 37.3881C6.98139 37.3881 6.75324 37.4556 6.55074 37.5906C6.34824 37.7229 6.18759 37.8997 6.06879 38.1211C5.94999 38.3425 5.89059 38.5842 5.89059 38.8461C5.89059 39.1161 5.95134 39.3618 6.07284 39.5832C6.19434 39.8019 6.35769 39.976 6.56289 40.1056C6.76809 40.2325 6.99219 40.296 7.23519 40.296ZM9.71297 39.3321V36.8211H10.3934V39.1822C10.3934 39.3874 10.4433 39.5737 10.5432 39.7411C10.6431 39.9085 10.7768 40.0422 10.9442 40.1421C11.1143 40.2393 11.3006 40.2879 11.5031 40.2879C11.7083 40.2879 11.8932 40.2393 12.0579 40.1421C12.2253 40.0422 12.359 39.9085 12.4589 39.7411C12.5588 39.5737 12.6087 39.3874 12.6087 39.1822V36.8211H13.2891L13.2932 40.8711H12.6128L12.6087 40.3567C12.4656 40.5457 12.2847 40.6969 12.066 40.8103C11.8473 40.921 11.6111 40.9764 11.3573 40.9764C11.0549 40.9764 10.7781 40.9035 10.527 40.7577C10.2786 40.6092 10.0802 40.4107 9.93167 40.1623C9.78587 39.9139 9.71297 39.6372 9.71297 39.3321ZM18.3958 35.2011V35.8815H16.5085V40.8711H15.8281V35.8815H13.9449V35.2011H18.3958ZM18.4932 39.3321V36.8211H19.1736V39.1822C19.1736 39.3874 19.2236 39.5737 19.3235 39.7411C19.4234 39.9085 19.557 40.0422 19.7244 40.1421C19.8945 40.2393 20.0808 40.2879 20.2833 40.2879C20.4885 40.2879 20.6735 40.2393 20.8382 40.1421C21.0056 40.0422 21.1392 39.9085 21.2391 39.7411C21.339 39.5737 21.389 39.3874 21.389 39.1822V36.8211H22.0694L22.0734 40.8711H21.393L21.389 40.3567C21.2459 40.5457 21.065 40.6969 20.8463 40.8103C20.6276 40.921 20.3913 40.9764 20.1375 40.9764C19.8351 40.9764 19.5584 40.9035 19.3073 40.7577C19.0589 40.6092 18.8604 40.4107 18.7119 40.1623C18.5661 39.9139 18.4932 39.6372 18.4932 39.3321ZM24.9839 36.7077C25.3781 36.7077 25.7359 36.8035 26.0572 36.9952C26.3812 37.1869 26.639 37.4448 26.8307 37.7688C27.0224 38.0901 27.1183 38.4478 27.1183 38.842C27.1183 39.1363 27.0629 39.4131 26.9522 39.6723C26.8415 39.9288 26.6876 40.1556 26.4905 40.3527C26.2961 40.5471 26.0693 40.6996 25.8101 40.8103C25.5536 40.921 25.2782 40.9764 24.9839 40.9764C24.6707 40.9764 24.398 40.9035 24.1658 40.7577C23.9363 40.6092 23.7527 40.4161 23.615 40.1785V40.8711H22.9346V34.7961H23.615V37.5055C23.7527 37.2679 23.9363 37.0762 24.1658 36.9304C24.398 36.7819 24.6707 36.7077 24.9839 36.7077ZM24.9758 40.3122C25.2431 40.3122 25.4861 40.246 25.7048 40.1137C25.9235 39.9814 26.0977 39.8046 26.2273 39.5832C26.3569 39.3591 26.4217 39.112 26.4217 38.842C26.4217 38.5666 26.3555 38.3182 26.2232 38.0968C26.0909 37.8727 25.9154 37.6959 25.6967 37.5663C25.478 37.434 25.2377 37.3678 24.9758 37.3678C24.7112 37.3678 24.4804 37.434 24.2833 37.5663C24.0889 37.6986 23.9377 37.8768 23.8297 38.1009C23.7244 38.325 23.6717 38.572 23.6717 38.842C23.6717 39.1147 23.7244 39.3631 23.8297 39.5872C23.9377 39.8086 24.0902 39.9855 24.2873 40.1178C24.4844 40.2474 24.7139 40.3122 24.9758 40.3122ZM29.5497 40.9764C29.1771 40.9764 28.8369 40.8805 28.5291 40.6888C28.224 40.4971 27.9797 40.2406 27.7961 39.9193C27.6152 39.5953 27.5247 39.2376 27.5247 38.8461C27.5247 38.5491 27.5774 38.2723 27.6827 38.0158C27.788 37.7566 27.9324 37.5298 28.116 37.3354C28.3023 37.1383 28.5183 36.9844 28.764 36.8737C29.0097 36.763 29.2716 36.7077 29.5497 36.7077C29.8548 36.7077 30.1343 36.7698 30.3881 36.894C30.6446 37.0155 30.8633 37.1856 31.0442 37.4043C31.2278 37.623 31.3641 37.8768 31.4532 38.1657C31.545 38.4546 31.5788 38.7637 31.5545 39.0931H28.2497C28.2821 39.3226 28.3577 39.5278 28.4765 39.7087C28.5953 39.8869 28.7465 40.0287 28.9301 40.134C29.1164 40.2393 29.3229 40.2933 29.5497 40.296C29.7927 40.296 30.0128 40.2339 30.2099 40.1097C30.407 39.9828 30.5663 39.81 30.6878 39.5913L31.3803 39.7533C31.2183 40.1124 30.974 40.4067 30.6473 40.6362C30.3206 40.863 29.9547 40.9764 29.5497 40.9764ZM28.2294 38.5585H30.87C30.8484 38.3317 30.7755 38.1252 30.6513 37.9389C30.5271 37.7499 30.3692 37.5987 30.1775 37.4853C29.9858 37.3719 29.7765 37.3152 29.5497 37.3152C29.3229 37.3152 29.115 37.3705 28.926 37.4812C28.737 37.5919 28.5804 37.7418 28.4562 37.9308C28.3347 38.1171 28.2591 38.3263 28.2294 38.5585ZM34.2382 40.8711L35.3358 35.2011H35.8582L37.3891 39.2268L38.916 35.2011H39.4384L40.54 40.8711H39.8475L39.0496 36.7563L37.6119 40.5633H37.1623L35.7246 36.7563L34.9308 40.8711H34.2382ZM41.227 39.3321V36.8211H41.9074V39.1822C41.9074 39.3874 41.9574 39.5737 42.0573 39.7411C42.1572 39.9085 42.2908 40.0422 42.4582 40.1421C42.6283 40.2393 42.8146 40.2879 43.0171 40.2879C43.2223 40.2879 43.4073 40.2393 43.572 40.1421C43.7394 40.0422 43.873 39.9085 43.9729 39.7411C44.0728 39.5737 44.1228 39.3874 44.1228 39.1822V36.8211H44.8032L44.8072 40.8711H44.1268L44.1228 40.3567C43.9797 40.5457 43.7988 40.6969 43.5801 40.8103C43.3614 40.921 43.1251 40.9764 42.8713 40.9764C42.5689 40.9764 42.2922 40.9035 42.0411 40.7577C41.7927 40.6092 41.5942 40.4107 41.4457 40.1623C41.2999 39.9139 41.227 39.6372 41.227 39.3321ZM46.8562 40.948C46.6375 40.9399 46.4242 40.8994 46.2163 40.8265C46.0111 40.7509 45.8302 40.6497 45.6736 40.5228C45.5197 40.3932 45.4077 40.2447 45.3375 40.0773L45.9207 39.8262C45.9612 39.918 46.0341 40.0044 46.1394 40.0854C46.2447 40.1664 46.3662 40.2312 46.5039 40.2798C46.6416 40.3284 46.7806 40.3527 46.921 40.3527C47.0695 40.3527 47.2086 40.3297 47.3382 40.2838C47.4678 40.2379 47.5731 40.1704 47.6541 40.0813C47.7378 39.9895 47.7796 39.8802 47.7796 39.7533C47.7796 39.6183 47.7337 39.513 47.6419 39.4374C47.5528 39.3591 47.4394 39.2983 47.3017 39.2551C47.1667 39.2092 47.029 39.166 46.8886 39.1255C46.6105 39.0553 46.3621 38.9716 46.1434 38.8744C45.9247 38.7745 45.7519 38.649 45.625 38.4978C45.5008 38.3439 45.4387 38.1481 45.4387 37.9105C45.4387 37.6594 45.5076 37.4421 45.6453 37.2585C45.7857 37.0749 45.9693 36.9331 46.1961 36.8332C46.4229 36.7333 46.6659 36.6834 46.9251 36.6834C47.2518 36.6834 47.5501 36.7536 47.8201 36.894C48.0901 37.0344 48.2913 37.2247 48.4236 37.465L47.8768 37.785C47.8309 37.6878 47.7607 37.6027 47.6662 37.5298C47.5717 37.4542 47.4637 37.3948 47.3422 37.3516C47.2207 37.3084 47.0965 37.2855 46.9696 37.2828C46.813 37.2774 46.6659 37.2976 46.5282 37.3435C46.3932 37.3894 46.2838 37.4596 46.2001 37.5541C46.1191 37.6459 46.0786 37.7607 46.0786 37.8984C46.0786 38.0334 46.1218 38.136 46.2082 38.2062C46.2973 38.2764 46.4121 38.3331 46.5525 38.3763C46.6956 38.4168 46.8508 38.464 47.0182 38.518C47.2639 38.5963 47.4934 38.6868 47.7067 38.7894C47.92 38.892 48.0915 39.0202 48.2211 39.1741C48.3534 39.328 48.4182 39.5184 48.4155 39.7452C48.4155 39.9936 48.3412 40.2109 48.1927 40.3972C48.0442 40.5808 47.8512 40.7212 47.6136 40.8184C47.3787 40.9156 47.1262 40.9588 46.8562 40.948ZM49.054 36.8211H49.7344V40.8711H49.054V36.8211ZM49.4023 36.1609C49.2943 36.1609 49.2038 36.1258 49.1309 36.0556C49.058 35.9854 49.0216 35.8977 49.0216 35.7924C49.0216 35.6871 49.058 35.5993 49.1309 35.5291C49.2038 35.4589 49.2929 35.4238 49.3982 35.4238C49.5035 35.4238 49.5926 35.4589 49.6655 35.5291C49.7384 35.5993 49.7749 35.6871 49.7749 35.7924C49.7749 35.8977 49.7384 35.9854 49.6655 36.0556C49.5953 36.1258 49.5076 36.1609 49.4023 36.1609ZM53.4423 39.8019L54.0498 40.1299C53.8662 40.3864 53.6326 40.5916 53.3491 40.7455C53.0683 40.8994 52.7632 40.9764 52.4338 40.9764C52.0612 40.9764 51.721 40.8805 51.4132 40.6888C51.1081 40.4971 50.8638 40.2406 50.6802 39.9193C50.4993 39.5953 50.4088 39.2376 50.4088 38.8461C50.4088 38.5491 50.4615 38.2723 50.5668 38.0158C50.6721 37.7566 50.8165 37.5298 51.0001 37.3354C51.1864 37.1383 51.4024 36.9844 51.6481 36.8737C51.8938 36.763 52.1557 36.7077 52.4338 36.7077C52.7632 36.7077 53.0683 36.7846 53.3491 36.9385C53.6326 37.0924 53.8662 37.299 54.0498 37.5582L53.4423 37.8862C53.3127 37.7269 53.1588 37.6041 52.9806 37.5177C52.8024 37.4313 52.6201 37.3881 52.4338 37.3881C52.1827 37.3881 51.9546 37.4556 51.7494 37.5906C51.5469 37.7229 51.3862 37.8997 51.2674 38.1211C51.1486 38.3425 51.0892 38.5842 51.0892 38.8461C51.0892 39.108 51.1486 39.3496 51.2674 39.571C51.3889 39.7897 51.5509 39.9652 51.7534 40.0975C51.9586 40.2298 52.1854 40.296 52.4338 40.296C52.6336 40.296 52.8213 40.2501 52.9968 40.1583C53.1723 40.0665 53.3208 39.9477 53.4423 39.8019Z" fill="white"/>
</svg>
