<svg width="37" height="36" viewBox="0 0 37 36" fill="none" xmlns="http://www.w3.org/2000/svg">
<path d="M35.9302 14.2737H34.5004V14.2H18.5254V21.3H28.5568C27.0933 25.4331 23.1608 28.4 18.5254 28.4C12.6439 28.4 7.87539 23.6315 7.87539 17.75C7.87539 11.8685 12.6439 7.1 18.5254 7.1C21.2403 7.1 23.7102 8.12417 25.5908 9.79711L30.6114 4.77653C27.4412 1.82204 23.2007 0 18.5254 0C8.72295 0 0.775391 7.94756 0.775391 17.75C0.775391 27.5524 8.72295 35.5 18.5254 35.5C28.3278 35.5 36.2754 27.5524 36.2754 17.75C36.2754 16.5599 36.1529 15.3981 35.9302 14.2737Z" fill="#FFC107"/>
<path d="M2.82227 9.48826L8.65403 13.7651C10.232 9.85835 14.0536 7.1 18.5257 7.1C21.2406 7.1 23.7105 8.12418 25.5911 9.79711L30.6117 4.77653C27.4415 1.82204 23.201 0 18.5257 0C11.7079 0 5.79539 3.84909 2.82227 9.48826Z" fill="#FF3D00"/>
<path d="M18.5236 35.4919C23.1084 35.4919 27.2744 33.7373 30.4241 30.884L24.9305 26.2353C23.0885 27.6361 20.8377 28.3938 18.5236 28.3919C13.9068 28.3919 9.98675 25.4481 8.50995 21.3398L2.72168 25.7995C5.6593 31.5479 11.6251 35.4919 18.5236 35.4919Z" fill="#4CAF50"/>
<path d="M35.9302 14.2651H34.5004V14.1914H18.5254V21.2914H28.5568C27.8567 23.2585 26.5957 24.9774 24.9296 26.2357L24.9323 26.2339L30.4259 30.8826C30.0372 31.2358 36.2754 26.6164 36.2754 17.7414C36.2754 16.5513 36.1529 15.3895 35.9302 14.2651Z" fill="#1976D2"/>
</svg>
