<svg width="51" height="36" viewBox="0 0 51 36" fill="none" xmlns="http://www.w3.org/2000/svg">
<path d="M48.8514 5.67236L48.8513 5.672C48.5891 4.68454 48.072 3.7833 47.3519 3.05855C46.6318 2.33388 45.734 1.81111 44.7484 1.54257C43.8181 1.29177 42.1422 1.09518 40.1093 0.945871C38.0898 0.797554 35.76 0.698439 33.5482 0.632284C31.3372 0.566154 29.2483 0.533076 27.7118 0.516535C26.9436 0.508265 26.3138 0.504131 25.8762 0.502065C25.6574 0.501032 25.4866 0.500516 25.3706 0.500258L25.2386 0.500032L25.205 0.500004L25.1966 0.5L25.1945 0.5L25.194 0.5C25.1939 0.5 25.1938 0.5 25.1938 0C25.1938 0.5 25.1938 0.5 25.1937 0.5L25.1932 0.5L25.1911 0.5L25.1827 0.500004L25.1491 0.500032L25.017 0.500258C24.9011 0.500516 24.7303 0.501032 24.5115 0.502065C24.0738 0.504131 23.444 0.508265 22.6759 0.516535C21.1394 0.533076 19.0504 0.566154 16.8395 0.632284C14.6277 0.698439 12.2978 0.797554 10.2784 0.945871C8.24522 1.09519 6.56919 1.29181 5.63901 1.54264C4.65346 1.8112 3.75576 2.33395 3.03578 3.05855C2.31565 3.7833 1.79859 4.68454 1.53639 5.672L1.5363 5.67236C1.02478 7.59306 0.762712 10.5965 0.630981 13.1555C0.565499 14.4275 0.532739 15.5771 0.516358 16.4087C0.50817 16.8244 0.50408 17.1604 0.502038 17.3921C0.501016 17.508 0.500507 17.5978 0.500253 17.6585L0.500031 17.7272L0.500004 17.7445L0.5 17.7487L0.5 17.7497L0.5 17.75L0 17.75L0.5 17.75L0.5 17.7503L0.5 17.7513L0.500004 17.7555L0.500031 17.7728L0.500253 17.8415C0.500507 17.9022 0.501016 17.992 0.502038 18.1079C0.50408 18.3396 0.50817 18.6756 0.516358 19.0913C0.532739 19.9229 0.565499 21.0725 0.630981 22.3446C0.762711 24.9037 1.02478 27.9074 1.5363 29.8285L1.53639 29.8289C1.79859 30.8163 2.31565 31.7176 3.03578 32.4423C3.75559 33.1667 4.65304 33.6894 5.63831 33.958L48.8514 5.67236ZM48.8514 5.67236C49.3629 7.59306 49.625 10.5965 49.7567 13.1555C49.8222 14.4275 49.8549 15.5771 49.8713 16.4087C49.8795 16.8244 49.8836 17.1604 49.8856 17.3921C49.8866 17.508 49.8871 17.5978 49.8874 17.6585L49.8876 17.7272L49.8877 17.7445L49.8877 17.7487V17.7497V17.75V17.7503V17.7513L49.8877 17.7555L49.8876 17.7728L49.8874 17.8415C49.8871 17.9022 49.8866 17.992 49.8856 18.1079C49.8836 18.3396 49.8795 18.6756 49.8713 19.0913C49.8549 19.9229 49.8222 21.0725 49.7567 22.3446C49.625 24.9037 49.3629 27.9074 48.8514 29.8285L48.8513 29.8289M48.8514 5.67236L48.8513 29.8289M25.1938 35.5C25.1938 35 25.1938 35 25.1937 35H25.1932H25.1911L25.1827 35L25.1491 35L25.017 34.9997C24.9011 34.9995 24.7303 34.999 24.5115 34.9979C24.0738 34.9959 23.444 34.9917 22.6759 34.9835C21.1394 34.9669 19.0504 34.9339 16.8394 34.8678C14.6276 34.8017 12.2978 34.7027 10.2783 34.5545C8.24568 34.4053 6.56993 34.2089 5.63958 33.9584L25.1938 35.5ZM25.1938 35.5C25.1938 35 25.1939 35 25.194 35M25.1938 35.5L25.194 35M48.8513 29.8289C48.5891 30.8163 48.072 31.7176 47.3519 32.4423C46.6321 33.1667 45.7346 33.6894 44.7494 33.958M48.8513 29.8289L44.7494 33.958M44.7494 33.958C43.8193 34.2088 42.1429 34.4053 40.1093 34.5545M44.7494 33.958L40.1093 34.5545M40.1093 34.5545C38.0899 34.7027 35.76 34.8017 33.5482 34.8678M40.1093 34.5545L33.5482 34.8678M33.5482 34.8678C31.3372 34.9339 29.2483 34.9669 27.7118 34.9835M33.5482 34.8678L27.7118 34.9835M27.7118 34.9835C26.9436 34.9917 26.3138 34.9959 25.8762 34.9979M27.7118 34.9835L25.8762 34.9979M25.8762 34.9979C25.6574 34.999 25.4866 34.9995 25.3706 34.9997M25.8762 34.9979L25.3706 34.9997M25.3706 34.9997L25.2386 35M25.3706 34.9997L25.2386 35M25.2386 35L25.205 35M25.2386 35L25.205 35M25.205 35L25.1966 35M25.205 35L25.1966 35M25.1966 35H25.1945M25.1966 35H25.1945M25.1945 35H25.194M25.1945 35H25.194" fill="#FF0000" stroke="#FF0000"/>
<path d="M20.041 25.2407L33.2104 17.7493L20.041 10.2578V25.2407Z" fill="white"/>
</svg>
