<svg width="30" height="42" viewBox="0 0 30 42" fill="none" xmlns="http://www.w3.org/2000/svg">
<path d="M10.4554 0.285156C9.77446 0.285156 9.12143 0.555651 8.63995 1.03713C8.15846 1.51862 7.88797 2.17165 7.88797 2.85257V6.97583C7.88396 7.10933 7.8281 7.23601 7.73223 7.329C7.63637 7.42199 7.50804 7.47397 7.37449 7.47391H3.26663C2.58571 7.47391 1.93268 7.7444 1.4512 8.22588C0.969713 8.70737 0.699219 9.3604 0.699219 10.0413V14.1492C0.699219 14.8301 0.969713 15.4831 1.4512 15.9646C1.93268 16.4461 2.58571 16.7166 3.26663 16.7166H14.5632C15.2442 16.7166 15.8972 16.4461 16.3787 15.9646C16.8602 15.4831 17.1306 14.8301 17.1306 14.1492V10.0413C17.1306 9.90513 17.1847 9.77453 17.281 9.67823C17.3773 9.58193 17.5079 9.52783 17.6441 9.52783H21.752C22.4329 9.52783 23.0859 9.25734 23.5674 8.77586C24.0489 8.29437 24.3194 7.64134 24.3194 6.96042V2.85257C24.3194 2.17165 24.0489 1.51862 23.5674 1.03713C23.0859 0.555651 22.4329 0.285156 21.752 0.285156H10.4554ZM21.752 7.47391H17.1306V2.33908H21.752C21.8882 2.33908 22.0188 2.39318 22.1151 2.48948C22.2114 2.58578 22.2655 2.71638 22.2655 2.85257V6.96042C22.2655 7.09661 22.2114 7.22721 22.1151 7.32351C22.0188 7.41981 21.8882 7.47391 21.752 7.47391ZM15.0767 7.47391H9.9419V2.85257C9.9419 2.71638 9.996 2.58578 10.0923 2.48948C10.1886 2.39318 10.3192 2.33908 10.4554 2.33908H15.0767V7.47391ZM7.88797 9.52783V14.6627H3.26663C3.13045 14.6627 2.99984 14.6086 2.90354 14.5123C2.80725 14.416 2.75315 14.2854 2.75315 14.1492V10.0413C2.75315 9.90513 2.80725 9.77453 2.90354 9.67823C2.99984 9.58193 3.13045 9.52783 3.26663 9.52783H7.88797ZM9.9419 9.52783H15.1281C15.0938 9.6942 15.0767 9.86536 15.0767 10.0413V14.1492C15.0767 14.2854 15.0226 14.416 14.9263 14.5123C14.83 14.6086 14.6994 14.6627 14.5632 14.6627H9.9419V9.52783ZM22.779 12.6087C22.098 12.6087 21.445 12.8792 20.9635 13.3607C20.482 13.8422 20.2115 14.4952 20.2115 15.1761V19.284C20.2115 19.4195 20.158 19.5495 20.0626 19.6456C19.9672 19.7418 19.8376 19.7964 19.7022 19.7975H8.40145C7.72053 19.7975 7.0675 20.068 6.58602 20.5495C6.10453 21.0309 5.83404 21.684 5.83404 22.3649V26.4727C5.83404 27.1537 6.10453 27.8067 6.58602 28.2882C7.0675 28.7697 7.72053 29.0402 8.40145 29.0402H26.8868C27.5677 29.0402 28.2208 28.7697 28.7022 28.2882C29.1837 27.8067 29.4542 27.1537 29.4542 26.4727V15.1761C29.4542 14.4952 29.1837 13.8422 28.7022 13.3607C28.2208 12.8792 27.5677 12.6087 26.8868 12.6087H22.779ZM20.2115 21.8514V26.9862H15.0767V21.8514H20.2115ZM27.4003 21.8514V26.4727C27.4003 26.6089 27.3462 26.7395 27.2499 26.8358C27.1536 26.9321 27.023 26.9862 26.8868 26.9862H22.2655V21.8514H27.4003ZM22.2655 19.7975V15.1761C22.2655 15.04 22.3196 14.9093 22.4159 14.8131C22.5122 14.7168 22.6428 14.6627 22.779 14.6627H26.8868C27.023 14.6627 27.1536 14.7168 27.2499 14.8131C27.3462 14.9093 27.4003 15.04 27.4003 15.1761V19.7975H22.2655ZM13.0228 21.8514V26.9862H8.40145C8.26527 26.9862 8.13466 26.9321 8.03836 26.8358C7.94207 26.7395 7.88797 26.6089 7.88797 26.4727V22.3649C7.88797 22.2287 7.94207 22.0981 8.03836 22.0018C8.13466 21.9055 8.26527 21.8514 8.40145 21.8514H13.0228Z" fill="white"/>
<path d="M7.23823 34.205V34.8854H5.35093V39.875H4.67053V34.8854H2.78728V34.205H7.23823ZM9.20843 39.9803C8.83583 39.9803 8.49563 39.8844 8.18783 39.6928C7.88273 39.5011 7.63838 39.2446 7.45478 38.9233C7.27388 38.5993 7.18343 38.2415 7.18343 37.85C7.18343 37.553 7.23608 37.2763 7.34138 37.0198C7.44668 36.7606 7.59113 36.5338 7.77473 36.3394C7.96103 36.1423 8.17703 35.9884 8.42273 35.8777C8.66843 35.767 8.93033 35.7116 9.20843 35.7116C9.51353 35.7116 9.79298 35.7737 10.0468 35.8979C10.3033 36.0194 10.522 36.1895 10.7029 36.4082C10.8865 36.6269 11.0228 36.8807 11.1119 37.1696C11.2037 37.4585 11.2375 37.7677 11.2132 38.0971H7.90838C7.94078 38.3266 8.01638 38.5318 8.13518 38.7127C8.25398 38.8909 8.40518 39.0326 8.58878 39.1379C8.77508 39.2432 8.98163 39.2972 9.20843 39.2999C9.45143 39.2999 9.67148 39.2378 9.86858 39.1136C10.0657 38.9867 10.225 38.8139 10.3465 38.5952L11.039 38.7572C10.877 39.1163 10.6327 39.4106 10.306 39.6401C9.97928 39.8669 9.61343 39.9803 9.20843 39.9803ZM7.88813 37.5625H10.5287C10.5071 37.3357 10.4342 37.1291 10.31 36.9428C10.1858 36.7538 10.0279 36.6026 9.83618 36.4892C9.64448 36.3758 9.43523 36.3191 9.20843 36.3191C8.98163 36.3191 8.77373 36.3745 8.58473 36.4852C8.39573 36.5959 8.23913 36.7457 8.11493 36.9347C7.99343 37.121 7.91783 37.3303 7.88813 37.5625ZM13.9461 36.5054H13.0268L13.0227 39.875H12.3423L12.3464 36.5054H11.6498V35.825H12.3464L12.3423 34.5533H13.0227L13.0268 35.825H13.9461V36.5054ZM14.6721 39.875V35.825H15.3525V36.3313C15.4956 36.1423 15.6765 35.9924 15.8952 35.8817C16.1139 35.7683 16.3515 35.7116 16.608 35.7116C16.7646 35.7116 16.9158 35.7319 17.0616 35.7724L16.7862 36.4528C16.6755 36.4177 16.5675 36.4001 16.4622 36.4001C16.2597 36.4001 16.0734 36.4501 15.9033 36.55C15.7359 36.6472 15.6023 36.7795 15.5024 36.9469C15.4025 37.1143 15.3525 37.3006 15.3525 37.5058V39.875H14.6721ZM17.5593 35.825H18.2397V39.875H17.5593V35.825ZM17.9076 35.1648C17.7996 35.1648 17.7092 35.1298 17.6363 35.0596C17.5634 34.9894 17.5269 34.9016 17.5269 34.7963C17.5269 34.691 17.5634 34.6033 17.6363 34.5331C17.7092 34.4629 17.7983 34.4278 17.9036 34.4278C18.0089 34.4278 18.098 34.4629 18.1709 34.5331C18.2438 34.6033 18.2802 34.691 18.2802 34.7963C18.2802 34.9016 18.2438 34.9894 18.1709 35.0596C18.1007 35.1298 18.0129 35.1648 17.9076 35.1648ZM20.4083 39.9519C20.1896 39.9438 19.9763 39.9033 19.7684 39.8304C19.5632 39.7549 19.3823 39.6536 19.2257 39.5267C19.0718 39.3971 18.9597 39.2486 18.8895 39.0812L19.4727 38.8301C19.5132 38.9219 19.5861 39.0083 19.6914 39.0893C19.7967 39.1703 19.9182 39.2351 20.0559 39.2837C20.1936 39.3323 20.3327 39.3566 20.4731 39.3566C20.6216 39.3566 20.7606 39.3337 20.8902 39.2877C21.0198 39.2419 21.1251 39.1744 21.2061 39.0853C21.2898 38.9935 21.3317 38.8841 21.3317 38.7572C21.3317 38.6222 21.2858 38.5169 21.194 38.4413C21.1049 38.363 20.9915 38.3023 20.8538 38.2591C20.7188 38.2132 20.5811 38.17 20.4407 38.1295C20.1626 38.0593 19.9142 37.9756 19.6955 37.8784C19.4768 37.7785 19.304 37.6529 19.1771 37.5017C19.0529 37.3478 18.9908 37.1521 18.9908 36.9145C18.9908 36.6634 19.0596 36.446 19.1973 36.2624C19.3377 36.0788 19.5213 35.9371 19.7481 35.8372C19.9749 35.7373 20.2179 35.6873 20.4771 35.6873C20.8038 35.6873 21.1022 35.7575 21.3722 35.8979C21.6422 36.0383 21.8433 36.2287 21.9756 36.469L21.4289 36.7889C21.383 36.6917 21.3128 36.6067 21.2183 36.5338C21.1238 36.4582 21.0158 36.3988 20.8943 36.3556C20.7728 36.3124 20.6486 36.2894 20.5217 36.2867C20.3651 36.2813 20.2179 36.3015 20.0802 36.3475C19.9452 36.3934 19.8359 36.4636 19.7522 36.558C19.6712 36.6499 19.6307 36.7646 19.6307 36.9023C19.6307 37.0373 19.6739 37.1399 19.7603 37.2101C19.8494 37.2803 19.9641 37.337 20.1045 37.3802C20.2476 37.4207 20.4029 37.468 20.5703 37.522C20.816 37.6002 21.0455 37.6907 21.2588 37.7933C21.4721 37.8959 21.6435 38.0242 21.7731 38.1781C21.9054 38.332 21.9702 38.5223 21.9675 38.7491C21.9675 38.9975 21.8933 39.2149 21.7448 39.4012C21.5963 39.5848 21.4032 39.7252 21.1656 39.8224C20.9307 39.9196 20.6783 39.9628 20.4083 39.9519Z" fill="white"/>
</svg>
