<svg width="30" height="42" viewBox="0 0 30 42" fill="none" xmlns="http://www.w3.org/2000/svg">
<path d="M14.692 0.285156C6.75153 0.285156 0.314453 6.72234 0.314453 14.6627C0.314453 22.6035 6.75164 29.0402 14.692 29.0402C22.6329 29.0402 29.0695 22.6035 29.0695 14.6627C29.0695 6.72291 22.6329 0.285943 14.6917 0.285943L14.692 0.285156ZM21.2853 21.0218C21.0277 21.4441 20.4749 21.578 20.0525 21.3188C16.6768 19.2568 12.4274 18.7898 7.42278 19.9332C7.19103 19.986 6.94781 19.9446 6.74661 19.818C6.5454 19.6915 6.40269 19.4902 6.34986 19.2585C6.32355 19.1438 6.32012 19.025 6.33976 18.909C6.3594 18.7929 6.40173 18.6819 6.46433 18.5823C6.52693 18.4826 6.60856 18.3962 6.70456 18.3282C6.80056 18.2601 6.90905 18.2116 7.0238 18.1855C12.5007 16.9342 17.1985 17.4729 20.9883 19.789C21.4106 20.0483 21.5445 20.5994 21.2853 21.0218ZM23.0451 17.1069C22.7204 17.6343 22.0303 17.8009 21.5033 17.4764C17.6387 15.1009 11.7476 14.413 7.17656 15.8005C6.58372 15.9795 5.95762 15.6455 5.77768 15.0537C5.59908 14.4608 5.93336 13.8358 6.5252 13.6557C11.7466 12.0712 18.2378 12.8387 22.676 15.566C23.203 15.8906 23.3696 16.5806 23.0451 17.1069ZM23.1961 13.0304C18.5623 10.278 10.9172 10.0248 6.49307 11.3677C5.78262 11.5832 5.03128 11.1821 4.81607 10.4716C4.60075 9.76083 5.00141 9.01005 5.71242 8.79405C10.7909 7.25229 19.2337 7.55029 24.5685 10.7174C25.209 11.0966 25.4184 11.9219 25.0389 12.5601C24.6613 13.1992 23.8337 13.4098 23.1968 13.0304H23.1961Z" fill="#1ED760"/>
<path d="M4.58695 39.1678C4.28185 39.1678 3.98755 39.1205 3.70405 39.0261C3.42055 38.9289 3.17215 38.7912 2.95885 38.6129C2.74825 38.4348 2.5984 38.2228 2.5093 37.9771L3.14515 37.7382C3.19915 37.8893 3.29905 38.0216 3.44485 38.135C3.59335 38.2458 3.7675 38.3322 3.9673 38.3943C4.1671 38.4564 4.37365 38.4874 4.58695 38.4874C4.82995 38.4874 5.0554 38.4483 5.2633 38.37C5.4739 38.289 5.644 38.1769 5.7736 38.0338C5.9032 37.8907 5.968 37.7233 5.968 37.5316C5.968 37.3345 5.9005 37.1739 5.7655 37.0497C5.6305 36.9228 5.4577 36.8229 5.2471 36.75C5.0365 36.6744 4.81645 36.6163 4.58695 36.5758C4.19545 36.511 3.84445 36.4192 3.53395 36.3004C3.22615 36.1789 2.9818 36.0102 2.8009 35.7942C2.6227 35.5782 2.5336 35.2933 2.5336 34.9396C2.5336 34.6102 2.6281 34.3226 2.8171 34.077C3.0088 33.8313 3.26125 33.6409 3.57445 33.5059C3.88765 33.3709 4.22515 33.3034 4.58695 33.3034C4.88665 33.3034 5.1769 33.3507 5.4577 33.4452C5.7412 33.537 5.99095 33.672 6.20695 33.8502C6.42295 34.0284 6.5782 34.2457 6.6727 34.5022L6.02875 34.7371C5.97475 34.5832 5.8735 34.4509 5.725 34.3402C5.5792 34.2268 5.4064 34.1404 5.2066 34.081C5.0095 34.0189 4.80295 33.9879 4.58695 33.9879C4.34665 33.9852 4.12255 34.0243 3.91465 34.1053C3.70675 34.1863 3.538 34.2984 3.4084 34.4415C3.2788 34.5846 3.214 34.7506 3.214 34.9396C3.214 35.1664 3.2734 35.3406 3.3922 35.4621C3.5137 35.5809 3.6784 35.67 3.8863 35.7294C4.0942 35.7888 4.32775 35.8414 4.58695 35.8873C4.95415 35.9494 5.29435 36.048 5.60755 36.183C5.92075 36.3152 6.17185 36.4921 6.36085 36.7135C6.55255 36.9349 6.6484 37.2076 6.6484 37.5316C6.6484 37.861 6.55255 38.1486 6.36085 38.3943C6.17185 38.64 5.92075 38.8303 5.60755 38.9653C5.29435 39.1003 4.95415 39.1678 4.58695 39.1678ZM8.19081 41.0875H7.51041V35.0125H8.19081V35.7051C8.32851 35.4675 8.51211 35.2758 8.74161 35.1299C8.97111 34.9815 9.24381 34.9072 9.55971 34.9072C9.85401 34.9072 10.1294 34.9626 10.3859 35.0732C10.6451 35.1839 10.8719 35.3379 11.0663 35.535C11.2607 35.7294 11.4133 35.9548 11.524 36.2113C11.6347 36.4678 11.69 36.7432 11.69 37.0375C11.69 37.3318 11.6347 37.6085 11.524 37.8678C11.4133 38.127 11.2607 38.3551 11.0663 38.5522C10.8719 38.7466 10.6451 38.8992 10.3859 39.0099C10.1294 39.1205 9.85401 39.1759 9.55971 39.1759C9.24381 39.1759 8.97111 39.103 8.74161 38.9572C8.51211 38.8087 8.32851 38.6157 8.19081 38.378V41.0875ZM9.55161 35.5674C9.28971 35.5674 9.06021 35.6335 8.86311 35.7658C8.66601 35.8981 8.51346 36.075 8.40546 36.2964C8.30016 36.5178 8.24751 36.7648 8.24751 37.0375C8.24751 37.3075 8.30016 37.5546 8.40546 37.7787C8.51346 38.0028 8.66466 38.181 8.85906 38.3133C9.05616 38.4456 9.28701 38.5117 9.55161 38.5117C9.81351 38.5117 10.0538 38.4469 10.2725 38.3173C10.4912 38.185 10.6667 38.0082 10.799 37.7867C10.9313 37.5626 10.9975 37.3129 10.9975 37.0375C10.9975 36.7675 10.9327 36.5218 10.8031 36.3004C10.6735 36.0763 10.4993 35.8981 10.2806 35.7658C10.0619 35.6335 9.81891 35.5674 9.55161 35.5674ZM14.1255 39.1678C13.7529 39.1678 13.4127 39.0719 13.1049 38.8803C12.7998 38.6886 12.5555 38.4321 12.3719 38.1108C12.191 37.7868 12.1005 37.429 12.1005 37.0375C12.1005 36.7405 12.1532 36.4638 12.2585 36.2073C12.3638 35.9481 12.5082 35.7213 12.6918 35.5269C12.8781 35.3298 13.0941 35.1759 13.3398 35.0652C13.5855 34.9545 13.8474 34.8991 14.1255 34.8991C14.4981 34.8991 14.837 34.995 15.1421 35.1867C15.4499 35.3784 15.6942 35.6362 15.8751 35.9602C16.0587 36.2842 16.1505 36.6433 16.1505 37.0375C16.1505 37.3318 16.0979 37.6072 15.9926 37.8637C15.8873 38.1202 15.7415 38.347 15.5552 38.5441C15.3716 38.7385 15.1569 38.8911 14.9112 39.0018C14.6682 39.1124 14.4063 39.1678 14.1255 39.1678ZM14.1255 38.4874C14.3793 38.4874 14.6075 38.4213 14.81 38.2889C15.0152 38.154 15.1758 37.9771 15.2919 37.7584C15.4107 37.537 15.4701 37.2967 15.4701 37.0375C15.4701 36.7729 15.4094 36.5299 15.2879 36.3085C15.1691 36.0871 15.0084 35.9103 14.8059 35.778C14.6034 35.6457 14.3766 35.5795 14.1255 35.5795C13.8717 35.5795 13.6436 35.647 13.4411 35.782C13.2386 35.9143 13.0779 36.0912 12.9591 36.3126C12.8403 36.534 12.7809 36.7756 12.7809 37.0375C12.7809 37.3075 12.8417 37.5532 12.9632 37.7746C13.0847 37.9933 13.248 38.1674 13.4532 38.2971C13.6584 38.424 13.8825 38.4874 14.1255 38.4874ZM18.8711 35.6929H17.9518L17.9477 39.0625H17.2673L17.2714 35.6929H16.5748V35.0125H17.2714L17.2673 33.7408H17.9477L17.9518 35.0125H18.8711V35.6929ZM19.5576 35.0125H20.238V39.0625H19.5576V35.0125ZM19.9059 34.3523C19.7979 34.3523 19.7074 34.3173 19.6345 34.2471C19.5616 34.1769 19.5252 34.0891 19.5252 33.9838C19.5252 33.8785 19.5616 33.7908 19.6345 33.7206C19.7074 33.6504 19.7965 33.6153 19.9018 33.6153C20.0071 33.6153 20.0962 33.6504 20.1691 33.7206C20.242 33.7908 20.2785 33.8785 20.2785 33.9838C20.2785 34.0891 20.242 34.1769 20.1691 34.2471C20.0989 34.3173 20.0112 34.3523 19.9059 34.3523ZM22.1302 34.0121V35.0125H23.3168V35.6929H22.1302V39.0625H21.4498V35.6929H20.9273V35.0125H21.4498V34.0121C21.4498 33.8042 21.4997 33.6166 21.5996 33.4492C21.7022 33.2791 21.8386 33.1441 22.0087 33.0442C22.1815 32.9416 22.3705 32.8903 22.5757 32.8903C22.7269 32.8903 22.874 32.9214 23.0171 32.9835C23.1602 33.0429 23.2871 33.132 23.3978 33.2508L22.9118 33.7327C22.874 33.6814 22.8241 33.6423 22.762 33.6153C22.7026 33.5856 22.6405 33.5707 22.5757 33.5707C22.4542 33.5707 22.3489 33.6139 22.2598 33.7003C22.1734 33.7867 22.1302 33.8907 22.1302 34.0121ZM26.722 35.0125H27.4429L25.2275 41.0875H24.5066L25.2397 39.0625L23.7857 35.0125H24.5309L25.5799 38.127L26.722 35.0125Z" fill="white"/>
</svg>
