<svg width="46" height="43" viewBox="0 0 46 43" fill="none" xmlns="http://www.w3.org/2000/svg">
<path d="M35.9654 12.1855C36.3107 12.0416 36.5336 11.9776 36.7389 11.7727C36.944 11.5677 37.0592 11.2897 37.0592 10.9998C37.0592 10.7099 36.944 10.4319 36.7389 10.2269C36.5336 10.0219 36.4644 9.89909 35.9654 9.75271C35.4662 9.60632 11.2005 1.40301 11.2005 1.40301C10.8133 1.27054 10.3966 1.24926 9.99791 1.34162C9.59919 1.43397 9.23438 1.63624 8.94496 1.92543C8.65555 2.21463 8.45312 2.57917 8.3607 2.97758C8.26828 3.37602 8.28957 3.79235 8.42215 4.1793C8.42215 4.1793 16.8194 28.615 16.922 28.9472C17.0246 29.2795 17.157 29.515 17.3621 29.7201C17.5672 29.9251 17.8454 30.0402 18.1356 30.0402C18.4257 30.0402 18.7039 29.9251 18.909 29.7201C19.1142 29.515 19.1611 29.3989 19.3148 28.9472C19.4686 28.4956 23.6048 16.5742 23.6048 16.5742C23.6048 16.5742 35.6201 12.3295 35.9654 12.1855Z" stroke="white" stroke-width="2.43" stroke-linecap="round" stroke-linejoin="round"/>
<path d="M0.752945 40.875V35.205H1.49004L4.32099 39.6438V35.205H5.00139V40.875H4.26834L1.43334 36.4362V40.875H0.752945ZM9.1903 36.825H9.8707V40.875H9.1903L9.16195 40.1905C9.03505 40.4255 8.85955 40.6158 8.63545 40.7616C8.41405 40.9074 8.14945 40.9803 7.84165 40.9803C7.54465 40.9803 7.26655 40.9249 7.00735 40.8143C6.74815 40.7009 6.51865 40.5456 6.31885 40.3485C6.12175 40.1487 5.96785 39.9192 5.85715 39.66C5.74645 39.4008 5.6911 39.1214 5.6911 38.8217C5.6911 38.5328 5.7451 38.2601 5.8531 38.0035C5.9611 37.7471 6.11095 37.523 6.30265 37.3313C6.49705 37.1369 6.72115 36.9857 6.97495 36.8777C7.22875 36.767 7.50145 36.7116 7.79305 36.7116C8.11165 36.7116 8.3911 36.7872 8.6314 36.9384C8.8717 37.0869 9.0661 37.28 9.2146 37.5176L9.1903 36.825ZM7.8295 40.3202C8.0968 40.3202 8.32765 40.2554 8.52205 40.1258C8.71915 39.9935 8.87035 39.8153 8.97565 39.5912C9.08365 39.3671 9.13765 39.12 9.13765 38.85C9.13765 38.5746 9.08365 38.3262 8.97565 38.1048C8.86765 37.8807 8.7151 37.7039 8.518 37.5743C8.3236 37.442 8.0941 37.3758 7.8295 37.3758C7.5622 37.3758 7.3192 37.442 7.1005 37.5743C6.8818 37.7066 6.70765 37.8848 6.57805 38.1089C6.45115 38.3303 6.3877 38.5773 6.3877 38.85C6.3877 39.1227 6.45385 39.3711 6.58615 39.5952C6.71845 39.8166 6.89395 39.9935 7.11265 40.1258C7.33135 40.2554 7.5703 40.3202 7.8295 40.3202ZM12.7781 37.5054H11.8587L11.8547 40.875H11.1743L11.1783 37.5054H10.4817V36.825H11.1783L11.1743 35.5533H11.8547L11.8587 36.825H12.7781V37.5054ZM13.4646 36.825H14.145V40.875H13.4646V36.825ZM13.8129 36.1648C13.7049 36.1648 13.6144 36.1298 13.5415 36.0596C13.4686 35.9894 13.4322 35.9016 13.4322 35.7963C13.4322 35.691 13.4686 35.6033 13.5415 35.5331C13.6144 35.4629 13.7035 35.4278 13.8088 35.4278C13.9141 35.4278 14.0032 35.4629 14.0761 35.5331C14.149 35.6033 14.1855 35.691 14.1855 35.7963C14.1855 35.9016 14.149 35.9894 14.0761 36.0596C14.0059 36.1298 13.9182 36.1648 13.8129 36.1648ZM17.1526 40.875H16.2818L14.8036 36.8169H15.5285L16.7152 40.0853L17.9018 36.8169H18.6268L17.1526 40.875ZM20.9102 40.9803C20.5376 40.9803 20.1974 40.8844 19.8896 40.6928C19.5845 40.5011 19.3402 40.2446 19.1566 39.9233C18.9757 39.5993 18.8852 39.2415 18.8852 38.85C18.8852 38.553 18.9379 38.2763 19.0432 38.0198C19.1485 37.7606 19.2929 37.5338 19.4765 37.3394C19.6628 37.1423 19.8788 36.9884 20.1245 36.8777C20.3702 36.767 20.6321 36.7116 20.9102 36.7116C21.2153 36.7116 21.4948 36.7737 21.7486 36.8979C22.0051 37.0194 22.2238 37.1895 22.4047 37.4082C22.5883 37.6269 22.7246 37.8807 22.8137 38.1696C22.9055 38.4585 22.9393 38.7677 22.915 39.0971H19.6102C19.6426 39.3266 19.7182 39.5318 19.837 39.7127C19.9558 39.8909 20.107 40.0326 20.2906 40.1379C20.4769 40.2432 20.6834 40.2972 20.9102 40.2999C21.1532 40.2999 21.3733 40.2378 21.5704 40.1136C21.7675 39.9867 21.9268 39.8139 22.0483 39.5952L22.7408 39.7572C22.5788 40.1163 22.3345 40.4106 22.0078 40.6401C21.6811 40.8669 21.3152 40.9803 20.9102 40.9803ZM19.5899 38.5625H22.2305C22.2089 38.3357 22.136 38.1291 22.0118 37.9428C21.8876 37.7538 21.7297 37.6026 21.538 37.4892C21.3463 37.3758 21.137 37.3191 20.9102 37.3191C20.6834 37.3191 20.4755 37.3745 20.2865 37.4852C20.0975 37.5959 19.9409 37.7457 19.8167 37.9347C19.6952 38.121 19.6196 38.3303 19.5899 38.5625ZM25.5987 40.875L26.6963 35.205H27.2187L28.7496 39.2307L30.2765 35.205H30.7989L31.9005 40.875H31.208L30.4101 36.7602L28.9724 40.5672H28.5228L27.0851 36.7602L26.2913 40.875H25.5987ZM35.7763 36.825H36.4567V40.875H35.7763L35.748 40.1905C35.6211 40.4255 35.4456 40.6158 35.2215 40.7616C35.0001 40.9074 34.7355 40.9803 34.4277 40.9803C34.1307 40.9803 33.8526 40.9249 33.5934 40.8143C33.3342 40.7009 33.1047 40.5456 32.9049 40.3485C32.7078 40.1487 32.5539 39.9192 32.4432 39.66C32.3325 39.4008 32.2771 39.1214 32.2771 38.8217C32.2771 38.5328 32.3311 38.2601 32.4391 38.0035C32.5471 37.7471 32.697 37.523 32.8887 37.3313C33.0831 37.1369 33.3072 36.9857 33.561 36.8777C33.8148 36.767 34.0875 36.7116 34.3791 36.7116C34.6977 36.7116 34.9771 36.7872 35.2174 36.9384C35.4577 37.0869 35.6521 37.28 35.8006 37.5176L35.7763 36.825ZM34.4155 40.3202C34.6828 40.3202 34.9137 40.2554 35.1081 40.1258C35.3052 39.9935 35.4564 39.8153 35.5617 39.5912C35.6697 39.3671 35.7237 39.12 35.7237 38.85C35.7237 38.5746 35.6697 38.3262 35.5617 38.1048C35.4537 37.8807 35.3011 37.7039 35.104 37.5743C34.9096 37.442 34.6801 37.3758 34.4155 37.3758C34.1482 37.3758 33.9052 37.442 33.6865 37.5743C33.4678 37.7066 33.2937 37.8848 33.1641 38.1089C33.0372 38.3303 32.9737 38.5773 32.9737 38.85C32.9737 39.1227 33.0399 39.3711 33.1722 39.5952C33.3045 39.8166 33.48 39.9935 33.6987 40.1258C33.9174 40.2554 34.1563 40.3202 34.4155 40.3202ZM37.9466 42.9H37.2662V36.825H37.9466V37.5176C38.0843 37.28 38.2679 37.0883 38.4974 36.9424C38.7269 36.794 38.9996 36.7197 39.3155 36.7197C39.6098 36.7197 39.8852 36.7751 40.1417 36.8857C40.4009 36.9964 40.6277 37.1504 40.8221 37.3475C41.0165 37.5419 41.1691 37.7673 41.2798 38.0238C41.3905 38.2803 41.4458 38.5557 41.4458 38.85C41.4458 39.1443 41.3905 39.421 41.2798 39.6803C41.1691 39.9395 41.0165 40.1676 40.8221 40.3647C40.6277 40.5591 40.4009 40.7117 40.1417 40.8224C39.8852 40.933 39.6098 40.9884 39.3155 40.9884C38.9996 40.9884 38.7269 40.9155 38.4974 40.7697C38.2679 40.6212 38.0843 40.4282 37.9466 40.1905V42.9ZM39.3074 37.3799C39.0455 37.3799 38.816 37.446 38.6189 37.5783C38.4218 37.7106 38.2693 37.8875 38.1613 38.1089C38.056 38.3303 38.0033 38.5773 38.0033 38.85C38.0033 39.12 38.056 39.3671 38.1613 39.5912C38.2693 39.8153 38.4205 39.9935 38.6149 40.1258C38.812 40.2581 39.0428 40.3242 39.3074 40.3242C39.5693 40.3242 39.8096 40.2594 40.0283 40.1298C40.247 39.9975 40.4225 39.8207 40.5548 39.5992C40.6871 39.3751 40.7533 39.1254 40.7533 38.85C40.7533 38.58 40.6885 38.3343 40.5589 38.1129C40.4293 37.8888 40.2551 37.7106 40.0364 37.5783C39.8177 37.446 39.5747 37.3799 39.3074 37.3799ZM43.3741 40.9519C43.1554 40.9438 42.9421 40.9033 42.7342 40.8304C42.529 40.7549 42.3481 40.6536 42.1915 40.5267C42.0376 40.3971 41.9256 40.2486 41.8554 40.0812L42.4386 39.8301C42.4791 39.9219 42.552 40.0083 42.6573 40.0893C42.7626 40.1703 42.8841 40.2351 43.0218 40.2837C43.1595 40.3323 43.2985 40.3566 43.4389 40.3566C43.5874 40.3566 43.7265 40.3337 43.8561 40.2877C43.9857 40.2419 44.091 40.1744 44.172 40.0853C44.2557 39.9935 44.2975 39.8841 44.2975 39.7572C44.2975 39.6222 44.2516 39.5169 44.1598 39.4413C44.0707 39.363 43.9573 39.3023 43.8196 39.2591C43.6846 39.2132 43.5469 39.17 43.4065 39.1295C43.1284 39.0593 42.88 38.9756 42.6613 38.8784C42.4426 38.7785 42.2698 38.6529 42.1429 38.5017C42.0187 38.3478 41.9566 38.1521 41.9566 37.9145C41.9566 37.6634 42.0255 37.446 42.1632 37.2624C42.3036 37.0788 42.4872 36.9371 42.714 36.8372C42.9408 36.7373 43.1838 36.6873 43.443 36.6873C43.7697 36.6873 44.068 36.7575 44.338 36.8979C44.608 37.0383 44.8092 37.2287 44.9415 37.469L44.3947 37.7889C44.3488 37.6917 44.2786 37.6067 44.1841 37.5338C44.0896 37.4582 43.9816 37.3988 43.8601 37.3556C43.7386 37.3124 43.6144 37.2894 43.4875 37.2867C43.3309 37.2813 43.1838 37.3015 43.0461 37.3475C42.9111 37.3934 42.8017 37.4636 42.718 37.558C42.637 37.6499 42.5965 37.7646 42.5965 37.9023C42.5965 38.0373 42.6397 38.1399 42.7261 38.2101C42.8152 38.2803 42.93 38.337 43.0704 38.3802C43.2135 38.4207 43.3687 38.468 43.5361 38.522C43.7818 38.6002 44.0113 38.6907 44.2246 38.7933C44.4379 38.8959 44.6094 39.0242 44.739 39.1781C44.8713 39.332 44.9361 39.5223 44.9334 39.7491C44.9334 39.9975 44.8591 40.2149 44.7106 40.4012C44.5621 40.5848 44.3691 40.7252 44.1315 40.8224C43.8966 40.9196 43.6441 40.9628 43.3741 40.9519Z" fill="white"/>
</svg>
