<svg width="24" height="42" viewBox="0 0 24 42" fill="none" xmlns="http://www.w3.org/2000/svg">
<path d="M3.59523 3.16066V9.87016C3.59523 10.0199 3.66711 10.1637 3.78693 10.2536L6.85413 12.554C7.26149 12.8595 7.47715 13.3567 7.42324 13.8659L6.80021 19.4552H3.90674L4.46986 14.3631L2.06163 12.554C1.21695 11.919 0.719727 10.9245 0.719727 9.87016V2.68141C0.719727 1.35748 1.79205 0.285156 3.11598 0.285156H21.3275C22.6514 0.285156 23.7237 1.35748 23.7237 2.68141V9.87016C23.7237 10.9245 23.2265 11.919 22.3818 12.554L19.9736 14.3631L20.5367 19.4552H17.6432L17.0202 13.8659C16.9663 13.3627 17.182 12.8595 17.5893 12.554L20.6565 10.2536C20.7763 10.1637 20.8482 10.0199 20.8482 9.87016V3.16066H17.0142V4.59841C17.0142 5.39516 16.3732 6.03616 15.5765 6.03616C14.7797 6.03616 14.1387 5.39516 14.1387 4.59841V3.16066H10.3047V4.59841C10.3047 5.39516 9.66373 6.03616 8.86698 6.03616C8.07022 6.03616 7.42923 5.39516 7.42923 4.59841V3.16066H3.59523ZM3.87679 26.1647H20.5667L19.5722 24.2477H4.86524L3.87679 26.1647ZM20.1653 21.3722C20.8842 21.3722 21.5371 21.7735 21.8666 22.4085L23.4541 25.4757C23.6339 25.8232 23.7297 26.2066 23.7297 26.596C23.7297 27.9439 22.6394 29.0402 21.2855 29.0402H3.1639C1.81002 29.0402 0.719727 27.9499 0.719727 26.596C0.719727 26.2066 0.815576 25.8232 0.995295 25.4757L2.58281 22.4085C2.9063 21.7735 3.56527 21.3722 4.28415 21.3722H20.1593H20.1653ZM11.2632 15.6212C10.7361 15.6212 10.3047 15.1898 10.3047 14.6627V11.7872C10.3047 10.7268 11.1614 9.87016 12.2217 9.87016C13.2821 9.87016 14.1387 10.7268 14.1387 11.7872V14.6627C14.1387 15.1898 13.7074 15.6212 13.1802 15.6212H11.2632Z" fill="white"/>
<path d="M4.10742 39.1717C3.72402 39.1717 3.36357 39.0961 3.02607 38.9449C2.68857 38.791 2.39157 38.5804 2.13507 38.3131C1.88127 38.0431 1.68147 37.7299 1.53567 37.3735C1.39257 37.0171 1.32102 36.6364 1.32102 36.2314C1.32102 35.8264 1.39257 35.4457 1.53567 35.0893C1.68147 34.7329 1.88127 34.4211 2.13507 34.1538C2.39157 33.8838 2.68857 33.6732 3.02607 33.522C3.36357 33.3681 3.72402 33.2911 4.10742 33.2911C4.56642 33.2911 4.98897 33.3978 5.37507 33.6111C5.76117 33.8244 6.08112 34.1079 6.33492 34.4616L5.73147 34.7856C5.54247 34.5372 5.30352 34.3401 5.01462 34.1943C4.72842 34.0458 4.42602 33.9715 4.10742 33.9715C3.81312 33.9715 3.53772 34.0309 3.28122 34.1497C3.02742 34.2685 2.80467 34.4319 2.61297 34.6398C2.42127 34.8477 2.27142 35.088 2.16342 35.3607C2.05542 35.6334 2.00142 35.9236 2.00142 36.2314C2.00142 36.5419 2.05542 36.8335 2.16342 37.1062C2.27412 37.3789 2.42532 37.6192 2.61702 37.8271C2.81142 38.035 3.03552 38.1984 3.28932 38.3172C3.54582 38.4333 3.81852 38.4913 4.10742 38.4913C4.43682 38.4913 4.74192 38.4171 5.02272 38.2686C5.30622 38.1174 5.54247 37.9203 5.73147 37.6773L6.33492 38.0053C6.08112 38.359 5.76117 38.6425 5.37507 38.8558C4.98897 39.0664 4.56642 39.1717 4.10742 39.1717ZM10.7348 36.5473V39.0664H10.0544V36.6972C10.0544 36.492 10.0045 36.3057 9.90455 36.1383C9.80465 35.9709 9.671 35.8386 9.5036 35.7414C9.3362 35.6415 9.1499 35.5915 8.9447 35.5915C8.7422 35.5915 8.5559 35.6415 8.3858 35.7414C8.2184 35.8386 8.08475 35.9709 7.98485 36.1383C7.88495 36.3057 7.835 36.492 7.835 36.6972V39.0664H7.1546V32.9914H7.835V35.5227C7.9781 35.3337 8.159 35.1838 8.3777 35.0731C8.5964 34.9597 8.834 34.903 9.0905 34.903C9.3929 34.903 9.6683 34.9773 9.9167 35.1258C10.1678 35.2716 10.3663 35.4687 10.5121 35.7171C10.6606 35.9655 10.7348 36.2422 10.7348 36.5473ZM13.2476 39.1717C12.875 39.1717 12.5348 39.0759 12.227 38.8842C11.9219 38.6925 11.6776 38.436 11.494 38.1147C11.3131 37.7907 11.2226 37.4329 11.2226 37.0414C11.2226 36.7444 11.2753 36.4677 11.3806 36.2112C11.4859 35.952 11.6303 35.7252 11.8139 35.5308C12.0002 35.3337 12.2162 35.1798 12.4619 35.0691C12.7076 34.9584 12.9695 34.903 13.2476 34.903C13.5527 34.903 13.8322 34.9651 14.086 35.0893C14.3425 35.2108 14.5612 35.3809 14.7421 35.5996C14.9257 35.8183 15.062 36.0721 15.1511 36.361C15.2429 36.6499 15.2767 36.9591 15.2524 37.2885H11.9476C11.98 37.518 12.0556 37.7232 12.1744 37.9041C12.2932 38.0823 12.4444 38.224 12.628 38.3293C12.8143 38.4346 13.0208 38.4886 13.2476 38.4913C13.4906 38.4913 13.7107 38.4292 13.9078 38.305C14.1049 38.1781 14.2642 38.0053 14.3857 37.7866L15.0782 37.9486C14.9162 38.3077 14.6719 38.602 14.3452 38.8315C14.0185 39.0583 13.6526 39.1717 13.2476 39.1717ZM11.9273 36.7539H14.5679C14.5463 36.5271 14.4734 36.3205 14.3492 36.1342C14.225 35.9452 14.0671 35.794 13.8754 35.6806C13.6837 35.5672 13.4744 35.5105 13.2476 35.5105C13.0208 35.5105 12.8129 35.5659 12.6239 35.6766C12.4349 35.7873 12.2783 35.9371 12.1541 36.1261C12.0326 36.3124 11.957 36.5217 11.9273 36.7539ZM17.1859 39.1434C16.9672 39.1353 16.7539 39.0948 16.546 39.0219C16.3408 38.9463 16.1599 38.845 16.0033 38.7181C15.8494 38.5885 15.7374 38.44 15.6672 38.2726L16.2504 38.0215C16.2909 38.1133 16.3638 38.1997 16.4691 38.2807C16.5744 38.3617 16.6959 38.4265 16.8336 38.4751C16.9713 38.5237 17.1103 38.548 17.2507 38.548C17.3992 38.548 17.5383 38.5251 17.6679 38.4792C17.7975 38.4333 17.9028 38.3658 17.9838 38.2767C18.0675 38.1849 18.1093 38.0755 18.1093 37.9486C18.1093 37.8136 18.0634 37.7083 17.9716 37.6327C17.8825 37.5544 17.7691 37.4937 17.6314 37.4505C17.4964 37.4046 17.3587 37.3614 17.2183 37.3209C16.9402 37.2507 16.6918 37.167 16.4731 37.0698C16.2544 36.9699 16.0816 36.8443 15.9547 36.6931C15.8305 36.5392 15.7684 36.3435 15.7684 36.1059C15.7684 35.8548 15.8373 35.6374 15.975 35.4538C16.1154 35.2702 16.299 35.1285 16.5258 35.0286C16.7526 34.9287 16.9956 34.8787 17.2548 34.8787C17.5815 34.8787 17.8798 34.9489 18.1498 35.0893C18.4198 35.2297 18.621 35.4201 18.7533 35.6604L18.2065 35.9803C18.1606 35.8831 18.0904 35.7981 17.9959 35.7252C17.9014 35.6496 17.7934 35.5902 17.6719 35.547C17.5504 35.5038 17.4262 35.4808 17.2993 35.4781C17.1427 35.4727 16.9956 35.493 16.8579 35.5389C16.7229 35.5848 16.6135 35.655 16.5298 35.7495C16.4488 35.8413 16.4083 35.956 16.4083 36.0937C16.4083 36.2287 16.4515 36.3313 16.5379 36.4015C16.627 36.4717 16.7418 36.5284 16.8822 36.5716C17.0253 36.6121 17.1805 36.6594 17.3479 36.7134C17.5936 36.7917 17.8231 36.8821 18.0364 36.9847C18.2497 37.0873 18.4212 37.2156 18.5508 37.3695C18.6831 37.5234 18.7479 37.7137 18.7452 37.9405C18.7452 38.1889 18.6709 38.4063 18.5224 38.5926C18.3739 38.7762 18.1809 38.9166 17.9433 39.0138C17.7084 39.111 17.4559 39.1542 17.1859 39.1434ZM20.6743 39.1434C20.4556 39.1353 20.2423 39.0948 20.0344 39.0219C19.8292 38.9463 19.6483 38.845 19.4917 38.7181C19.3378 38.5885 19.2258 38.44 19.1556 38.2726L19.7388 38.0215C19.7793 38.1133 19.8522 38.1997 19.9575 38.2807C20.0628 38.3617 20.1843 38.4265 20.322 38.4751C20.4597 38.5237 20.5987 38.548 20.7391 38.548C20.8876 38.548 21.0267 38.5251 21.1563 38.4792C21.2859 38.4333 21.3912 38.3658 21.4722 38.2767C21.5559 38.1849 21.5977 38.0755 21.5977 37.9486C21.5977 37.8136 21.5518 37.7083 21.46 37.6327C21.3709 37.5544 21.2575 37.4937 21.1198 37.4505C20.9848 37.4046 20.8471 37.3614 20.7067 37.3209C20.4286 37.2507 20.1802 37.167 19.9615 37.0698C19.7428 36.9699 19.57 36.8443 19.4431 36.6931C19.3189 36.5392 19.2568 36.3435 19.2568 36.1059C19.2568 35.8548 19.3257 35.6374 19.4634 35.4538C19.6038 35.2702 19.7874 35.1285 20.0142 35.0286C20.241 34.9287 20.484 34.8787 20.7432 34.8787C21.0699 34.8787 21.3682 34.9489 21.6382 35.0893C21.9082 35.2297 22.1094 35.4201 22.2417 35.6604L21.6949 35.9803C21.649 35.8831 21.5788 35.7981 21.4843 35.7252C21.3898 35.6496 21.2818 35.5902 21.1603 35.547C21.0388 35.5038 20.9146 35.4808 20.7877 35.4781C20.6311 35.4727 20.484 35.493 20.3463 35.5389C20.2113 35.5848 20.1019 35.655 20.0182 35.7495C19.9372 35.8413 19.8967 35.956 19.8967 36.0937C19.8967 36.2287 19.9399 36.3313 20.0263 36.4015C20.1154 36.4717 20.2302 36.5284 20.3706 36.5716C20.5137 36.6121 20.6689 36.6594 20.8363 36.7134C21.082 36.7917 21.3115 36.8821 21.5248 36.9847C21.7381 37.0873 21.9096 37.2156 22.0392 37.3695C22.1715 37.5234 22.2363 37.7137 22.2336 37.9405C22.2336 38.1889 22.1593 38.4063 22.0108 38.5926C21.8623 38.7762 21.6693 38.9166 21.4317 39.0138C21.1968 39.111 20.9443 39.1542 20.6743 39.1434Z" fill="white"/>
</svg>
