<svg width="85" height="60" viewBox="0 0 85 60" fill="none" xmlns="http://www.w3.org/2000/svg">
<path d="M82.4934 9.99173C82.0188 8.2044 81.0829 6.57313 79.7794 5.26133C78.476 3.94952 76.8508 3.00322 75.0665 2.51721C68.516 0.75 42.249 0.75 42.249 0.75C42.249 0.75 15.9821 0.75 9.43156 2.51721C7.6473 3.00322 6.02205 3.94952 4.71861 5.26133C3.41516 6.57313 2.47927 8.2044 2.00468 9.99173C0.249024 16.5841 0.249023 30.3406 0.249023 30.3406C0.249023 30.3406 0.249024 44.0971 2.00468 50.6909C2.47927 52.4782 3.41516 54.1095 4.71861 55.4213C6.02205 56.7331 7.6473 57.6794 9.43156 58.1654C15.9821 59.9312 42.249 59.9312 42.249 59.9312C42.249 59.9312 68.516 59.9312 75.0665 58.1654C76.8508 57.6794 78.476 56.7331 79.7794 55.4213C81.0829 54.1095 82.0188 52.4782 82.4934 50.6909C84.249 44.0971 84.249 30.3406 84.249 30.3406C84.249 30.3406 84.249 16.5841 82.4934 9.99173Z" fill="#E51B00"/>
<path d="M34.9004 43.0538L56.8547 30.565L34.9004 18.0762V43.0538Z" fill="white"/>
</svg>
