<svg width="38" height="43" viewBox="0 0 38 43" fill="none" xmlns="http://www.w3.org/2000/svg">
<path d="M3.37105 40.2576C2.98765 40.2576 2.6272 40.182 2.2897 40.0308C1.9522 39.8769 1.6552 39.6663 1.3987 39.399C1.1449 39.129 0.945097 38.8158 0.799297 38.4594C0.656197 38.103 0.584647 37.7223 0.584647 37.3173C0.584647 36.9123 0.656197 36.5316 0.799297 36.1752C0.945097 35.8188 1.1449 35.507 1.3987 35.2397C1.6552 34.9697 1.9522 34.7591 2.2897 34.6079C2.6272 34.454 2.98765 34.377 3.37105 34.377C3.83005 34.377 4.2526 34.4837 4.6387 34.697C5.0248 34.9103 5.34475 35.1938 5.59855 35.5475L4.9951 35.8715C4.8061 35.6231 4.56715 35.426 4.27825 35.2802C3.99205 35.1317 3.68965 35.0574 3.37105 35.0574C3.07675 35.0574 2.80135 35.1168 2.54485 35.2356C2.29105 35.3544 2.0683 35.5178 1.8766 35.7257C1.6849 35.9336 1.53505 36.1739 1.42705 36.4466C1.31905 36.7193 1.26505 37.0095 1.26505 37.3173C1.26505 37.6278 1.31905 37.9194 1.42705 38.1921C1.53775 38.4648 1.68895 38.7051 1.88065 38.913C2.07505 39.1209 2.29915 39.2843 2.55295 39.4031C2.80945 39.5192 3.08215 39.5772 3.37105 39.5772C3.70045 39.5772 4.00555 39.503 4.28635 39.3545C4.56985 39.2033 4.8061 39.0062 4.9951 38.7632L5.59855 39.0912C5.34475 39.4449 5.0248 39.7284 4.6387 39.9417C4.2526 40.1523 3.83005 40.2576 3.37105 40.2576ZM9.44503 36.1023H10.1254V40.1523H9.44503L9.41668 39.4679C9.28978 39.7028 9.11428 39.8931 8.89018 40.0389C8.66878 40.1847 8.40418 40.2576 8.09638 40.2576C7.79938 40.2576 7.52128 40.2023 7.26208 40.0916C7.00288 39.9782 6.77338 39.8229 6.57358 39.6258C6.37648 39.426 6.22258 39.1965 6.11188 38.9373C6.00118 38.6781 5.94583 38.3987 5.94583 38.099C5.94583 37.8101 5.99983 37.5374 6.10783 37.2809C6.21583 37.0244 6.36568 36.8003 6.55738 36.6086C6.75178 36.4142 6.97588 36.263 7.22968 36.155C7.48348 36.0443 7.75618 35.9889 8.04778 35.9889C8.36638 35.9889 8.64583 36.0645 8.88613 36.2157C9.12643 36.3642 9.32083 36.5573 9.46933 36.7949L9.44503 36.1023ZM8.08423 39.5975C8.35153 39.5975 8.58238 39.5327 8.77678 39.4031C8.97388 39.2708 9.12508 39.0926 9.23038 38.8685C9.33838 38.6444 9.39238 38.3973 9.39238 38.1273C9.39238 37.8519 9.33838 37.6035 9.23038 37.3821C9.12238 37.158 8.96983 36.9812 8.77273 36.8516C8.57833 36.7193 8.34883 36.6531 8.08423 36.6531C7.81693 36.6531 7.57393 36.7193 7.35523 36.8516C7.13653 36.9839 6.96238 37.1621 6.83278 37.3862C6.70588 37.6076 6.64243 37.8546 6.64243 38.1273C6.64243 38.4 6.70858 38.6484 6.84088 38.8725C6.97318 39.0939 7.14868 39.2708 7.36738 39.4031C7.58608 39.5327 7.82503 39.5975 8.08423 39.5975ZM10.9824 40.1523V34.0773H11.6628V40.1523H10.9824ZM15.3865 39.0831L15.994 39.4112C15.8104 39.6677 15.5769 39.8729 15.2934 40.0268C15.0126 40.1807 14.7075 40.2576 14.3781 40.2576C14.0055 40.2576 13.6653 40.1618 13.3575 39.9701C13.0524 39.7784 12.808 39.5219 12.6244 39.2006C12.4435 38.8766 12.3531 38.5188 12.3531 38.1273C12.3531 37.8303 12.4057 37.5536 12.511 37.2971C12.6163 37.0379 12.7608 36.8111 12.9444 36.6167C13.1307 36.4196 13.3467 36.2657 13.5924 36.155C13.8381 36.0443 14.1 35.9889 14.3781 35.9889C14.7075 35.9889 15.0126 36.0659 15.2934 36.2198C15.5769 36.3737 15.8104 36.5802 15.994 36.8394L15.3865 37.1675C15.2569 37.0082 15.103 36.8853 14.9248 36.7989C14.7466 36.7125 14.5644 36.6693 14.3781 36.6693C14.127 36.6693 13.8988 36.7368 13.6936 36.8718C13.4911 37.0041 13.3305 37.181 13.2117 37.4024C13.0929 37.6238 13.0335 37.8654 13.0335 38.1273C13.0335 38.3892 13.0929 38.6309 13.2117 38.8523C13.3332 39.071 13.4952 39.2465 13.6977 39.3788C13.9029 39.5111 14.1297 39.5772 14.3781 39.5772C14.5779 39.5772 14.7655 39.5313 14.941 39.4395C15.1165 39.3477 15.265 39.2289 15.3865 39.0831ZM16.5078 38.6133V36.1023H17.1882V38.4635C17.1882 38.6687 17.2381 38.855 17.338 39.0224C17.4379 39.1898 17.5716 39.3234 17.739 39.4233C17.9091 39.5205 18.0954 39.5691 18.2979 39.5691C18.5031 39.5691 18.688 39.5205 18.8527 39.4233C19.0201 39.3234 19.1538 39.1898 19.2537 39.0224C19.3536 38.855 19.4035 38.6687 19.4035 38.4635V36.1023H20.0839L20.088 40.1523H19.4076L19.4035 39.638C19.2604 39.827 19.0795 39.9782 18.8608 40.0916C18.6421 40.2023 18.4059 40.2576 18.1521 40.2576C17.8497 40.2576 17.5729 40.1847 17.3218 40.0389C17.0734 39.8904 16.875 39.692 16.7265 39.4436C16.5807 39.1952 16.5078 38.9184 16.5078 38.6133ZM20.9492 40.1523V34.0773H21.6296V40.1523H20.9492ZM25.8191 36.1023H26.4995V40.1523H25.8191L25.7907 39.4679C25.6638 39.7028 25.4883 39.8931 25.2642 40.0389C25.0428 40.1847 24.7782 40.2576 24.4704 40.2576C24.1734 40.2576 23.8953 40.2023 23.6361 40.0916C23.3769 39.9782 23.1474 39.8229 22.9476 39.6258C22.7505 39.426 22.5966 39.1965 22.4859 38.9373C22.3752 38.6781 22.3199 38.3987 22.3199 38.099C22.3199 37.8101 22.3739 37.5374 22.4819 37.2809C22.5899 37.0244 22.7397 36.8003 22.9314 36.6086C23.1258 36.4142 23.3499 36.263 23.6037 36.155C23.8575 36.0443 24.1302 35.9889 24.4218 35.9889C24.7404 35.9889 25.0199 36.0645 25.2602 36.2157C25.5005 36.3642 25.6949 36.5573 25.8434 36.7949L25.8191 36.1023ZM24.4583 39.5975C24.7256 39.5975 24.9564 39.5327 25.1508 39.4031C25.3479 39.2708 25.4991 39.0926 25.6044 38.8685C25.7124 38.6444 25.7664 38.3973 25.7664 38.1273C25.7664 37.8519 25.7124 37.6035 25.6044 37.3821C25.4964 37.158 25.3439 36.9812 25.1468 36.8516C24.9524 36.7193 24.7229 36.6531 24.4583 36.6531C24.191 36.6531 23.948 36.7193 23.7293 36.8516C23.5106 36.9839 23.3364 37.1621 23.2068 37.3862C23.0799 37.6076 23.0165 37.8546 23.0165 38.1273C23.0165 38.4 23.0826 38.6484 23.2149 38.8725C23.3472 39.0939 23.5227 39.2708 23.7414 39.4031C23.9601 39.5327 24.1991 39.5975 24.4583 39.5975ZM29.4068 36.7827H28.4875L28.4834 40.1523H27.803L27.8071 36.7827H27.1105V36.1023H27.8071L27.803 34.8306H28.4834L28.4875 36.1023H29.4068V36.7827ZM31.812 40.2576C31.4394 40.2576 31.0992 40.1618 30.7914 39.9701C30.4863 39.7784 30.242 39.5219 30.0584 39.2006C29.8775 38.8766 29.787 38.5188 29.787 38.1273C29.787 37.8303 29.8397 37.5536 29.945 37.2971C30.0503 37.0379 30.1947 36.8111 30.3783 36.6167C30.5646 36.4196 30.7806 36.2657 31.0263 36.155C31.272 36.0443 31.5339 35.9889 31.812 35.9889C32.1846 35.9889 32.5235 36.0848 32.8286 36.2765C33.1364 36.4682 33.3807 36.726 33.5616 37.05C33.7452 37.374 33.837 37.7331 33.837 38.1273C33.837 38.4216 33.7844 38.697 33.6791 38.9535C33.5738 39.21 33.428 39.4368 33.2417 39.6339C33.0581 39.8283 32.8434 39.9809 32.5977 40.0916C32.3547 40.2023 32.0928 40.2576 31.812 40.2576ZM31.812 39.5772C32.0658 39.5772 32.294 39.5111 32.4965 39.3788C32.7017 39.2438 32.8623 39.0669 32.9784 38.8482C33.0972 38.6268 33.1566 38.3865 33.1566 38.1273C33.1566 37.8627 33.0959 37.6197 32.9744 37.3983C32.8556 37.1769 32.6949 37.0001 32.4924 36.8678C32.2899 36.7355 32.0631 36.6693 31.812 36.6693C31.5582 36.6693 31.3301 36.7368 31.1276 36.8718C30.9251 37.0041 30.7644 37.181 30.6456 37.4024C30.5268 37.6238 30.4674 37.8654 30.4674 38.1273C30.4674 38.3973 30.5282 38.643 30.6497 38.8644C30.7712 39.0831 30.9345 39.2573 31.1397 39.3869C31.3449 39.5138 31.569 39.5772 31.812 39.5772ZM34.5072 40.1523V36.1023H35.1876V36.6086C35.3307 36.4196 35.5116 36.2697 35.7303 36.159C35.949 36.0456 36.1866 35.9889 36.4431 35.9889C36.5997 35.9889 36.7509 36.0092 36.8967 36.0497L36.6213 36.7301C36.5106 36.695 36.4026 36.6774 36.2973 36.6774C36.0948 36.6774 35.9085 36.7274 35.7384 36.8273C35.571 36.9245 35.4373 37.0568 35.3374 37.2242C35.2375 37.3916 35.1876 37.5779 35.1876 37.7831V40.1523H34.5072Z" fill="white"/>
<path d="M9.17329 10.447H11.6462V12.92C11.6462 12.9847 11.7109 13.035 11.79 13.035H13.5153C13.5944 13.035 13.6591 12.9847 13.6591 12.9164V10.447H16.132C16.1967 10.447 16.247 10.3823 16.247 10.3033V8.57796C16.247 8.49888 16.1967 8.43418 16.1284 8.43418H13.6591V5.96125C13.6591 5.89655 13.5944 5.84623 13.5153 5.84623H11.79C11.7109 5.84623 11.6462 5.89655 11.6462 5.96125V8.43418H9.17329C9.10859 8.43418 9.05827 8.49888 9.05827 8.57796V10.3033C9.05827 10.3823 9.10859 10.447 9.17329 10.447ZM20.9628 10.447H27.9216C27.9863 10.447 28.0366 10.3823 28.0366 10.3033V8.57796C28.0366 8.49888 27.9862 8.43418 27.918 8.43418H20.9628C20.8981 8.43418 20.8478 8.49888 20.8478 8.57796V10.3033C20.8478 10.3823 20.8981 10.447 20.9628 10.447ZM20.9628 19.9721H27.9216C27.9863 19.9721 28.0366 19.9074 28.0366 19.8284V18.1031C28.0366 18.024 27.9862 17.9593 27.918 17.9593H20.9628C20.8981 17.9593 20.8478 18.024 20.8478 18.1031V19.8284C20.8478 19.9074 20.8981 19.9721 20.9628 19.9721ZM20.9628 23.7103H27.9216C27.9863 23.7103 28.0366 23.6456 28.0366 23.5665V21.8412C28.0366 21.7621 27.9862 21.6974 27.918 21.6974H20.9628C20.8981 21.6974 20.8478 21.7621 20.8478 21.8412V23.5665C20.8478 23.6456 20.8981 23.7103 20.9628 23.7103ZM13.9286 20.7988L16.1284 18.1066C16.283 17.9197 16.1536 17.6358 15.9163 17.6358H14.0904C14.0077 17.6358 13.9286 17.6717 13.8783 17.74L12.6562 19.2353L11.4342 17.74C11.4084 17.7083 11.3762 17.6826 11.3396 17.6646C11.3029 17.6466 11.2629 17.6368 11.2221 17.6358H9.39255C9.15532 17.6358 9.02592 17.9197 9.18048 18.1066L11.3802 20.7988L9.12656 23.5593C8.96841 23.7462 9.09781 24.0302 9.33504 24.0302H11.161C11.2437 24.0302 11.3227 23.9942 11.373 23.9259L12.6491 22.3624L13.9251 23.9259C13.979 23.9906 14.058 24.0302 14.1371 24.0302H15.9631C16.2003 24.0302 16.3297 23.7462 16.1751 23.5593L13.9286 20.7988ZM31.7747 0.5625H5.32012C4.68392 0.5625 4.16992 1.0765 4.16992 1.7127V28.1673C4.16992 28.8035 4.68392 29.3175 5.32012 29.3175H31.7747C32.4109 29.3175 32.9249 28.8035 32.9249 28.1673V1.7127C32.9249 1.0765 32.4109 0.5625 31.7747 0.5625ZM30.4807 26.8733H6.6141V3.00668H30.4807V26.8733Z" fill="white"/>
</svg>
