<svg width="49" height="42" viewBox="0 0 49 42" fill="none" xmlns="http://www.w3.org/2000/svg">
<path d="M20.9751 21.3153C21.8069 22.3755 22.5641 23.4923 23.241 24.6575C23.819 25.7533 24.0599 26.4964 24.4823 27.8168C24.7413 28.5463 24.9754 28.7641 25.4788 28.7641C26.0272 28.7641 26.2761 28.3937 26.4683 27.8208C26.8676 26.5738 27.1809 25.6222 27.6751 24.723C28.6449 22.9869 29.85 21.4443 31.0342 19.9616C31.3547 19.542 33.4273 17.0974 34.3604 15.1684C34.3604 15.1684 35.5072 13.0495 35.5072 10.0903C35.5072 7.32217 34.3762 5.40234 34.3762 5.40234L31.1201 6.27436L29.1426 11.4825L28.6534 12.2007L28.5556 12.3308L28.4255 12.4937L28.1971 12.7538L27.8707 13.0801L26.1098 14.5147L21.7074 17.0566L20.9751 21.3153Z" fill="#34A853"/>
<path d="M16.4302 14.817C17.5046 17.2712 19.5766 19.4286 20.9784 21.3219L28.4243 12.5019C28.4243 12.5019 27.3753 13.8738 25.4725 13.8738C23.3529 13.8738 21.6406 12.1812 21.6406 10.0471C21.6406 8.58354 22.5211 7.57812 22.5211 7.57812L17.4667 8.93247L16.4302 14.817Z" fill="#FBBC04"/>
<path d="M28.5079 0.464844C30.9808 1.26217 33.0975 2.93605 34.3777 5.40436L28.427 12.4957C28.427 12.4957 29.3075 11.4721 29.3075 10.0177C29.3075 7.83379 27.4686 6.20231 25.4819 6.20231C23.6033 6.20231 22.5244 7.57193 22.5244 7.57193V3.10448L28.5079 0.464844Z" fill="#4285F4"/>
<path d="M17.7954 3.59471C19.2724 1.82756 21.8714 0.0078125 25.4544 0.0078125C27.1928 0.0078125 28.5025 0.464198 28.5025 0.464198L22.5195 7.57239H18.2806L17.7954 3.59471Z" fill="#1A73E8"/>
<path d="M16.4314 14.8115C16.4314 14.8115 15.4429 12.8758 15.4429 10.0715C15.4429 7.42103 16.4732 5.10422 17.7953 3.59375L22.5228 7.57206L16.4314 14.8115Z" fill="#EA4335"/>
<path d="M3.98574 39.699C3.59424 39.699 3.22839 39.6234 2.88819 39.4723C2.55069 39.3184 2.25504 39.1064 2.00124 38.8364C1.75014 38.5637 1.55304 38.2505 1.40994 37.8968C1.26684 37.5404 1.19529 37.1597 1.19529 36.7547C1.19529 36.3362 1.26954 35.9488 1.41804 35.5924C1.56924 35.236 1.77444 34.9255 2.03364 34.6609C2.29554 34.3963 2.59389 34.191 2.92869 34.0452C3.26619 33.8968 3.62259 33.8225 3.99789 33.8225C4.42449 33.8225 4.83084 33.9224 5.21694 34.1222C5.60304 34.322 5.93514 34.6109 6.21324 34.9889L5.60574 35.317C5.39784 35.0524 5.15079 34.8499 4.86459 34.7094C4.58109 34.5691 4.28949 34.4989 3.98979 34.4989C3.70359 34.4989 3.43224 34.5569 3.17574 34.673C2.92194 34.7891 2.69649 34.9511 2.49939 35.159C2.30499 35.3669 2.15244 35.6072 2.04174 35.8799C1.93104 36.1526 1.87569 36.4483 1.87569 36.7669C1.87569 37.0774 1.93104 37.369 2.04174 37.6417C2.15244 37.9144 2.30364 38.1547 2.49534 38.3626C2.68974 38.5678 2.91519 38.7284 3.17169 38.8445C3.42819 38.9606 3.70224 39.0187 3.99384 39.0187C4.22604 39.0187 4.44609 38.9795 4.65399 38.9012C4.86459 38.8229 5.05764 38.7122 5.23314 38.5691C5.41134 38.426 5.56254 38.2573 5.68674 38.0629C5.81364 37.8685 5.90949 37.6552 5.97429 37.423H4.57704V36.8154H6.76809C6.76539 37.2124 6.68979 37.585 6.54129 37.9333C6.39549 38.2816 6.19434 38.588 5.93784 38.8526C5.68404 39.1172 5.38974 39.3251 5.05494 39.4763C4.72284 39.6248 4.36644 39.699 3.98574 39.699ZM9.28548 39.699C8.91288 39.699 8.57268 39.6032 8.26488 39.4115C7.95978 39.2198 7.71543 38.9633 7.53183 38.642C7.35093 38.318 7.26048 37.9603 7.26048 37.5688C7.26048 37.2718 7.31313 36.995 7.41843 36.7385C7.52373 36.4793 7.66818 36.2525 7.85178 36.0581C8.03808 35.861 8.25408 35.7071 8.49978 35.5964C8.74548 35.4857 9.00738 35.4304 9.28548 35.4304C9.65808 35.4304 9.99693 35.5262 10.302 35.7179C10.6098 35.9096 10.8542 36.1675 11.0351 36.4915C11.2187 36.8155 11.3105 37.1746 11.3105 37.5688C11.3105 37.8631 11.2578 38.1385 11.1525 38.395C11.0472 38.6515 10.9014 38.8783 10.7151 39.0754C10.5315 39.2698 10.3169 39.4223 10.0712 39.533C9.82818 39.6437 9.56628 39.699 9.28548 39.699ZM9.28548 39.0187C9.53928 39.0187 9.76743 38.9525 9.96993 38.8202C10.1751 38.6852 10.3358 38.5084 10.4519 38.2896C10.5707 38.0683 10.6301 37.828 10.6301 37.5688C10.6301 37.3042 10.5693 37.0612 10.4478 36.8398C10.329 36.6184 10.1684 36.4415 9.96588 36.3092C9.76338 36.1769 9.53658 36.1108 9.28548 36.1108C9.03168 36.1108 8.80353 36.1783 8.60103 36.3132C8.39853 36.4456 8.23788 36.6224 8.11908 36.8438C8.00028 37.0652 7.94088 37.3069 7.94088 37.5688C7.94088 37.8388 8.00163 38.0845 8.12313 38.3059C8.24463 38.5246 8.40798 38.6987 8.61318 38.8283C8.81838 38.9552 9.04248 39.0187 9.28548 39.0187ZM13.7389 39.699C13.3663 39.699 13.0261 39.6032 12.7183 39.4115C12.4132 39.2198 12.1688 38.9633 11.9852 38.642C11.8043 38.318 11.7139 37.9603 11.7139 37.5688C11.7139 37.2718 11.7665 36.995 11.8718 36.7385C11.9771 36.4793 12.1216 36.2525 12.3052 36.0581C12.4915 35.861 12.7075 35.7071 12.9532 35.5964C13.1989 35.4857 13.4608 35.4304 13.7389 35.4304C14.1115 35.4304 14.4503 35.5262 14.7554 35.7179C15.0632 35.9096 15.3076 36.1675 15.4885 36.4915C15.6721 36.8155 15.7639 37.1746 15.7639 37.5688C15.7639 37.8631 15.7112 38.1385 15.6059 38.395C15.5006 38.6515 15.3548 38.8783 15.1685 39.0754C14.9849 39.2698 14.7703 39.4223 14.5246 39.533C14.2816 39.6437 14.0197 39.699 13.7389 39.699ZM13.7389 39.0187C13.9927 39.0187 14.2208 38.9525 14.4233 38.8202C14.6285 38.6852 14.7892 38.5084 14.9053 38.2896C15.0241 38.0683 15.0835 37.828 15.0835 37.5688C15.0835 37.3042 15.0227 37.0612 14.9012 36.8398C14.7824 36.6184 14.6218 36.4415 14.4193 36.3092C14.2168 36.1769 13.99 36.1108 13.7389 36.1108C13.4851 36.1108 13.2569 36.1783 13.0544 36.3132C12.8519 36.4456 12.6913 36.6224 12.5725 36.8438C12.4537 37.0652 12.3943 37.3069 12.3943 37.5688C12.3943 37.8388 12.455 38.0845 12.5765 38.3059C12.698 38.5246 12.8614 38.6987 13.0666 38.8283C13.2718 38.9552 13.4959 39.0187 13.7389 39.0187ZM19.5734 35.5438H20.2538V39.7233C20.2538 39.9907 20.1957 40.239 20.0796 40.4685C19.9662 40.7007 19.8123 40.9019 19.6179 41.072C19.4235 41.2448 19.2021 41.3784 18.9537 41.4729C18.7053 41.5701 18.4461 41.6187 18.1761 41.6187C17.8953 41.6187 17.624 41.5553 17.3621 41.4284C17.1002 41.3042 16.8707 41.1368 16.6736 40.9262C16.4792 40.7183 16.3388 40.4847 16.2524 40.2255L16.8761 39.942C16.9274 40.1283 17.0192 40.2957 17.1515 40.4442C17.2865 40.5954 17.4431 40.7142 17.6213 40.8006C17.8022 40.8898 17.9871 40.9343 18.1761 40.9343C18.3543 40.9343 18.5258 40.9033 18.6905 40.8412C18.8579 40.7791 19.0077 40.6927 19.14 40.582C19.275 40.4739 19.3803 40.3457 19.4559 40.1972C19.5342 40.0514 19.5734 39.8934 19.5734 39.7233V38.9174C19.4357 39.1496 19.2534 39.3386 19.0266 39.4844C18.8025 39.6275 18.5406 39.699 18.2409 39.699C17.9547 39.699 17.6861 39.6437 17.435 39.533C17.1839 39.4223 16.9638 39.2698 16.7748 39.0754C16.5858 38.8783 16.4373 38.6515 16.3293 38.395C16.2213 38.1385 16.1673 37.8631 16.1673 37.5688C16.1673 37.2745 16.2213 36.9991 16.3293 36.7425C16.4373 36.4834 16.5858 36.2566 16.7748 36.0622C16.9638 35.8651 17.1839 35.7112 17.435 35.6005C17.6861 35.4898 17.9547 35.4344 18.2409 35.4344C18.5406 35.4344 18.8025 35.506 19.0266 35.6491C19.2534 35.7922 19.4357 35.9812 19.5734 36.2161V35.5438ZM18.245 39.0389C18.5069 39.0389 18.7337 38.9714 18.9254 38.8364C19.1198 38.7014 19.2696 38.5218 19.3749 38.2977C19.4802 38.0737 19.5329 37.8307 19.5329 37.5688C19.5329 37.2988 19.4789 37.0531 19.3709 36.8317C19.2656 36.6076 19.1157 36.4294 18.9213 36.2971C18.7296 36.1621 18.5042 36.0946 18.245 36.0946C17.9912 36.0946 17.759 36.1607 17.5484 36.293C17.3378 36.4253 17.1704 36.6035 17.0462 36.8276C16.9247 37.049 16.8639 37.2961 16.8639 37.5688C16.8639 37.8415 16.926 38.0899 17.0502 38.314C17.1771 38.5354 17.3445 38.7122 17.5524 38.8445C17.763 38.9741 17.9939 39.0389 18.245 39.0389ZM21.2276 39.5938V33.5187H21.908V39.5938H21.2276ZM24.6233 39.699C24.2507 39.699 23.9105 39.6032 23.6027 39.4115C23.2976 39.2198 23.0532 38.9633 22.8696 38.642C22.6887 38.318 22.5983 37.9603 22.5983 37.5688C22.5983 37.2718 22.6509 36.995 22.7562 36.7385C22.8615 36.4793 23.006 36.2525 23.1896 36.0581C23.3759 35.861 23.5919 35.7071 23.8376 35.5964C24.0833 35.4857 24.3452 35.4304 24.6233 35.4304C24.9284 35.4304 25.2078 35.4925 25.4616 35.6167C25.7181 35.7382 25.9368 35.9083 26.1177 36.1269C26.3013 36.3457 26.4377 36.5995 26.5268 36.8884C26.6186 37.1772 26.6523 37.4864 26.628 37.8158H23.3232C23.3556 38.0453 23.4312 38.2505 23.55 38.4314C23.6688 38.6096 23.82 38.7514 24.0036 38.8567C24.1899 38.962 24.3965 39.016 24.6233 39.0187C24.8663 39.0187 25.0863 38.9566 25.2834 38.8324C25.4805 38.7055 25.6398 38.5327 25.7613 38.314L26.4539 38.4759C26.2919 38.8351 26.0475 39.1294 25.7208 39.3589C25.3941 39.5856 25.0283 39.699 24.6233 39.699ZM23.303 37.2812H25.9436C25.922 37.0544 25.8491 36.8479 25.7249 36.6616C25.6007 36.4726 25.4427 36.3214 25.251 36.208C25.0593 36.0946 24.8501 36.0379 24.6233 36.0379C24.3965 36.0379 24.1886 36.0932 23.9996 36.2039C23.8106 36.3146 23.654 36.4645 23.5298 36.6535C23.4083 36.8398 23.3327 37.049 23.303 37.2812ZM29.3118 39.5938L30.4093 33.9238H30.9318L32.4627 37.9495L33.9895 33.9238H34.512L35.6136 39.5938H34.921L34.1232 35.479L32.6854 39.286H32.2359L30.7981 35.479L30.0043 39.5938H29.3118ZM39.4894 35.5438H40.1698V39.5938H39.4894L39.461 38.9093C39.3341 39.1442 39.1586 39.3346 38.9345 39.4804C38.7131 39.6261 38.4485 39.699 38.1407 39.699C37.8437 39.699 37.5656 39.6437 37.3064 39.533C37.0472 39.4196 36.8177 39.2643 36.6179 39.0672C36.4208 38.8675 36.2669 38.638 36.1562 38.3788C36.0455 38.1196 35.9902 37.8401 35.9902 37.5404C35.9902 37.2515 36.0442 36.9788 36.1522 36.7223C36.2602 36.4658 36.41 36.2417 36.6017 36.05C36.7961 35.8556 37.0202 35.7044 37.274 35.5964C37.5278 35.4857 37.8005 35.4304 38.0921 35.4304C38.4107 35.4304 38.6902 35.506 38.9305 35.6572C39.1708 35.8057 39.3652 35.9987 39.5137 36.2363L39.4894 35.5438ZM38.1286 39.0389C38.3959 39.0389 38.6267 38.9741 38.8211 38.8445C39.0182 38.7122 39.1694 38.534 39.2747 38.3099C39.3827 38.0858 39.4367 37.8388 39.4367 37.5688C39.4367 37.2934 39.3827 37.045 39.2747 36.8236C39.1667 36.5995 39.0142 36.4226 38.8171 36.293C38.6227 36.1607 38.3932 36.0946 38.1286 36.0946C37.8613 36.0946 37.6183 36.1607 37.3996 36.293C37.1809 36.4253 37.0067 36.6035 36.8771 36.8276C36.7502 37.049 36.6868 37.2961 36.6868 37.5688C36.6868 37.8415 36.7529 38.0899 36.8852 38.314C37.0175 38.5354 37.193 38.7122 37.4117 38.8445C37.6304 38.9741 37.8694 39.0389 38.1286 39.0389ZM41.6597 41.6187H40.9793V35.5438H41.6597V36.2363C41.7974 35.9987 41.981 35.807 42.2105 35.6612C42.44 35.5127 42.7127 35.4385 43.0286 35.4385C43.3229 35.4385 43.5983 35.4938 43.8548 35.6045C44.114 35.7152 44.3408 35.8691 44.5352 36.0662C44.7296 36.2606 44.8821 36.4861 44.9928 36.7425C45.1035 36.9991 45.1589 37.2745 45.1589 37.5688C45.1589 37.8631 45.1035 38.1398 44.9928 38.399C44.8821 38.6582 44.7296 38.8864 44.5352 39.0835C44.3408 39.2779 44.114 39.4304 43.8548 39.5411C43.5983 39.6518 43.3229 39.7071 43.0286 39.7071C42.7127 39.7071 42.44 39.6342 42.2105 39.4885C41.981 39.34 41.7974 39.1469 41.6597 38.9093V41.6187ZM43.0205 36.0986C42.7586 36.0986 42.5291 36.1648 42.332 36.2971C42.1349 36.4294 41.9823 36.6062 41.8743 36.8276C41.769 37.049 41.7164 37.2961 41.7164 37.5688C41.7164 37.8388 41.769 38.0858 41.8743 38.3099C41.9823 38.534 42.1335 38.7122 42.3279 38.8445C42.525 38.9768 42.7559 39.043 43.0205 39.043C43.2824 39.043 43.5227 38.9782 43.7414 38.8485C43.9601 38.7163 44.1356 38.5394 44.2679 38.318C44.4002 38.0939 44.4663 37.8442 44.4663 37.5688C44.4663 37.2988 44.4015 37.0531 44.2719 36.8317C44.1423 36.6076 43.9682 36.4294 43.7495 36.2971C43.5308 36.1648 43.2878 36.0986 43.0205 36.0986ZM47.0872 39.6707C46.8685 39.6626 46.6552 39.6221 46.4473 39.5492C46.2421 39.4736 46.0612 39.3724 45.9046 39.2455C45.7507 39.1159 45.6386 38.9674 45.5684 38.8L46.1516 38.5489C46.1921 38.6407 46.265 38.7271 46.3703 38.8081C46.4756 38.8891 46.5971 38.9539 46.7348 39.0024C46.8725 39.0511 47.0116 39.0754 47.152 39.0754C47.3005 39.0754 47.4395 39.0524 47.5691 39.0065C47.6987 38.9606 47.804 38.8931 47.885 38.804C47.9687 38.7122 48.0106 38.6028 48.0106 38.4759C48.0106 38.341 47.9647 38.2357 47.8729 38.1601C47.7838 38.0818 47.6704 38.021 47.5327 37.9778C47.3977 37.9319 47.26 37.8887 47.1196 37.8482C46.8415 37.778 46.5931 37.6943 46.3744 37.5971C46.1557 37.4972 45.9829 37.3717 45.856 37.2205C45.7318 37.0666 45.6697 36.8708 45.6697 36.6332C45.6697 36.3821 45.7385 36.1648 45.8762 35.9812C46.0166 35.7976 46.2002 35.6558 46.427 35.5559C46.6538 35.456 46.8968 35.4061 47.156 35.4061C47.4827 35.4061 47.7811 35.4763 48.0511 35.6167C48.3211 35.7571 48.5222 35.9474 48.6545 36.1877L48.1078 36.5077C48.0619 36.4105 47.9917 36.3254 47.8972 36.2525C47.8027 36.1769 47.6947 36.1175 47.5732 36.0743C47.4517 36.0311 47.3275 36.0082 47.2006 36.0055C47.044 36.0001 46.8968 36.0203 46.7591 36.0662C46.6241 36.1121 46.5148 36.1823 46.4311 36.2768C46.3501 36.3686 46.3096 36.4834 46.3096 36.6211C46.3096 36.7561 46.3528 36.8587 46.4392 36.9288C46.5283 36.9991 46.643 37.0558 46.7834 37.0989C46.9265 37.1395 47.0818 37.1867 47.2492 37.2407C47.4949 37.319 47.7244 37.4095 47.9377 37.5121C48.151 37.6147 48.3224 37.7429 48.452 37.8968C48.5843 38.0507 48.6491 38.2411 48.6464 38.4678C48.6464 38.7163 48.5722 38.9336 48.4237 39.1199C48.2752 39.3035 48.0821 39.4439 47.8445 39.5411C47.6096 39.6383 47.3572 39.6815 47.0872 39.6707Z" fill="white"/>
</svg>
