<svg width="36" height="36" viewBox="0 0 36 36" fill="none" xmlns="http://www.w3.org/2000/svg">
<circle cx="18.1572" cy="17.75" r="17.75" fill="white"/>
<path d="M18.1572 0C8.35923 0 0.407227 7.952 0.407227 17.75C0.407227 27.548 8.35923 35.5 18.1572 35.5C27.9552 35.5 35.9072 27.548 35.9072 17.75C35.9072 7.952 27.9552 0 18.1572 0ZM18.1572 28.258C12.353 28.258 7.64923 23.5542 7.64923 17.75C7.64923 11.9457 12.353 7.242 18.1572 7.242C23.9615 7.242 28.6652 11.9457 28.6652 17.75C28.6652 23.5542 23.9615 28.258 18.1572 28.258ZM18.1572 8.53775C13.0807 8.53775 8.94498 12.6735 8.94498 17.75C8.94498 22.8265 13.0807 26.9622 18.1572 26.9622C23.2337 26.9622 27.3695 22.8265 27.3695 17.75C27.3695 12.6735 23.2337 8.53775 18.1572 8.53775ZM14.7315 22.9862V12.5138L23.8017 17.75L14.7315 22.9862Z" fill="#FF0000"/>
</svg>
