<svg width="30" height="42" viewBox="0 0 30 42" fill="none" xmlns="http://www.w3.org/2000/svg">
<path d="M28.8338 11.5695H27.6756V11.5098H14.7359V17.2608H22.8613C21.6759 20.6086 18.4906 23.0118 14.7359 23.0118C9.97191 23.0118 6.1094 19.1493 6.1094 14.3853C6.1094 9.62133 9.97191 5.75881 14.7359 5.75881C16.9349 5.75881 18.9356 6.58839 20.4589 7.94347L24.5255 3.8768C21.9577 1.48366 18.5229 0.0078125 14.7359 0.0078125C6.79592 0.0078125 0.358398 6.44534 0.358398 14.3853C0.358398 22.3253 6.79592 28.7628 14.7359 28.7628C22.6759 28.7628 29.1134 22.3253 29.1134 14.3853C29.1134 13.4213 29.0142 12.4803 28.8338 11.5695Z" fill="#FFC107"/>
<path d="M2.01611 7.69331L6.73984 11.1576C8.018 7.99308 11.1135 5.75881 14.7359 5.75881C16.9349 5.75881 18.9356 6.58839 20.4589 7.94347L24.5255 3.8768C21.9577 1.48366 18.5229 0.0078125 14.7359 0.0078125C9.21349 0.0078125 4.42434 3.12557 2.01611 7.69331Z" fill="#FF3D00"/>
<path d="M14.7346 28.7561C18.4483 28.7561 21.8227 27.3349 24.374 25.0237L19.9242 21.2583C18.4322 22.3929 16.6091 23.0066 14.7346 23.0051C10.995 23.0051 7.81977 20.6206 6.62356 17.293L1.93506 20.9053C4.31453 25.5615 9.14681 28.7561 14.7346 28.7561Z" fill="#4CAF50"/>
<path d="M28.8337 11.5636H27.6756V11.5039H14.7358V17.2549H22.8613C22.2942 18.8482 21.2728 20.2405 19.9232 21.2598L19.9254 21.2583L24.3752 25.0238C24.0604 25.3099 29.1133 21.5682 29.1133 14.3794C29.1133 13.4154 29.0141 12.4744 28.8337 11.5636Z" fill="#1976D2"/>
<path d="M5.1834 39.699C4.7919 39.699 4.42605 39.6234 4.08585 39.4723C3.74835 39.3184 3.4527 39.1064 3.1989 38.8364C2.9478 38.5637 2.7507 38.2505 2.6076 37.8968C2.4645 37.5404 2.39295 37.1597 2.39295 36.7547C2.39295 36.3362 2.4672 35.9488 2.6157 35.5924C2.7669 35.236 2.9721 34.9255 3.2313 34.6609C3.4932 34.3963 3.79155 34.191 4.12635 34.0452C4.46385 33.8968 4.82025 33.8225 5.19555 33.8225C5.62215 33.8225 6.0285 33.9224 6.4146 34.1222C6.8007 34.322 7.1328 34.6109 7.4109 34.9889L6.8034 35.317C6.5955 35.0524 6.34845 34.8499 6.06225 34.7094C5.77875 34.5691 5.48715 34.4989 5.18745 34.4989C4.90125 34.4989 4.6299 34.5569 4.3734 34.673C4.1196 34.7891 3.89415 34.9511 3.69705 35.159C3.50265 35.3669 3.3501 35.6072 3.2394 35.8799C3.1287 36.1526 3.07335 36.4483 3.07335 36.7669C3.07335 37.0774 3.1287 37.369 3.2394 37.6417C3.3501 37.9144 3.5013 38.1547 3.693 38.3626C3.8874 38.5678 4.11285 38.7284 4.36935 38.8445C4.62585 38.9606 4.8999 39.0187 5.1915 39.0187C5.4237 39.0187 5.64375 38.9795 5.85165 38.9012C6.06225 38.8229 6.2553 38.7122 6.4308 38.5691C6.609 38.426 6.7602 38.2573 6.8844 38.0629C7.0113 37.8685 7.10715 37.6552 7.17195 37.423H5.7747V36.8154H7.96575C7.96305 37.2124 7.88745 37.585 7.73895 37.9333C7.59315 38.2816 7.392 38.588 7.1355 38.8526C6.8817 39.1172 6.5874 39.3251 6.2526 39.4763C5.9205 39.6248 5.5641 39.699 5.1834 39.699ZM10.4831 39.699C10.1105 39.699 9.77034 39.6032 9.46254 39.4115C9.15744 39.2198 8.91309 38.9633 8.72949 38.642C8.54859 38.318 8.45814 37.9603 8.45814 37.5688C8.45814 37.2718 8.51079 36.995 8.61609 36.7385C8.72139 36.4793 8.86584 36.2525 9.04944 36.0581C9.23574 35.861 9.45174 35.7071 9.69744 35.5964C9.94314 35.4857 10.205 35.4304 10.4831 35.4304C10.8557 35.4304 11.1946 35.5262 11.4997 35.7179C11.8075 35.9096 12.0518 36.1675 12.2327 36.4915C12.4163 36.8155 12.5081 37.1746 12.5081 37.5688C12.5081 37.8631 12.4555 38.1385 12.3502 38.395C12.2449 38.6515 12.0991 38.8783 11.9128 39.0754C11.7292 39.2698 11.5145 39.4223 11.2688 39.533C11.0258 39.6437 10.7639 39.699 10.4831 39.699ZM10.4831 39.0187C10.7369 39.0187 10.9651 38.9525 11.1676 38.8202C11.3728 38.6852 11.5334 38.5084 11.6495 38.2896C11.7683 38.0683 11.8277 37.828 11.8277 37.5688C11.8277 37.3042 11.767 37.0612 11.6455 36.8398C11.5267 36.6184 11.366 36.4415 11.1635 36.3092C10.961 36.1769 10.7342 36.1108 10.4831 36.1108C10.2293 36.1108 10.0012 36.1783 9.79869 36.3132C9.59619 36.4456 9.43554 36.6224 9.31674 36.8438C9.19794 37.0652 9.13854 37.3069 9.13854 37.5688C9.13854 37.8388 9.19929 38.0845 9.32079 38.3059C9.44229 38.5246 9.60564 38.6987 9.81084 38.8283C10.016 38.9552 10.2401 39.0187 10.4831 39.0187ZM14.9366 39.699C14.564 39.699 14.2238 39.6032 13.916 39.4115C13.6109 39.2198 13.3665 38.9633 13.1829 38.642C13.002 38.318 12.9116 37.9603 12.9116 37.5688C12.9116 37.2718 12.9642 36.995 13.0695 36.7385C13.1748 36.4793 13.3193 36.2525 13.5029 36.0581C13.6892 35.861 13.9052 35.7071 14.1509 35.5964C14.3966 35.4857 14.6585 35.4304 14.9366 35.4304C15.3092 35.4304 15.648 35.5262 15.9531 35.7179C16.2609 35.9096 16.5053 36.1675 16.6862 36.4915C16.8698 36.8155 16.9616 37.1746 16.9616 37.5688C16.9616 37.8631 16.9089 38.1385 16.8036 38.395C16.6983 38.6515 16.5525 38.8783 16.3662 39.0754C16.1826 39.2698 15.968 39.4223 15.7223 39.533C15.4793 39.6437 15.2174 39.699 14.9366 39.699ZM14.9366 39.0187C15.1904 39.0187 15.4185 38.9525 15.621 38.8202C15.8262 38.6852 15.9869 38.5084 16.103 38.2896C16.2218 38.0683 16.2812 37.828 16.2812 37.5688C16.2812 37.3042 16.2204 37.0612 16.0989 36.8398C15.9801 36.6184 15.8195 36.4415 15.617 36.3092C15.4145 36.1769 15.1877 36.1108 14.9366 36.1108C14.6828 36.1108 14.4546 36.1783 14.2521 36.3132C14.0496 36.4456 13.889 36.6224 13.7702 36.8438C13.6514 37.0652 13.592 37.3069 13.592 37.5688C13.592 37.8388 13.6527 38.0845 13.7742 38.3059C13.8957 38.5246 14.0591 38.6987 14.2643 38.8283C14.4695 38.9552 14.6936 39.0187 14.9366 39.0187ZM20.771 35.5438H21.4514V39.7233C21.4514 39.9907 21.3934 40.239 21.2773 40.4685C21.1639 40.7007 21.01 40.9019 20.8156 41.072C20.6212 41.2448 20.3998 41.3784 20.1514 41.4729C19.903 41.5701 19.6438 41.6187 19.3738 41.6187C19.093 41.6187 18.8216 41.5553 18.5597 41.4284C18.2978 41.3042 18.0683 41.1368 17.8712 40.9262C17.6768 40.7183 17.5364 40.4847 17.45 40.2255L18.0737 39.942C18.125 40.1283 18.2168 40.2957 18.3491 40.4442C18.4841 40.5954 18.6407 40.7142 18.8189 40.8006C18.9998 40.8898 19.1848 40.9343 19.3738 40.9343C19.552 40.9343 19.7234 40.9033 19.8881 40.8412C20.0555 40.7791 20.2054 40.6927 20.3377 40.582C20.4727 40.4739 20.578 40.3457 20.6536 40.1972C20.7319 40.0514 20.771 39.8934 20.771 39.7233V38.9174C20.6333 39.1496 20.4511 39.3386 20.2243 39.4844C20.0002 39.6275 19.7383 39.699 19.4386 39.699C19.1524 39.699 18.8837 39.6437 18.6326 39.533C18.3815 39.4223 18.1615 39.2698 17.9725 39.0754C17.7835 38.8783 17.635 38.6515 17.527 38.395C17.419 38.1385 17.365 37.8631 17.365 37.5688C17.365 37.2745 17.419 36.9991 17.527 36.7425C17.635 36.4834 17.7835 36.2566 17.9725 36.0622C18.1615 35.8651 18.3815 35.7112 18.6326 35.6005C18.8837 35.4898 19.1524 35.4344 19.4386 35.4344C19.7383 35.4344 20.0002 35.506 20.2243 35.6491C20.4511 35.7922 20.6333 35.9812 20.771 36.2161V35.5438ZM19.4426 39.0389C19.7045 39.0389 19.9313 38.9714 20.123 38.8364C20.3174 38.7014 20.4673 38.5218 20.5726 38.2977C20.6779 38.0737 20.7305 37.8307 20.7305 37.5688C20.7305 37.2988 20.6765 37.0531 20.5685 36.8317C20.4632 36.6076 20.3134 36.4294 20.119 36.2971C19.9273 36.1621 19.7018 36.0946 19.4426 36.0946C19.1888 36.0946 18.9566 36.1607 18.746 36.293C18.5354 36.4253 18.368 36.6035 18.2438 36.8276C18.1223 37.049 18.0616 37.2961 18.0616 37.5688C18.0616 37.8415 18.1237 38.0899 18.2479 38.314C18.3748 38.5354 18.5422 38.7122 18.7501 38.8445C18.9607 38.9741 19.1915 39.0389 19.4426 39.0389ZM22.4253 39.5938V33.5187H23.1057V39.5938H22.4253ZM25.8209 39.699C25.4483 39.699 25.1081 39.6032 24.8003 39.4115C24.4952 39.2198 24.2509 38.9633 24.0673 38.642C23.8864 38.318 23.7959 37.9603 23.7959 37.5688C23.7959 37.2718 23.8486 36.995 23.9539 36.7385C24.0592 36.4793 24.2036 36.2525 24.3872 36.0581C24.5735 35.861 24.7895 35.7071 25.0352 35.5964C25.2809 35.4857 25.5428 35.4304 25.8209 35.4304C26.126 35.4304 26.4055 35.4925 26.6593 35.6167C26.9158 35.7382 27.1345 35.9083 27.3154 36.1269C27.499 36.3457 27.6353 36.5995 27.7244 36.8884C27.8162 37.1772 27.85 37.4864 27.8257 37.8158H24.5209C24.5533 38.0453 24.6289 38.2505 24.7477 38.4314C24.8665 38.6096 25.0177 38.7514 25.2013 38.8567C25.3876 38.962 25.5941 39.016 25.8209 39.0187C26.0639 39.0187 26.284 38.9566 26.4811 38.8324C26.6782 38.7055 26.8375 38.5327 26.959 38.314L27.6515 38.4759C27.4895 38.8351 27.2452 39.1294 26.9185 39.3589C26.5918 39.5856 26.2259 39.699 25.8209 39.699ZM24.5006 37.2812H27.1412C27.1196 37.0544 27.0467 36.8479 26.9225 36.6616C26.7983 36.4726 26.6404 36.3214 26.4487 36.208C26.257 36.0946 26.0477 36.0379 25.8209 36.0379C25.5941 36.0379 25.3862 36.0932 25.1972 36.2039C25.0082 36.3146 24.8516 36.4645 24.7274 36.6535C24.6059 36.8398 24.5303 37.049 24.5006 37.2812Z" fill="white"/>
</svg>
