<svg width="26" height="36" viewBox="0 0 26 36" fill="none" xmlns="http://www.w3.org/2000/svg">
<path d="M7.10547 26.3058C8.13244 27.6147 9.06718 28.9934 9.90293 30.4319C10.6164 31.7848 10.9139 32.7022 11.4353 34.3323C11.7551 35.233 12.0441 35.5018 12.6655 35.5018C13.3427 35.5018 13.6499 35.0445 13.8873 34.3373C14.3802 32.7978 14.7669 31.6229 15.3771 30.5128C16.5744 28.3695 18.0622 26.465 19.5241 24.6346C19.9198 24.1165 22.4786 21.0984 23.6305 18.7171C23.6305 18.7171 25.0463 16.1011 25.0463 12.4477C25.0463 9.03032 23.65 6.66016 23.65 6.66016L19.6301 7.73672L17.1888 14.1666L16.5849 15.0532L16.4641 15.2138L16.3035 15.4149L16.0215 15.736L15.6186 16.1389L13.4447 17.91L8.0096 21.0481L7.10547 26.3058Z" fill="#34A853"/>
<path d="M1.49414 18.2807C2.82064 21.3106 5.37861 23.974 7.10928 26.3114L16.3017 15.4225C16.3017 15.4225 15.0066 17.1162 12.6575 17.1162C10.0407 17.1162 7.92681 15.0266 7.92681 12.3918C7.92681 10.585 9.01382 9.34375 9.01382 9.34375L2.7738 11.0158L1.49414 18.2807Z" fill="#FBBC04"/>
<path d="M16.4046 0.5625C19.4576 1.54685 22.0707 3.61337 23.6513 6.66067L16.3047 15.4154C16.3047 15.4154 17.3918 14.1517 17.3918 12.3561C17.3918 9.65996 15.1215 7.64579 12.6689 7.64579C10.3496 7.64579 9.01758 9.33669 9.01758 9.33669V3.82131L16.4046 0.5625Z" fill="#4285F4"/>
<path d="M3.17969 4.42827C5.00315 2.2466 8.21174 0 12.6353 0C14.7814 0 16.3983 0.563439 16.3983 0.563439L9.01195 9.33898H3.77864L3.17969 4.42827Z" fill="#1A73E8"/>
<path d="M1.49574 18.2749C1.49574 18.2749 0.275391 15.8851 0.275391 12.423C0.275391 9.15081 1.54741 6.29056 3.17967 4.42578L9.0161 9.33727L1.49574 18.2749Z" fill="#EA4335"/>
</svg>
