<svg width="42" height="42" viewBox="0 0 42 42" fill="none" xmlns="http://www.w3.org/2000/svg">
<path d="M40.0495 4.60213L40.0496 4.60242C40.4639 6.15819 40.6762 8.59095 40.7829 10.6637C40.8359 11.6941 40.8625 12.6253 40.8757 13.2989C40.8824 13.6356 40.8857 13.9077 40.8873 14.0954C40.8882 14.1893 40.8886 14.262 40.8888 14.3112L40.889 14.3669L40.889 14.3809L40.889 14.3843V14.3851V14.3853V14.3855V14.3863L40.889 14.3898L40.889 14.4038L40.8888 14.4595C40.8886 14.5086 40.8882 14.5813 40.8873 14.6752C40.8857 14.8629 40.8824 15.1351 40.8757 15.4718C40.8625 16.1454 40.8359 17.0766 40.7829 18.107C40.6762 20.1798 40.4639 22.6128 40.0496 24.1689L40.0495 24.1692C39.8371 24.969 39.4183 25.699 38.835 26.2861C38.252 26.8729 37.525 27.2962 36.727 27.5138C35.9736 27.7169 34.6157 27.8761 32.9685 27.997C31.3328 28.117 29.4456 28.1972 27.654 28.2508C25.8631 28.3043 24.1711 28.331 22.9265 28.3444C22.3043 28.3511 21.7942 28.3545 21.4397 28.3561C21.2624 28.357 21.1241 28.3574 21.0302 28.3576L20.9233 28.3578L20.896 28.3578L20.8892 28.3578H20.8875H20.8871C20.887 28.3578 20.887 28.3578 20.887 28.7628C20.887 28.3578 20.8869 28.3578 20.8869 28.3578H20.8865H20.8848L20.8779 28.3578L20.8507 28.3578L20.7438 28.3576C20.6498 28.3574 20.5115 28.357 20.3343 28.3561C19.9798 28.3545 19.4696 28.3511 18.8475 28.3444C17.6029 28.331 15.9108 28.3043 14.1199 28.2508C12.3284 28.1972 10.4412 28.117 8.80544 27.997C7.1583 27.8761 5.80051 27.7169 5.04711 27.5138C4.249 27.2963 3.52203 26.8729 2.93896 26.2861C2.35566 25.699 1.93684 24.969 1.72446 24.1692L1.72439 24.1689C1.31005 22.6128 1.09778 20.1798 0.991075 18.107C0.938035 17.0766 0.911499 16.1454 0.898231 15.4718C0.891598 15.1351 0.888285 14.8629 0.886631 14.6752C0.885804 14.5813 0.885391 14.5086 0.885185 14.4595L0.885006 14.4038L0.884983 14.3898L0.884981 14.3863L0.88498 14.3855L0.88498 14.3853L0.47998 14.3853L0.88498 14.3853L0.88498 14.3851L0.884981 14.3843L0.884983 14.3809L0.885006 14.3669L0.885185 14.3112C0.885391 14.262 0.885804 14.1893 0.886631 14.0954C0.888285 13.9077 0.891598 13.6356 0.898231 13.2989C0.911499 12.6253 0.938035 11.6941 0.991075 10.6637C1.09778 8.59095 1.31005 6.15819 1.72438 4.60242L1.72446 4.60213C1.93684 3.80229 2.35566 3.07228 2.93896 2.48524C3.52214 1.89832 4.24928 1.47489 5.04756 1.25736C5.80101 1.05418 7.1586 0.894921 8.80546 0.773968C10.4412 0.653831 12.3284 0.573548 14.1199 0.519963C15.9108 0.466397 17.6029 0.439604 18.8475 0.426205C19.4696 0.419507 19.9798 0.416159 20.3343 0.414485C20.5115 0.413648 20.6498 0.41323 20.7438 0.413021L20.8507 0.412838L20.8779 0.412816L20.8848 0.412813L20.8865 0.412813L20.8869 0.412812C20.8869 0.412812 20.887 0.412812 20.887 0.0078125C20.887 0.412812 20.887 0.412812 20.8871 0.412812L20.8875 0.412813L20.8892 0.412813L20.896 0.412816L20.9233 0.412838L21.0302 0.413021C21.1241 0.41323 21.2624 0.413648 21.4397 0.414485C21.7942 0.416159 22.3043 0.419507 22.9265 0.426205C24.1711 0.439604 25.8631 0.466397 27.654 0.519963C29.4456 0.573548 31.3328 0.653831 32.9685 0.773968C34.6156 0.894936 35.9733 1.05422 36.7267 1.25743C37.5249 1.47499 38.2519 1.89838 38.835 2.48524C39.4183 3.07229 39.8371 3.80229 40.0495 4.60213Z" fill="#FF0000" stroke="#FF0000" stroke-width="0.81"/>
<path d="M16.7134 20.4526L27.3806 14.3845L16.7134 8.31641V20.4526Z" fill="white"/>
<path d="M9.7296 33.9238H10.5315L8.6118 37.0301V39.5938H7.9314V37.0301L6.0117 33.9238H6.8136L8.2716 36.2849L9.7296 33.9238ZM12.3398 39.699C11.9672 39.699 11.627 39.6032 11.3192 39.4115C11.0141 39.2198 10.7698 38.9633 10.5862 38.642C10.4053 38.318 10.3148 37.9603 10.3148 37.5688C10.3148 37.2718 10.3675 36.995 10.4728 36.7385C10.5781 36.4793 10.7225 36.2525 10.9061 36.0581C11.0924 35.861 11.3084 35.7071 11.5541 35.5964C11.7998 35.4857 12.0617 35.4304 12.3398 35.4304C12.7124 35.4304 13.0513 35.5262 13.3564 35.7179C13.6642 35.9096 13.9085 36.1675 14.0894 36.4915C14.273 36.8155 14.3648 37.1746 14.3648 37.5688C14.3648 37.8631 14.3122 38.1385 14.2069 38.395C14.1016 38.6515 13.9558 38.8783 13.7695 39.0754C13.5859 39.2698 13.3712 39.4223 13.1255 39.533C12.8825 39.6437 12.6206 39.699 12.3398 39.699ZM12.3398 39.0187C12.5936 39.0187 12.8218 38.9525 13.0243 38.8202C13.2295 38.6852 13.3901 38.5084 13.5062 38.2896C13.625 38.0683 13.6844 37.828 13.6844 37.5688C13.6844 37.3042 13.6237 37.0612 13.5022 36.8398C13.3834 36.6184 13.2227 36.4415 13.0202 36.3092C12.8177 36.1769 12.5909 36.1108 12.3398 36.1108C12.086 36.1108 11.8579 36.1783 11.6554 36.3132C11.4529 36.4456 11.2922 36.6224 11.1734 36.8438C11.0546 37.0652 10.9952 37.3069 10.9952 37.5688C10.9952 37.8388 11.056 38.0845 11.1775 38.3059C11.299 38.5246 11.4623 38.6987 11.6675 38.8283C11.8727 38.9552 12.0968 39.0187 12.3398 39.0187ZM14.8176 38.0548V35.5438H15.498V37.9049C15.498 38.1101 15.548 38.2964 15.6479 38.4638C15.7478 38.6312 15.8814 38.7649 16.0488 38.8648C16.2189 38.962 16.4052 39.0106 16.6077 39.0106C16.8129 39.0106 16.9979 38.962 17.1626 38.8648C17.33 38.7649 17.4636 38.6312 17.5635 38.4638C17.6634 38.2964 17.7134 38.1101 17.7134 37.9049V35.5438H18.3938L18.3978 39.5938H17.7174L17.7134 39.0794C17.5703 39.2684 17.3894 39.4196 17.1707 39.533C16.952 39.6437 16.7157 39.699 16.4619 39.699C16.1595 39.699 15.8828 39.6261 15.6317 39.4804C15.3833 39.3319 15.1848 39.1334 15.0363 38.885C14.8905 38.6366 14.8176 38.3599 14.8176 38.0548ZM23.5005 33.9238V34.6041H21.6132V39.5938H20.9328V34.6041H19.0495V33.9238H23.5005ZM23.5979 38.0548V35.5438H24.2783V37.9049C24.2783 38.1101 24.3282 38.2964 24.4281 38.4638C24.528 38.6312 24.6617 38.7649 24.8291 38.8648C24.9992 38.962 25.1855 39.0106 25.388 39.0106C25.5932 39.0106 25.7781 38.962 25.9428 38.8648C26.1102 38.7649 26.2439 38.6312 26.3438 38.4638C26.4437 38.2964 26.4936 38.1101 26.4936 37.9049V35.5438H27.174L27.1781 39.5938H26.4977L26.4936 39.0794C26.3505 39.2684 26.1696 39.4196 25.9509 39.533C25.7322 39.6437 25.496 39.699 25.2422 39.699C24.9398 39.699 24.663 39.6261 24.4119 39.4804C24.1635 39.3319 23.9651 39.1334 23.8166 38.885C23.6708 38.6366 23.5979 38.3599 23.5979 38.0548ZM30.0886 35.4304C30.4828 35.4304 30.8405 35.5262 31.1618 35.7179C31.4858 35.9096 31.7437 36.1675 31.9354 36.4915C32.1271 36.8128 32.2229 37.1705 32.2229 37.5647C32.2229 37.859 32.1676 38.1358 32.0569 38.395C31.9462 38.6515 31.7923 38.8783 31.5952 39.0754C31.4008 39.2698 31.174 39.4223 30.9148 39.533C30.6583 39.6437 30.3829 39.699 30.0886 39.699C29.7754 39.699 29.5027 39.6261 29.2705 39.4804C29.041 39.3319 28.8574 39.1388 28.7197 38.9012V39.5938H28.0393V33.5187H28.7197V36.2282C28.8574 35.9906 29.041 35.7989 29.2705 35.6531C29.5027 35.5046 29.7754 35.4304 30.0886 35.4304ZM30.0805 39.0348C30.3478 39.0348 30.5908 38.9687 30.8095 38.8364C31.0282 38.7041 31.2023 38.5273 31.3319 38.3059C31.4615 38.0818 31.5263 37.8347 31.5263 37.5647C31.5263 37.2893 31.4602 37.0409 31.3279 36.8195C31.1956 36.5954 31.0201 36.4186 30.8014 36.289C30.5827 36.1566 30.3424 36.0905 30.0805 36.0905C29.8159 36.0905 29.585 36.1566 29.3879 36.289C29.1935 36.4213 29.0423 36.5995 28.9343 36.8236C28.829 37.0477 28.7764 37.2947 28.7764 37.5647C28.7764 37.8374 28.829 38.0858 28.9343 38.3099C29.0423 38.5313 29.1949 38.7082 29.392 38.8405C29.5891 38.9701 29.8186 39.0348 30.0805 39.0348ZM34.6544 39.699C34.2818 39.699 33.9416 39.6032 33.6338 39.4115C33.3287 39.2198 33.0843 38.9633 32.9007 38.642C32.7198 38.318 32.6294 37.9603 32.6294 37.5688C32.6294 37.2718 32.682 36.995 32.7873 36.7385C32.8926 36.4793 33.0371 36.2525 33.2207 36.0581C33.407 35.861 33.623 35.7071 33.8687 35.5964C34.1144 35.4857 34.3763 35.4304 34.6544 35.4304C34.9595 35.4304 35.2389 35.4925 35.4927 35.6167C35.7492 35.7382 35.9679 35.9083 36.1488 36.1269C36.3324 36.3457 36.4688 36.5995 36.5579 36.8884C36.6497 37.1772 36.6834 37.4864 36.6591 37.8158H33.3543C33.3867 38.0453 33.4623 38.2505 33.5811 38.4314C33.6999 38.6096 33.8511 38.7514 34.0347 38.8567C34.221 38.962 34.4276 39.016 34.6544 39.0187C34.8974 39.0187 35.1174 38.9566 35.3145 38.8324C35.5116 38.7055 35.6709 38.5327 35.7924 38.314L36.485 38.4759C36.323 38.8351 36.0786 39.1294 35.7519 39.3589C35.4252 39.5856 35.0594 39.699 34.6544 39.699ZM33.3341 37.2812H35.9747C35.9531 37.0544 35.8802 36.8479 35.756 36.6616C35.6318 36.4726 35.4738 36.3214 35.2821 36.208C35.0904 36.0946 34.8812 36.0379 34.6544 36.0379C34.4276 36.0379 34.2197 36.0932 34.0307 36.2039C33.8417 36.3146 33.6851 36.4645 33.5609 36.6535C33.4394 36.8398 33.3638 37.049 33.3341 37.2812Z" fill="white"/>
</svg>
