<svg width="49" height="43" viewBox="0 0 49 43" fill="none" xmlns="http://www.w3.org/2000/svg">
<path d="M20.7822 21.8739C21.6141 22.9341 22.3712 24.0509 23.0482 25.2161C23.6261 26.3119 23.867 27.055 24.2894 28.3754C24.5484 29.1049 24.7826 29.3227 25.2859 29.3227C25.8344 29.3227 26.0832 28.9523 26.2755 28.3794C26.6747 27.1324 26.988 26.1808 27.4822 25.2816C28.4521 23.5455 29.6572 22.0029 30.8413 20.5202C31.1618 20.1006 33.2344 17.6559 34.1675 15.727C34.1675 15.727 35.3143 13.6081 35.3143 10.6489C35.3143 7.88077 34.1833 5.96094 34.1833 5.96094L30.9272 6.83295L28.9497 12.0411L28.4605 12.7593L28.3627 12.8894L28.2326 13.0523L28.0042 13.3124L27.6779 13.6387L25.917 15.0733L21.5146 17.6152L20.7822 21.8739Z" fill="#34A853"/>
<path d="M16.2368 15.3717C17.3113 17.8259 19.3832 19.9833 20.7851 21.8766L28.2309 13.0566C28.2309 13.0566 27.1819 14.4285 25.2791 14.4285C23.1596 14.4285 21.4473 12.7359 21.4473 10.6017C21.4473 9.13822 22.3278 8.13281 22.3278 8.13281L17.2733 9.48716L16.2368 15.3717Z" fill="#FBBC04"/>
<path d="M28.315 1.01953C30.788 1.81685 32.9046 3.49074 34.1849 5.95904L28.2341 13.0504C28.2341 13.0504 29.1146 12.0268 29.1146 10.5724C29.1146 8.38848 27.2757 6.75699 25.2891 6.75699C23.4105 6.75699 22.3315 8.12662 22.3315 8.12662V3.65917L28.315 1.01953Z" fill="#4285F4"/>
<path d="M17.6025 4.14939C19.0795 2.38224 21.6785 0.5625 25.2616 0.5625C26.9999 0.5625 28.3096 1.01889 28.3096 1.01889L22.3267 8.12707H18.0877L17.6025 4.14939Z" fill="#1A73E8"/>
<path d="M16.2385 15.3662C16.2385 15.3662 15.25 13.4305 15.25 10.6262C15.25 7.97571 16.2803 5.65891 17.6025 4.14844L22.33 8.12674L16.2385 15.3662Z" fill="#EA4335"/>
<path d="M3.79287 40.2576C3.40137 40.2576 3.03552 40.182 2.69532 40.0308C2.35782 39.8769 2.06217 39.665 1.80837 39.395C1.55727 39.1223 1.36017 38.8091 1.21707 38.4554C1.07397 38.099 1.00242 37.7183 1.00242 37.3133C1.00242 36.8948 1.07667 36.5073 1.22517 36.1509C1.37637 35.7945 1.58157 35.484 1.84077 35.2194C2.10267 34.9548 2.40102 34.7496 2.73582 34.6038C3.07332 34.4553 3.42972 34.3811 3.80502 34.3811C4.23162 34.3811 4.63797 34.481 5.02407 34.6808C5.41017 34.8806 5.74227 35.1695 6.02037 35.5475L5.41287 35.8755C5.20497 35.6109 4.95792 35.4084 4.67172 35.268C4.38822 35.1276 4.09662 35.0574 3.79692 35.0574C3.51072 35.0574 3.23937 35.1155 2.98287 35.2316C2.72907 35.3477 2.50362 35.5097 2.30652 35.7176C2.11212 35.9255 1.95957 36.1658 1.84887 36.4385C1.73817 36.7112 1.68282 37.0068 1.68282 37.3254C1.68282 37.6359 1.73817 37.9275 1.84887 38.2002C1.95957 38.4729 2.11077 38.7132 2.30247 38.9211C2.49687 39.1263 2.72232 39.287 2.97882 39.4031C3.23532 39.5192 3.50937 39.5772 3.80097 39.5772C4.03317 39.5772 4.25322 39.5381 4.46112 39.4598C4.67172 39.3815 4.86477 39.2708 5.04027 39.1277C5.21847 38.9846 5.36967 38.8158 5.49387 38.6214C5.62077 38.427 5.71662 38.2137 5.78142 37.9815H4.38417V37.374H6.57522C6.57252 37.7709 6.49692 38.1435 6.34842 38.4918C6.20262 38.8401 6.00147 39.1466 5.74497 39.4112C5.49117 39.6758 5.19687 39.8837 4.86207 40.0349C4.52997 40.1834 4.17357 40.2576 3.79287 40.2576ZM9.09261 40.2576C8.72001 40.2576 8.37981 40.1618 8.07201 39.9701C7.76691 39.7784 7.52256 39.5219 7.33896 39.2006C7.15806 38.8766 7.06761 38.5188 7.06761 38.1273C7.06761 37.8303 7.12026 37.5536 7.22556 37.2971C7.33086 37.0379 7.47531 36.8111 7.65891 36.6167C7.84521 36.4196 8.06121 36.2657 8.30691 36.155C8.55261 36.0443 8.81451 35.9889 9.09261 35.9889C9.46521 35.9889 9.80406 36.0848 10.1092 36.2765C10.417 36.4682 10.6613 36.726 10.8422 37.05C11.0258 37.374 11.1176 37.7331 11.1176 38.1273C11.1176 38.4216 11.065 38.697 10.9597 38.9535C10.8544 39.21 10.7086 39.4368 10.5223 39.6339C10.3387 39.8283 10.124 39.9809 9.87831 40.0916C9.63531 40.2023 9.37341 40.2576 9.09261 40.2576ZM9.09261 39.5772C9.34641 39.5772 9.57456 39.5111 9.77706 39.3788C9.98226 39.2438 10.1429 39.0669 10.259 38.8482C10.3778 38.6268 10.4372 38.3865 10.4372 38.1273C10.4372 37.8627 10.3765 37.6197 10.255 37.3983C10.1362 37.1769 9.97551 37.0001 9.77301 36.8678C9.57051 36.7355 9.34371 36.6693 9.09261 36.6693C8.83881 36.6693 8.61066 36.7368 8.40816 36.8718C8.20566 37.0041 8.04501 37.181 7.92621 37.4024C7.80741 37.6238 7.74801 37.8654 7.74801 38.1273C7.74801 38.3973 7.80876 38.643 7.93026 38.8644C8.05176 39.0831 8.21511 39.2573 8.42031 39.3869C8.62551 39.5138 8.84961 39.5772 9.09261 39.5772ZM13.546 40.2576C13.1734 40.2576 12.8332 40.1618 12.5254 39.9701C12.2203 39.7784 11.976 39.5219 11.7924 39.2006C11.6115 38.8766 11.521 38.5188 11.521 38.1273C11.521 37.8303 11.5737 37.5536 11.679 37.2971C11.7843 37.0379 11.9287 36.8111 12.1123 36.6167C12.2986 36.4196 12.5146 36.2657 12.7603 36.155C13.006 36.0443 13.2679 35.9889 13.546 35.9889C13.9186 35.9889 14.2575 36.0848 14.5626 36.2765C14.8704 36.4682 15.1147 36.726 15.2956 37.05C15.4792 37.374 15.571 37.7331 15.571 38.1273C15.571 38.4216 15.5184 38.697 15.4131 38.9535C15.3078 39.21 15.162 39.4368 14.9757 39.6339C14.7921 39.8283 14.5774 39.9809 14.3317 40.0916C14.0887 40.2023 13.8268 40.2576 13.546 40.2576ZM13.546 39.5772C13.7998 39.5772 14.028 39.5111 14.2305 39.3788C14.4357 39.2438 14.5963 39.0669 14.7124 38.8482C14.8312 38.6268 14.8906 38.3865 14.8906 38.1273C14.8906 37.8627 14.8299 37.6197 14.7084 37.3983C14.5896 37.1769 14.4289 37.0001 14.2264 36.8678C14.0239 36.7355 13.7971 36.6693 13.546 36.6693C13.2922 36.6693 13.0641 36.7368 12.8616 36.8718C12.6591 37.0041 12.4984 37.181 12.3796 37.4024C12.2608 37.6238 12.2014 37.8654 12.2014 38.1273C12.2014 38.3973 12.2622 38.643 12.3837 38.8644C12.5052 39.0831 12.6685 39.2573 12.8737 39.3869C13.0789 39.5138 13.303 39.5772 13.546 39.5772ZM19.3805 36.1023H20.0609V40.2819C20.0609 40.5492 20.0028 40.7976 19.8867 41.0271C19.7733 41.2593 19.6194 41.4605 19.425 41.6306C19.2306 41.8034 19.0092 41.937 18.7608 42.0315C18.5124 42.1287 18.2532 42.1773 17.9832 42.1773C17.7024 42.1773 17.4311 42.1139 17.1692 41.987C16.9073 41.8628 16.6778 41.6954 16.4807 41.4848C16.2863 41.2769 16.1459 41.0433 16.0595 40.7841L16.6832 40.5006C16.7345 40.6869 16.8263 40.8543 16.9586 41.0028C17.0936 41.154 17.2502 41.2728 17.4284 41.3592C17.6093 41.4483 17.7942 41.4929 17.9832 41.4929C18.1614 41.4929 18.3329 41.4618 18.4976 41.3997C18.665 41.3376 18.8148 41.2512 18.9471 41.1405C19.0821 41.0325 19.1874 40.9043 19.263 40.7558C19.3413 40.61 19.3805 40.452 19.3805 40.2819V39.476C19.2428 39.7082 19.0605 39.8972 18.8337 40.043C18.6096 40.1861 18.3477 40.2576 18.048 40.2576C17.7618 40.2576 17.4932 40.2023 17.2421 40.0916C16.991 39.9809 16.7709 39.8283 16.5819 39.6339C16.3929 39.4368 16.2444 39.21 16.1364 38.9535C16.0284 38.697 15.9744 38.4216 15.9744 38.1273C15.9744 37.833 16.0284 37.5576 16.1364 37.3011C16.2444 37.0419 16.3929 36.8151 16.5819 36.6207C16.7709 36.4236 16.991 36.2697 17.2421 36.159C17.4932 36.0483 17.7618 35.993 18.048 35.993C18.3477 35.993 18.6096 36.0645 18.8337 36.2076C19.0605 36.3507 19.2428 36.5397 19.3805 36.7746V36.1023ZM18.0521 39.5975C18.314 39.5975 18.5408 39.53 18.7325 39.395C18.9269 39.26 19.0767 39.0804 19.182 38.8563C19.2873 38.6322 19.34 38.3892 19.34 38.1273C19.34 37.8573 19.286 37.6116 19.178 37.3902C19.0727 37.1661 18.9228 36.9879 18.7284 36.8556C18.5367 36.7206 18.3113 36.6531 18.0521 36.6531C17.7983 36.6531 17.5661 36.7193 17.3555 36.8516C17.1449 36.9839 16.9775 37.1621 16.8533 37.3862C16.7318 37.6076 16.671 37.8546 16.671 38.1273C16.671 38.4 16.7331 38.6484 16.8573 38.8725C16.9842 39.0939 17.1516 39.2708 17.3595 39.4031C17.5701 39.5327 17.801 39.5975 18.0521 39.5975ZM21.0347 40.1523V34.0773H21.7151V40.1523H21.0347ZM24.4304 40.2576C24.0578 40.2576 23.7176 40.1618 23.4098 39.9701C23.1047 39.7784 22.8604 39.5219 22.6768 39.2006C22.4959 38.8766 22.4054 38.5188 22.4054 38.1273C22.4054 37.8303 22.4581 37.5536 22.5634 37.2971C22.6687 37.0379 22.8131 36.8111 22.9967 36.6167C23.183 36.4196 23.399 36.2657 23.6447 36.155C23.8904 36.0443 24.1523 35.9889 24.4304 35.9889C24.7355 35.9889 25.015 36.051 25.2688 36.1752C25.5253 36.2967 25.744 36.4668 25.9249 36.6855C26.1085 36.9042 26.2448 37.158 26.3339 37.4469C26.4257 37.7358 26.4595 38.045 26.4352 38.3744H23.1304C23.1628 38.6039 23.2384 38.8091 23.3572 38.99C23.476 39.1682 23.6272 39.3099 23.8108 39.4152C23.9971 39.5205 24.2036 39.5745 24.4304 39.5772C24.6734 39.5772 24.8935 39.5151 25.0906 39.3909C25.2877 39.264 25.447 39.0912 25.5685 38.8725L26.261 39.0345C26.099 39.3936 25.8547 39.6879 25.528 39.9174C25.2013 40.1442 24.8354 40.2576 24.4304 40.2576ZM23.1101 37.8398H25.7507C25.7291 37.613 25.6562 37.4064 25.532 37.2201C25.4078 37.0311 25.2499 36.8799 25.0582 36.7665C24.8665 36.6531 24.6572 36.5964 24.4304 36.5964C24.2036 36.5964 23.9957 36.6518 23.8067 36.7625C23.6177 36.8732 23.4611 37.023 23.3369 37.212C23.2154 37.3983 23.1398 37.6076 23.1101 37.8398ZM29.1189 40.1523L30.2165 34.4823H30.7389L32.2698 38.508L33.7967 34.4823H34.3191L35.4207 40.1523H34.7282L33.9303 36.0375L32.4926 39.8445H32.043L30.6053 36.0375L29.8115 40.1523H29.1189ZM39.2965 36.1023H39.9769V40.1523H39.2965L39.2681 39.4679C39.1412 39.7028 38.9657 39.8931 38.7416 40.0389C38.5202 40.1847 38.2556 40.2576 37.9478 40.2576C37.6508 40.2576 37.3727 40.2023 37.1135 40.0916C36.8543 39.9782 36.6248 39.8229 36.425 39.6258C36.2279 39.426 36.074 39.1965 35.9633 38.9373C35.8526 38.6781 35.7973 38.3987 35.7973 38.099C35.7973 37.8101 35.8513 37.5374 35.9593 37.2809C36.0673 37.0244 36.2171 36.8003 36.4088 36.6086C36.6032 36.4142 36.8273 36.263 37.0811 36.155C37.3349 36.0443 37.6076 35.9889 37.8992 35.9889C38.2178 35.9889 38.4973 36.0645 38.7376 36.2157C38.9779 36.3642 39.1723 36.5573 39.3208 36.7949L39.2965 36.1023ZM37.9357 39.5975C38.203 39.5975 38.4338 39.5327 38.6282 39.4031C38.8253 39.2708 38.9765 39.0926 39.0818 38.8685C39.1898 38.6444 39.2438 38.3973 39.2438 38.1273C39.2438 37.8519 39.1898 37.6035 39.0818 37.3821C38.9738 37.158 38.8213 36.9812 38.6242 36.8516C38.4298 36.7193 38.2003 36.6531 37.9357 36.6531C37.6684 36.6531 37.4254 36.7193 37.2067 36.8516C36.988 36.9839 36.8138 37.1621 36.6842 37.3862C36.5573 37.6076 36.4939 37.8546 36.4939 38.1273C36.4939 38.4 36.56 38.6484 36.6923 38.8725C36.8246 39.0939 37.0001 39.2708 37.2188 39.4031C37.4375 39.5327 37.6765 39.5975 37.9357 39.5975ZM41.4668 42.1773H40.7864V36.1023H41.4668V36.7949C41.6045 36.5573 41.7881 36.3656 42.0176 36.2198C42.2471 36.0713 42.5198 35.997 42.8357 35.997C43.13 35.997 43.4054 36.0524 43.6619 36.1631C43.9211 36.2738 44.1479 36.4277 44.3423 36.6248C44.5367 36.8192 44.6892 37.0446 44.7999 37.3011C44.9106 37.5576 44.966 37.833 44.966 38.1273C44.966 38.4216 44.9106 38.6984 44.7999 38.9576C44.6892 39.2168 44.5367 39.4449 44.3423 39.642C44.1479 39.8364 43.9211 39.989 43.6619 40.0997C43.4054 40.2104 43.13 40.2657 42.8357 40.2657C42.5198 40.2657 42.2471 40.1928 42.0176 40.047C41.7881 39.8985 41.6045 39.7055 41.4668 39.4679V42.1773ZM42.8276 36.6572C42.5657 36.6572 42.3362 36.7233 42.1391 36.8556C41.942 36.9879 41.7894 37.1648 41.6814 37.3862C41.5761 37.6076 41.5235 37.8546 41.5235 38.1273C41.5235 38.3973 41.5761 38.6444 41.6814 38.8685C41.7894 39.0926 41.9406 39.2708 42.135 39.4031C42.3321 39.5354 42.563 39.6015 42.8276 39.6015C43.0895 39.6015 43.3298 39.5367 43.5485 39.4071C43.7672 39.2748 43.9427 39.098 44.075 38.8766C44.2073 38.6525 44.2734 38.4027 44.2734 38.1273C44.2734 37.8573 44.2086 37.6116 44.079 37.3902C43.9494 37.1661 43.7753 36.9879 43.5566 36.8556C43.3379 36.7233 43.0949 36.6572 42.8276 36.6572ZM46.8943 40.2293C46.6756 40.2212 46.4623 40.1807 46.2544 40.1078C46.0492 40.0322 45.8683 39.9309 45.7117 39.804C45.5578 39.6744 45.4457 39.5259 45.3755 39.3585L45.9587 39.1074C45.9992 39.1992 46.0721 39.2856 46.1774 39.3666C46.2827 39.4476 46.4042 39.5124 46.5419 39.561C46.6796 39.6096 46.8187 39.6339 46.9591 39.6339C47.1076 39.6339 47.2466 39.611 47.3762 39.5651C47.5058 39.5192 47.6111 39.4517 47.6921 39.3626C47.7758 39.2708 47.8177 39.1614 47.8177 39.0345C47.8177 38.8995 47.7718 38.7942 47.68 38.7186C47.5909 38.6403 47.4775 38.5796 47.3398 38.5364C47.2048 38.4905 47.0671 38.4473 46.9267 38.4068C46.6486 38.3366 46.4002 38.2529 46.1815 38.1557C45.9628 38.0558 45.79 37.9302 45.6631 37.779C45.5389 37.6251 45.4768 37.4294 45.4768 37.1918C45.4768 36.9407 45.5456 36.7233 45.6833 36.5397C45.8237 36.3561 46.0073 36.2144 46.2341 36.1145C46.4609 36.0146 46.7039 35.9646 46.9631 35.9646C47.2898 35.9646 47.5882 36.0348 47.8582 36.1752C48.1282 36.3156 48.3293 36.506 48.4616 36.7463L47.9149 37.0662C47.869 36.969 47.7988 36.884 47.7043 36.8111C47.6098 36.7355 47.5018 36.6761 47.3803 36.6329C47.2588 36.5897 47.1346 36.5667 47.0077 36.564C46.8511 36.5586 46.7039 36.5789 46.5662 36.6248C46.4312 36.6707 46.3219 36.7409 46.2382 36.8354C46.1572 36.9272 46.1167 37.0419 46.1167 37.1796C46.1167 37.3146 46.1599 37.4172 46.2463 37.4874C46.3354 37.5576 46.4501 37.6143 46.5905 37.6575C46.7336 37.698 46.8889 37.7453 47.0563 37.7993C47.302 37.8776 47.5315 37.968 47.7448 38.0706C47.9581 38.1732 48.1295 38.3015 48.2591 38.4554C48.3914 38.6093 48.4562 38.7996 48.4535 39.0264C48.4535 39.2748 48.3793 39.4922 48.2308 39.6785C48.0823 39.8621 47.8892 40.0025 47.6516 40.0997C47.4167 40.1969 47.1643 40.2401 46.8943 40.2293Z" fill="white"/>
</svg>
