<svg width="93" height="94" viewBox="0 0 93 94" fill="none" xmlns="http://www.w3.org/2000/svg">
<path d="M71.2051 0.5H21.7988C9.76075 0.5 0.00195312 10.2588 0.00195312 22.2969V71.7031C0.00195312 83.7412 9.76075 93.5 21.7988 93.5H71.2051C83.2432 93.5 93.002 83.7412 93.002 71.7031V22.2969C93.002 10.2588 83.2432 0.5 71.2051 0.5Z" fill="url(#paint0_radial_2335_31918)"/>
<path d="M71.2051 0.5H21.7988C9.76075 0.5 0.00195312 10.2588 0.00195312 22.2969V71.7031C0.00195312 83.7412 9.76075 93.5 21.7988 93.5H71.2051C83.2432 93.5 93.002 83.7412 93.002 71.7031V22.2969C93.002 10.2588 83.2432 0.5 71.2051 0.5Z" fill="url(#paint1_radial_2335_31918)"/>
<path d="M46.5052 10.6719C36.6392 10.6719 35.4008 10.7151 31.526 10.8913C27.6586 11.0686 25.0186 11.6807 22.7088 12.5791C20.3192 13.5069 18.2924 14.7483 16.2733 16.7681C14.2524 18.7876 13.0111 20.8143 12.0803 23.2029C11.1794 25.5134 10.5665 28.1544 10.3925 32.0201C10.2192 35.8952 10.1738 37.134 10.1738 47.0004C10.1738 56.8667 10.2174 58.1011 10.3933 61.9759C10.5713 65.8434 11.1834 68.4834 12.0811 70.7931C13.0096 73.1828 14.2509 75.2095 16.2708 77.2286C18.2895 79.2496 20.3163 80.4938 22.7041 81.4216C25.0157 82.32 27.656 82.9321 31.5228 83.1094C35.3979 83.2856 36.6352 83.3288 46.5009 83.3288C56.3679 83.3288 57.6024 83.2856 61.4771 83.1094C65.3446 82.9321 67.9875 82.32 70.2991 81.4216C72.6876 80.4938 74.7115 79.2496 76.7299 77.2286C78.7508 75.2095 79.9918 73.1828 80.9229 70.7942C81.8158 68.4834 82.429 65.8427 82.6107 61.9766C82.7847 58.1019 82.8301 56.8667 82.8301 47.0004C82.8301 37.134 82.7847 35.8959 82.6107 32.0208C82.429 28.1533 81.8158 25.5137 80.9229 23.204C79.9918 20.8143 78.7508 18.7876 76.7299 16.7681C74.7093 14.7475 72.6884 13.5062 70.2969 12.5795C67.981 11.6807 65.3395 11.0682 61.472 10.8913C57.5969 10.7151 56.3632 10.6719 46.494 10.6719H46.5052ZM43.2462 17.2186C44.2136 17.2171 45.293 17.2186 46.5052 17.2186C56.2052 17.2186 57.3546 17.2534 61.1851 17.4275C64.727 17.5895 66.6495 18.1813 67.9301 18.6786C69.6255 19.3369 70.8342 20.1241 72.1049 21.3959C73.3764 22.6674 74.1633 23.8782 74.8234 25.5737C75.3207 26.8524 75.9132 28.7749 76.0745 32.3169C76.2485 36.1466 76.2863 37.2968 76.2863 46.992C76.2863 56.6873 76.2485 57.8378 76.0745 61.6671C75.9125 65.2091 75.3207 67.1316 74.8234 68.4107C74.1651 70.1061 73.3764 71.3133 72.1049 72.5841C70.8334 73.8556 69.6263 74.6424 67.9301 75.3011C66.651 75.8006 64.727 76.3909 61.1851 76.5529C57.3553 76.7269 56.2052 76.7647 46.5052 76.7647C36.8049 76.7647 35.6551 76.7269 31.8258 76.5529C28.2838 76.3895 26.3613 75.7977 25.0796 75.3003C23.3846 74.6417 22.1734 73.8548 20.9019 72.5834C19.6304 71.3119 18.8435 70.104 18.1835 68.4078C17.6861 67.1287 17.0936 65.2062 16.9323 61.6642C16.7583 57.8345 16.7234 56.6844 16.7234 46.9829C16.7234 37.2819 16.7583 36.1375 16.9323 32.3078C17.0943 28.7658 17.6861 26.8433 18.1835 25.5628C18.8421 23.8673 19.6304 22.6565 20.9023 21.385C22.1737 20.1136 23.3846 19.3263 25.08 18.6666C26.3605 18.1671 28.2838 17.5768 31.8258 17.414C35.177 17.2625 36.4758 17.2171 43.2462 17.2095V17.2186ZM65.8972 23.2505C63.4904 23.2505 61.5378 25.2013 61.5378 27.6084C61.5378 30.0152 63.4904 31.9678 65.8972 31.9678C68.3039 31.9678 70.2566 30.0152 70.2566 27.6084C70.2566 25.2017 68.3039 23.249 65.8972 23.249V23.2505ZM46.5052 28.3441C36.2026 28.3441 27.8493 36.6973 27.8493 47.0004C27.8493 57.3034 36.2026 65.6527 46.5052 65.6527C56.8082 65.6527 65.1586 57.3034 65.1586 47.0004C65.1586 36.6977 56.8075 28.3441 46.5045 28.3441H46.5052ZM46.5052 34.8907C53.1929 34.8907 58.6148 40.312 58.6148 47.0004C58.6148 53.688 53.1929 59.11 46.5052 59.11C39.8172 59.11 34.396 53.688 34.396 47.0004C34.396 40.312 39.8172 34.8907 46.5052 34.8907Z" fill="white"/>
<defs>
<radialGradient id="paint0_radial_2335_31918" cx="0" cy="0" r="1" gradientUnits="userSpaceOnUse" gradientTransform="translate(24.7051 100.663) rotate(-90) scale(92.1699 85.7253)">
<stop stop-color="#FFDD55"/>
<stop offset="0.1" stop-color="#FFDD55"/>
<stop offset="0.5" stop-color="#FF543E"/>
<stop offset="1" stop-color="#C837AB"/>
</radialGradient>
<radialGradient id="paint1_radial_2335_31918" cx="0" cy="0" r="1" gradientUnits="userSpaceOnUse" gradientTransform="translate(-15.5759 7.19927) rotate(78.681) scale(41.2005 169.83)">
<stop stop-color="#3771C8"/>
<stop offset="0.128" stop-color="#3771C8"/>
<stop offset="1" stop-color="#6600FF" stop-opacity="0"/>
</radialGradient>
</defs>
</svg>
