<svg width="23" height="43" viewBox="0 0 23 43" fill="none" xmlns="http://www.w3.org/2000/svg">
<path d="M2.2785 8.90169C1.86417 6.17275 3.78831 3.72147 6.72767 2.82339C7.2493 2.66499 7.81164 2.71089 8.30068 2.95178C8.78971 3.19267 9.16883 3.61053 9.36117 4.12062L10.3048 6.63697C10.4567 7.04179 10.4842 7.48276 10.3837 7.90329C10.2832 8.32383 10.0593 8.70474 9.74079 8.99714L6.93375 11.5677C6.79521 11.6946 6.69199 11.8552 6.63419 12.0339C6.57639 12.2127 6.566 12.4033 6.60402 12.5873L6.63005 12.7001L6.6973 12.9821C7.04727 14.352 7.57913 15.6689 8.2787 16.8976C9.04255 18.2023 9.98928 19.3908 11.0901 20.427L11.1768 20.5051C11.317 20.6295 11.487 20.7155 11.6702 20.7546C11.8534 20.7938 12.0437 20.7848 12.2224 20.7285L15.8516 19.5853C16.2641 19.4558 16.7058 19.4525 17.1201 19.5758C17.5345 19.6991 17.9025 19.9434 18.1771 20.2773L19.8951 22.362C20.611 23.2297 20.5242 24.5052 19.7021 25.271C17.4525 27.3687 14.3592 27.7982 12.2072 26.0693C9.56837 23.9427 7.34452 21.3475 5.64738 18.4139C3.93363 15.4843 2.79199 12.2567 2.2785 8.90169ZM8.87742 12.7304L11.2029 10.5959C11.8403 10.0113 12.2885 9.24964 12.4898 8.40856C12.6912 7.56747 12.6366 6.68539 12.3331 5.87556L11.3916 3.3592C11.0054 2.33264 10.2429 1.4916 9.25895 1.0069C8.27504 0.522196 7.14353 0.430192 6.09425 0.749573C2.44336 1.86675 -0.48732 5.14017 0.133092 9.22925C0.566946 12.084 1.56698 15.7154 3.77313 19.5072C5.60424 22.6703 8.00309 25.4685 10.8493 27.7613C14.0772 30.3536 18.3853 29.4685 21.1837 26.8611C21.9844 26.1155 22.4704 25.0925 22.5426 24.0009C22.6147 22.9092 22.2676 21.8311 21.572 20.9867L19.8539 18.8999C19.3043 18.2328 18.568 17.745 17.7393 17.4992C16.9107 17.2534 16.0275 17.2607 15.203 17.5202L12.1899 18.4682C11.4119 17.6661 10.7304 16.7757 10.1595 15.8152C9.60849 14.8438 9.17867 13.8086 8.87959 12.7326" fill="white"/>
<path d="M0.576284 40.1523V34.4823H2.44738C2.75248 34.4823 3.02653 34.5566 3.26953 34.7051C3.51523 34.8536 3.70963 35.0547 3.85273 35.3085C3.99853 35.5596 4.07143 35.8404 4.07143 36.1509C4.07143 36.4668 3.99718 36.7517 3.84868 37.0055C3.70288 37.2566 3.50578 37.4564 3.25738 37.6049C3.01168 37.7507 2.74168 37.8236 2.44738 37.8236H1.25668V40.1523H0.576284ZM1.25668 37.1432H2.38663C2.57023 37.1432 2.73763 37.0986 2.88883 37.0095C3.04273 36.9177 3.16423 36.7949 3.25333 36.641C3.34513 36.4844 3.39103 36.3089 3.39103 36.1145C3.39103 35.9174 3.34513 35.7419 3.25333 35.588C3.16423 35.4314 3.04273 35.3085 2.88883 35.2194C2.73763 35.1276 2.57023 35.0817 2.38663 35.0817H1.25668V37.1432ZM8.4517 37.6332V40.1523H7.7713V37.7831C7.7713 37.5779 7.72135 37.3916 7.62145 37.2242C7.52155 37.0568 7.3879 36.9245 7.2205 36.8273C7.0531 36.7274 6.8668 36.6774 6.6616 36.6774C6.4591 36.6774 6.2728 36.7274 6.1027 36.8273C5.9353 36.9245 5.80165 37.0568 5.70175 37.2242C5.60185 37.3916 5.5519 37.5779 5.5519 37.7831V40.1523H4.8715V34.0773H5.5519V36.6086C5.695 36.4196 5.8759 36.2697 6.0946 36.159C6.3133 36.0456 6.5509 35.9889 6.8074 35.9889C7.1098 35.9889 7.3852 36.0632 7.6336 36.2117C7.8847 36.3575 8.08315 36.5546 8.22895 36.803C8.37745 37.0514 8.4517 37.3281 8.4517 37.6332ZM10.9645 40.2576C10.5919 40.2576 10.2517 40.1618 9.94393 39.9701C9.63883 39.7784 9.39448 39.5219 9.21088 39.2006C9.02998 38.8766 8.93953 38.5188 8.93953 38.1273C8.93953 37.8303 8.99218 37.5536 9.09748 37.2971C9.20278 37.0379 9.34723 36.8111 9.53083 36.6167C9.71713 36.4196 9.93313 36.2657 10.1788 36.155C10.4245 36.0443 10.6864 35.9889 10.9645 35.9889C11.3371 35.9889 11.676 36.0848 11.9811 36.2765C12.2889 36.4682 12.5332 36.726 12.7141 37.05C12.8977 37.374 12.9895 37.7331 12.9895 38.1273C12.9895 38.4216 12.9369 38.697 12.8316 38.9535C12.7263 39.21 12.5805 39.4368 12.3942 39.6339C12.2106 39.8283 11.9959 39.9809 11.7502 40.0916C11.5072 40.2023 11.2453 40.2576 10.9645 40.2576ZM10.9645 39.5772C11.2183 39.5772 11.4465 39.5111 11.649 39.3788C11.8542 39.2438 12.0148 39.0669 12.1309 38.8482C12.2497 38.6268 12.3091 38.3865 12.3091 38.1273C12.3091 37.8627 12.2484 37.6197 12.1269 37.3983C12.0081 37.1769 11.8474 37.0001 11.6449 36.8678C11.4424 36.7355 11.2156 36.6693 10.9645 36.6693C10.7107 36.6693 10.4826 36.7368 10.2801 36.8718C10.0776 37.0041 9.91693 37.181 9.79813 37.4024C9.67933 37.6238 9.61993 37.8654 9.61993 38.1273C9.61993 38.3973 9.68068 38.643 9.80218 38.8644C9.92368 39.0831 10.087 39.2573 10.2922 39.3869C10.4974 39.5138 10.7215 39.5772 10.9645 39.5772ZM17.2399 37.6332V40.1523H16.5595V37.7831C16.5595 37.5779 16.5095 37.3916 16.4096 37.2242C16.3097 37.0568 16.1761 36.9245 16.0087 36.8273C15.8413 36.7274 15.655 36.6774 15.4498 36.6774C15.2473 36.6774 15.061 36.7274 14.8909 36.8273C14.7235 36.9245 14.5898 37.0568 14.4899 37.2242C14.39 37.3916 14.3401 37.5779 14.3401 37.7831V40.1523H13.6597V36.1023H14.3401V36.6086C14.4832 36.4196 14.6641 36.2697 14.8828 36.159C15.1015 36.0456 15.3391 35.9889 15.5956 35.9889C15.898 35.9889 16.1734 36.0632 16.4218 36.2117C16.6729 36.3575 16.8713 36.5546 17.0171 36.803C17.1656 37.0514 17.2399 37.3281 17.2399 37.6332ZM19.7527 40.2576C19.3801 40.2576 19.0399 40.1618 18.7321 39.9701C18.427 39.7784 18.1827 39.5219 17.9991 39.2006C17.8182 38.8766 17.7277 38.5188 17.7277 38.1273C17.7277 37.8303 17.7804 37.5536 17.8857 37.2971C17.991 37.0379 18.1354 36.8111 18.319 36.6167C18.5053 36.4196 18.7213 36.2657 18.967 36.155C19.2127 36.0443 19.4746 35.9889 19.7527 35.9889C20.0578 35.9889 20.3373 36.051 20.5911 36.1752C20.8476 36.2967 21.0663 36.4668 21.2472 36.6855C21.4308 36.9042 21.5671 37.158 21.6562 37.4469C21.748 37.7358 21.7818 38.045 21.7575 38.3744H18.4527C18.4851 38.6039 18.5607 38.8091 18.6795 38.99C18.7983 39.1682 18.9495 39.3099 19.1331 39.4152C19.3194 39.5205 19.5259 39.5745 19.7527 39.5772C19.9957 39.5772 20.2158 39.5151 20.4129 39.3909C20.61 39.264 20.7693 39.0912 20.8908 38.8725L21.5833 39.0345C21.4213 39.3936 21.177 39.6879 20.8503 39.9174C20.5236 40.1442 20.1577 40.2576 19.7527 40.2576ZM18.4324 37.8398H21.073C21.0514 37.613 20.9785 37.4064 20.8543 37.2201C20.7301 37.0311 20.5722 36.8799 20.3805 36.7665C20.1888 36.6531 19.9795 36.5964 19.7527 36.5964C19.5259 36.5964 19.318 36.6518 19.129 36.7625C18.94 36.8732 18.7834 37.023 18.6592 37.212C18.5377 37.3983 18.4621 37.6076 18.4324 37.8398Z" fill="white"/>
</svg>
