<svg width="29" height="42" viewBox="0 0 29 42" fill="none" xmlns="http://www.w3.org/2000/svg">
<path d="M14.5909 0.8125C6.65046 0.8125 0.213379 7.24969 0.213379 15.19C0.213379 23.1309 6.65057 29.5675 14.5909 29.5675C22.5319 29.5675 28.9684 23.1309 28.9684 15.19C28.9684 7.25025 22.5319 0.813286 14.5907 0.813286L14.5909 0.8125ZM21.1842 21.5491C20.9266 21.9715 20.3738 22.1054 19.9514 21.8461C16.5758 19.7842 12.3263 19.3171 7.3217 20.4606C7.08995 20.5134 6.84673 20.4719 6.64553 20.3454C6.44433 20.2189 6.30162 20.0176 6.24878 19.7859C6.22247 19.6711 6.21904 19.5524 6.23869 19.4363C6.25833 19.3203 6.30066 19.2093 6.36325 19.1096C6.42585 19.0099 6.50749 18.9236 6.60349 18.8555C6.69949 18.7874 6.80797 18.7389 6.92273 18.7128C12.3997 17.4615 17.0974 18.0002 20.8872 20.3164C21.3096 20.5756 21.4434 21.1268 21.1842 21.5491ZM22.944 17.6343C22.6194 18.1616 21.9292 18.3282 21.4022 18.0037C17.5376 15.6283 11.6465 14.9403 7.07549 16.3278C6.48264 16.5069 5.85655 16.1728 5.6766 15.581C5.49801 14.9882 5.83229 14.3632 6.42412 14.183C11.6455 12.5986 18.1367 13.3661 22.5749 16.0933C23.1019 16.4179 23.2685 17.1079 22.944 17.6343ZM23.0951 13.5577C18.4612 10.8053 10.8161 10.5521 6.392 11.8951C5.68155 12.1105 4.93021 11.7094 4.715 10.999C4.49967 10.2882 4.90033 9.5374 5.61134 9.3214C10.6899 7.77963 19.1326 8.07763 24.4674 11.2447C25.1079 11.6239 25.3173 12.4493 24.9379 13.0874C24.5602 13.7265 23.7326 13.9371 23.0957 13.5577H23.0951Z" fill="#1ED760"/>
<path d="M4.48587 39.699C4.18077 39.699 3.88647 39.6518 3.60297 39.5573C3.31947 39.4601 3.07107 39.3224 2.85777 39.1442C2.64717 38.966 2.49732 38.7541 2.40822 38.5084L3.04407 38.2694C3.09807 38.4206 3.19797 38.5529 3.34377 38.6663C3.49227 38.777 3.66642 38.8634 3.86622 38.9255C4.06602 38.9876 4.27257 39.0187 4.48587 39.0187C4.72887 39.0187 4.95432 38.9795 5.16222 38.9012C5.37282 38.8202 5.54292 38.7082 5.67252 38.5651C5.80212 38.422 5.86692 38.2546 5.86692 38.0629C5.86692 37.8657 5.79942 37.7051 5.66442 37.5809C5.52942 37.454 5.35662 37.3541 5.14602 37.2812C4.93542 37.2056 4.71537 37.1476 4.48587 37.1071C4.09437 37.0423 3.74337 36.9505 3.43287 36.8317C3.12507 36.7101 2.88072 36.5414 2.69982 36.3254C2.52162 36.1094 2.43252 35.8246 2.43252 35.4709C2.43252 35.1415 2.52702 34.8539 2.71602 34.6082C2.90772 34.3625 3.16017 34.1722 3.47337 34.0371C3.78657 33.9022 4.12407 33.8347 4.48587 33.8347C4.78557 33.8347 5.07582 33.8819 5.35662 33.9764C5.64012 34.0682 5.88987 34.2032 6.10587 34.3814C6.32187 34.5596 6.47712 34.777 6.57162 35.0335L5.92767 35.2683C5.87367 35.1145 5.77242 34.9822 5.62392 34.8715C5.47812 34.7581 5.30532 34.6717 5.10552 34.6123C4.90842 34.5502 4.70187 34.5191 4.48587 34.5191C4.24557 34.5164 4.02147 34.5556 3.81357 34.6365C3.60567 34.7176 3.43692 34.8296 3.30732 34.9727C3.17772 35.1158 3.11292 35.2819 3.11292 35.4709C3.11292 35.6977 3.17232 35.8718 3.29112 35.9933C3.41262 36.1121 3.57732 36.2012 3.78522 36.2606C3.99312 36.32 4.22667 36.3727 4.48587 36.4186C4.85307 36.4807 5.19327 36.5792 5.50647 36.7142C5.81967 36.8465 6.07077 37.0233 6.25977 37.2447C6.45147 37.4662 6.54732 37.7389 6.54732 38.0629C6.54732 38.3923 6.45147 38.6798 6.25977 38.9255C6.07077 39.1712 5.81967 39.3616 5.50647 39.4966C5.19327 39.6315 4.85307 39.699 4.48587 39.699ZM8.08974 41.6187H7.40934V35.5438H8.08974V36.2363C8.22744 35.9987 8.41104 35.807 8.64054 35.6612C8.87004 35.5127 9.14274 35.4385 9.45864 35.4385C9.75294 35.4385 10.0283 35.4938 10.2848 35.6045C10.544 35.7152 10.7708 35.8691 10.9652 36.0662C11.1596 36.2606 11.3122 36.4861 11.4229 36.7425C11.5336 36.9991 11.5889 37.2745 11.5889 37.5688C11.5889 37.8631 11.5336 38.1398 11.4229 38.399C11.3122 38.6582 11.1596 38.8864 10.9652 39.0835C10.7708 39.2779 10.544 39.4304 10.2848 39.5411C10.0283 39.6518 9.75294 39.7071 9.45864 39.7071C9.14274 39.7071 8.87004 39.6342 8.64054 39.4885C8.41104 39.34 8.22744 39.1469 8.08974 38.9093V41.6187ZM9.45054 36.0986C9.18864 36.0986 8.95914 36.1648 8.76204 36.2971C8.56494 36.4294 8.41239 36.6062 8.30439 36.8276C8.19909 37.049 8.14644 37.2961 8.14644 37.5688C8.14644 37.8388 8.19909 38.0858 8.30439 38.3099C8.41239 38.534 8.56359 38.7122 8.75799 38.8445C8.95509 38.9768 9.18594 39.043 9.45054 39.043C9.71244 39.043 9.95274 38.9782 10.1714 38.8485C10.3901 38.7163 10.5656 38.5394 10.6979 38.318C10.8302 38.0939 10.8964 37.8442 10.8964 37.5688C10.8964 37.2988 10.8316 37.0531 10.702 36.8317C10.5724 36.6076 10.3982 36.4294 10.1795 36.2971C9.96084 36.1648 9.71784 36.0986 9.45054 36.0986ZM14.0244 39.699C13.6518 39.699 13.3116 39.6032 13.0038 39.4115C12.6987 39.2198 12.4544 38.9633 12.2708 38.642C12.0899 38.318 11.9994 37.9603 11.9994 37.5688C11.9994 37.2718 12.0521 36.995 12.1574 36.7385C12.2627 36.4793 12.4071 36.2525 12.5907 36.0581C12.777 35.861 12.993 35.7071 13.2387 35.5964C13.4844 35.4857 13.7463 35.4304 14.0244 35.4304C14.397 35.4304 14.7359 35.5262 15.041 35.7179C15.3488 35.9096 15.5931 36.1675 15.774 36.4915C15.9576 36.8155 16.0494 37.1746 16.0494 37.5688C16.0494 37.8631 15.9968 38.1385 15.8915 38.395C15.7862 38.6515 15.6404 38.8783 15.4541 39.0754C15.2705 39.2698 15.0558 39.4223 14.8101 39.533C14.5671 39.6437 14.3052 39.699 14.0244 39.699ZM14.0244 39.0187C14.2782 39.0187 14.5064 38.9525 14.7089 38.8202C14.9141 38.6852 15.0747 38.5084 15.1908 38.2896C15.3096 38.0683 15.369 37.828 15.369 37.5688C15.369 37.3042 15.3083 37.0612 15.1868 36.8398C15.068 36.6184 14.9073 36.4415 14.7048 36.3092C14.5023 36.1769 14.2755 36.1108 14.0244 36.1108C13.7706 36.1108 13.5425 36.1783 13.34 36.3132C13.1375 36.4456 12.9768 36.6224 12.858 36.8438C12.7392 37.0652 12.6798 37.3069 12.6798 37.5688C12.6798 37.8388 12.7406 38.0845 12.8621 38.3059C12.9836 38.5246 13.1469 38.6987 13.3521 38.8283C13.5573 38.9552 13.7814 39.0187 14.0244 39.0187ZM18.77 36.2242H17.8507L17.8466 39.5938H17.1662L17.1703 36.2242H16.4737V35.5438H17.1703L17.1662 34.2721H17.8466L17.8507 35.5438H18.77V36.2242ZM19.4565 35.5438H20.1369V39.5938H19.4565V35.5438ZM19.8048 34.8836C19.6968 34.8836 19.6064 34.8485 19.5335 34.7783C19.4606 34.7081 19.4241 34.6204 19.4241 34.5151C19.4241 34.4097 19.4606 34.322 19.5335 34.2518C19.6064 34.1816 19.6955 34.1465 19.8008 34.1465C19.9061 34.1465 19.9952 34.1816 20.0681 34.2518C20.141 34.322 20.1774 34.4097 20.1774 34.5151C20.1774 34.6204 20.141 34.7081 20.0681 34.7783C19.9979 34.8485 19.9101 34.8836 19.8048 34.8836ZM22.0291 34.5434V35.5438H23.2157V36.2242H22.0291V39.5938H21.3487V36.2242H20.8262V35.5438H21.3487V34.5434C21.3487 34.3355 21.3986 34.1479 21.4985 33.9805C21.6011 33.8104 21.7375 33.6754 21.9076 33.5755C22.0804 33.4729 22.2694 33.4216 22.4746 33.4216C22.6258 33.4216 22.7729 33.4526 22.916 33.5147C23.0591 33.5741 23.186 33.6632 23.2967 33.782L22.8107 34.2639C22.7729 34.2127 22.723 34.1735 22.6609 34.1465C22.6015 34.1168 22.5394 34.102 22.4746 34.102C22.3531 34.102 22.2478 34.1452 22.1587 34.2315C22.0723 34.318 22.0291 34.4219 22.0291 34.5434ZM26.6209 35.5438H27.3418L25.1264 41.6187H24.4055L25.1386 39.5938L23.6846 35.5438H24.4298L25.4788 38.6582L26.6209 35.5438Z" fill="white"/>
</svg>
