<svg width="39" height="39" viewBox="0 0 39 39" fill="none" xmlns="http://www.w3.org/2000/svg">
<path d="M36.0569 15.4572C36.4831 15.2795 36.7584 15.2006 37.0118 14.9475C37.265 14.6944 37.4072 14.3512 37.4072 13.9933C37.4072 13.6355 37.265 13.2922 37.0118 13.0392C36.7584 12.7861 36.6729 12.6345 36.0569 12.4538C35.4405 12.273 5.48295 2.1455 5.48295 2.1455C5.00488 1.98195 4.49048 1.95569 3.99823 2.0697C3.50598 2.18372 3.0556 2.43343 2.69829 2.79047C2.34099 3.1475 2.09108 3.59755 1.97698 4.08942C1.86288 4.58131 1.88916 5.0953 2.05284 5.57302C2.05284 5.57302 12.4199 35.7406 12.5465 36.1507C12.6732 36.5609 12.8366 36.8517 13.0898 37.1049C13.3431 37.358 13.6865 37.5 14.0447 37.5C14.4029 37.5 14.7464 37.358 14.9996 37.1049C15.2529 36.8517 15.3107 36.7083 15.5006 36.1507C15.6905 35.5931 20.7969 20.8753 20.7969 20.8753C20.7969 20.8753 35.6306 15.635 36.0569 15.4572Z" stroke="white" stroke-width="3" stroke-linecap="round" stroke-linejoin="round"/>
</svg>
