<svg width="27" height="30" viewBox="0 0 27 30" fill="none" xmlns="http://www.w3.org/2000/svg">
<path d="M0.798658 1.88594L14.026 14.8575L0.897031 27.9486C0.682777 27.6686 0.516089 27.3551 0.403654 27.0209C0.344615 26.6423 0.344615 26.2569 0.403654 25.8783V3.60065C0.364305 3.00285 0.50354 2.40505 0.798658 1.88594ZM19.724 9.20033L15.4062 13.4773L2.3363 0.623748C2.76006 0.476946 3.21408 0.436084 3.65752 0.505701C4.35369 0.696393 5.01809 0.989997 5.628 1.37289L17.4569 7.91845C18.2257 8.33162 18.9749 8.76597 19.724 9.20033ZM15.4077 16.2574L19.7044 20.4769L16.5897 22.2112L7.08694 27.4931C6.29996 27.9274 5.50995 28.3421 4.74113 28.8158C4.41223 29.0208 4.04333 29.1532 3.65914 29.2041C3.27494 29.255 2.8843 29.2232 2.51337 29.1109L15.4077 16.2574ZM26.5466 14.8575C26.5584 15.3869 26.4251 15.9094 26.1609 16.3683C25.8968 16.8272 25.512 17.205 25.0483 17.4606L21.4978 19.4311L16.8258 14.8575L21.5174 10.2052C22.7206 10.8757 23.9041 11.5461 25.0861 12.1772C25.5577 12.4404 25.9451 12.8319 26.2033 13.3063C26.4616 13.7807 26.5815 14.3185 26.5466 14.8575Z" fill="#1A73E8"/>
</svg>
