<svg width="29" height="36" viewBox="0 0 29 36" fill="none" xmlns="http://www.w3.org/2000/svg">
<path d="M3.55 3.55V11.8333C3.55 12.0182 3.63875 12.1957 3.78667 12.3067L7.57333 15.1467C8.07625 15.5239 8.3425 16.1377 8.27594 16.7664L7.50677 23.6667H3.93458L4.62979 17.3802L1.65667 15.1467C0.613854 14.3627 0 13.135 0 11.8333V2.95833C0 1.32385 1.32385 0 2.95833 0H25.4417C27.0761 0 28.4 1.32385 28.4 2.95833V11.8333C28.4 13.135 27.7861 14.3627 26.7433 15.1467L23.7702 17.3802L24.4654 23.6667H20.8932L20.1241 16.7664C20.0575 16.1451 20.3238 15.5239 20.8267 15.1467L24.6133 12.3067C24.7612 12.1957 24.85 12.0182 24.85 11.8333V3.55H20.1167V5.325C20.1167 6.30865 19.3253 7.1 18.3417 7.1C17.358 7.1 16.5667 6.30865 16.5667 5.325V3.55H11.8333V5.325C11.8333 6.30865 11.042 7.1 10.0583 7.1C9.07469 7.1 8.28333 6.30865 8.28333 5.325V3.55H3.55ZM3.8976 31.95H24.5024L23.2747 29.5833H5.11792L3.8976 31.95ZM24.0069 26.0333C24.8944 26.0333 25.7005 26.5289 26.1073 27.3128L28.0672 31.0995C28.2891 31.5284 28.4074 32.0018 28.4074 32.4825C28.4074 34.1466 27.0614 35.5 25.3899 35.5H3.0175C1.34604 35.5 0 34.154 0 32.4825C0 32.0018 0.118333 31.5284 0.340208 31.0995L2.3001 27.3128C2.69948 26.5289 3.51302 26.0333 4.40052 26.0333H23.9995H24.0069ZM13.0167 18.9333C12.3658 18.9333 11.8333 18.4008 11.8333 17.75V14.2C11.8333 12.8909 12.8909 11.8333 14.2 11.8333C15.5091 11.8333 16.5667 12.8909 16.5667 14.2V17.75C16.5667 18.4008 16.0342 18.9333 15.3833 18.9333H13.0167Z" fill="white"/>
</svg>
