<svg width="36" height="36" viewBox="0 0 36 36" fill="none" xmlns="http://www.w3.org/2000/svg">
<path d="M12.4519 0C11.6112 0 10.805 0.333944 10.2106 0.928367C9.61617 1.52279 9.28223 2.329 9.28223 3.16964V8.26009C9.27728 8.4249 9.20831 8.5813 9.08996 8.6961C8.97161 8.8109 8.81318 8.87507 8.6483 8.875H3.57687C2.73623 8.875 1.93002 9.20894 1.33559 9.80337C0.74117 10.3978 0.407227 11.204 0.407227 12.0446V17.1161C0.407227 17.9567 0.74117 18.7629 1.33559 19.3573C1.93002 19.9518 2.73623 20.2857 3.57687 20.2857H17.5233C18.3639 20.2857 19.1702 19.9518 19.7646 19.3573C20.359 18.7629 20.6929 17.9567 20.6929 17.1161V12.0446C20.6929 11.8765 20.7597 11.7153 20.8786 11.5964C20.9975 11.4775 21.1587 11.4107 21.3269 11.4107H26.3983C27.2389 11.4107 28.0452 11.0768 28.6396 10.4823C29.234 9.88792 29.5679 9.08171 29.5679 8.24107V3.16964C29.5679 2.329 29.234 1.52279 28.6396 0.928367C28.0452 0.333944 27.2389 0 26.3983 0H12.4519ZM26.3983 8.875H20.6929V2.53571H26.3983C26.5664 2.53571 26.7277 2.6025 26.8466 2.72139C26.9654 2.84027 27.0322 3.00151 27.0322 3.16964V8.24107C27.0322 8.4092 26.9654 8.57044 26.8466 8.68933C26.7277 8.80821 26.5664 8.875 26.3983 8.875ZM18.1572 8.875H11.8179V3.16964C11.8179 3.00151 11.8847 2.84027 12.0036 2.72139C12.1225 2.6025 12.2837 2.53571 12.4519 2.53571H18.1572V8.875ZM9.28223 11.4107V17.75H3.57687C3.40874 17.75 3.2475 17.6832 3.12861 17.5643C3.00973 17.4454 2.94294 17.2842 2.94294 17.1161V12.0446C2.94294 11.8765 3.00973 11.7153 3.12861 11.5964C3.2475 11.4775 3.40874 11.4107 3.57687 11.4107H9.28223ZM11.8179 11.4107H18.2206C18.1784 11.6161 18.1572 11.8274 18.1572 12.0446V17.1161C18.1572 17.2842 18.0904 17.4454 17.9716 17.5643C17.8527 17.6832 17.6914 17.75 17.5233 17.75H11.8179V11.4107ZM27.6662 15.2143C26.8255 15.2143 26.0193 15.5482 25.4249 16.1427C24.8305 16.7371 24.4965 17.5433 24.4965 18.3839V23.4554C24.4965 23.6226 24.4304 23.7831 24.3126 23.9018C24.1948 24.0206 24.0349 24.0879 23.8677 24.0893H9.91616C9.07551 24.0893 8.2693 24.4232 7.67488 25.0177C7.08046 25.6121 6.74651 26.4183 6.74651 27.2589V32.3304C6.74651 33.171 7.08046 33.9772 7.67488 34.5716C8.2693 35.1661 9.07551 35.5 9.91616 35.5H32.7376C33.5782 35.5 34.3844 35.1661 34.9789 34.5716C35.5733 33.9772 35.9072 33.171 35.9072 32.3304V18.3839C35.9072 17.5433 35.5733 16.7371 34.9789 16.1427C34.3844 15.5482 33.5782 15.2143 32.7376 15.2143H27.6662ZM24.4965 26.625V32.9643H18.1572V26.625H24.4965ZM33.3715 26.625V32.3304C33.3715 32.4985 33.3047 32.6597 33.1858 32.7786C33.067 32.8975 32.9057 32.9643 32.7376 32.9643H27.0322V26.625H33.3715ZM27.0322 24.0893V18.3839C27.0322 18.2158 27.099 18.0546 27.2179 17.9357C27.3368 17.8168 27.498 17.75 27.6662 17.75H32.7376C32.9057 17.75 33.067 17.8168 33.1858 17.9357C33.3047 18.0546 33.3715 18.2158 33.3715 18.3839V24.0893H27.0322ZM15.6215 26.625V32.9643H9.91616C9.74803 32.9643 9.58678 32.8975 9.4679 32.7786C9.34902 32.6597 9.28223 32.4985 9.28223 32.3304V27.2589C9.28223 27.0908 9.34902 26.9296 9.4679 26.8107C9.58678 26.6918 9.74803 26.625 9.91616 26.625H15.6215Z" fill="white"/>
</svg>
