<svg width="33" height="36" viewBox="0 0 33 36" fill="none" xmlns="http://www.w3.org/2000/svg">
<path d="M0.949552 1.7448L17.2796 17.7591L1.071 33.921C0.806488 33.5752 0.600701 33.1882 0.461892 32.7756C0.389005 32.3082 0.389005 31.8323 0.461892 31.3649V3.86173C0.413313 3.1237 0.585209 2.38567 0.949552 1.7448ZM24.3142 10.7749L18.9836 16.0551L2.84787 0.186533C3.37103 0.00529578 3.93156 -0.0451514 4.47901 0.0407962C5.33848 0.276218 6.15872 0.638692 6.9117 1.1114L21.5153 9.19234C22.4645 9.70242 23.3893 10.2387 24.3142 10.7749ZM18.9855 19.4874L24.2899 24.6965L20.4447 26.8378L8.71286 33.3586C7.74128 33.8948 6.76596 34.4067 5.8168 34.9916C5.41075 35.2446 4.95533 35.4081 4.48101 35.4709C4.00669 35.5337 3.52442 35.4945 3.06648 35.3559L18.9855 19.4874ZM32.7371 17.7591C32.7517 18.4126 32.5871 19.0577 32.261 19.6242C31.9349 20.1908 31.4598 20.6572 30.8873 20.9728L26.504 23.4055L20.7362 17.7591L26.5283 12.0155C28.0137 12.8432 29.4748 13.671 30.934 14.4501C31.5163 14.775 31.9946 15.2583 32.3134 15.844C32.6321 16.4297 32.7803 17.0937 32.7371 17.7591Z" fill="#1A73E8"/>
</svg>
