<svg width="36" height="36" viewBox="0 0 36 36" fill="none" xmlns="http://www.w3.org/2000/svg">
<path d="M18.0254 0C8.2224 0 0.275391 7.94715 0.275391 17.75C0.275391 27.5535 8.22254 35.5 18.0254 35.5C27.8291 35.5 35.7754 27.5535 35.7754 17.75C35.7754 7.94784 27.8291 0.000970703 18.0251 0.000970703L18.0254 0ZM26.1653 25.6008C25.8473 26.1222 25.1648 26.2875 24.6434 25.9674C20.4759 23.4218 15.2296 22.8452 9.0511 24.2569C8.76499 24.322 8.46472 24.2709 8.21632 24.1147C7.96792 23.9585 7.79173 23.71 7.72651 23.4239C7.69403 23.2823 7.68979 23.1356 7.71404 22.9924C7.73829 22.8491 7.79055 22.712 7.86783 22.589C7.94511 22.466 8.04589 22.3594 8.16441 22.2753C8.28293 22.1913 8.41686 22.1314 8.55854 22.0992C15.3202 20.5544 21.1199 21.2194 25.7986 24.0788C26.32 24.3989 26.4853 25.0794 26.1653 25.6008ZM28.3379 20.7676C27.9371 21.4187 27.0851 21.6244 26.4345 21.2237C21.6633 18.2911 14.3904 17.4417 8.74713 19.1547C8.01522 19.3758 7.24227 18.9634 7.02011 18.2327C6.79962 17.5008 7.21231 16.7292 7.94297 16.5068C14.3891 14.5507 22.403 15.4982 27.8822 18.8652C28.5328 19.266 28.7385 20.1178 28.3379 20.7676ZM28.5244 15.7348C22.8036 12.3368 13.3652 12.0242 7.90331 13.6822C7.02622 13.9482 6.09864 13.453 5.83294 12.5759C5.56711 11.6984 6.06175 10.7715 6.93954 10.5048C13.2093 8.6014 23.6325 8.9693 30.2187 12.8793C31.0094 13.3474 31.2679 14.3664 30.7994 15.1542C30.3332 15.9432 29.3115 16.2033 28.5252 15.7348H28.5244Z" fill="#1ED760"/>
</svg>
