<svg width="36" height="36" viewBox="0 0 36 36" fill="none" xmlns="http://www.w3.org/2000/svg">
<path d="M6.177 12.2031H9.23V15.2561C9.23 15.336 9.30987 15.3981 9.4075 15.3981H11.5375C11.6351 15.3981 11.715 15.336 11.715 15.2517V12.2031H14.768C14.8479 12.2031 14.91 12.1233 14.91 12.0256V9.89563C14.91 9.798 14.8479 9.71812 14.7636 9.71812H11.715V6.66513C11.715 6.58525 11.6351 6.52312 11.5375 6.52312H9.4075C9.30987 6.52312 9.23 6.58525 9.23 6.66513V9.71812H6.177C6.09713 9.71812 6.035 9.798 6.035 9.89563V12.0256C6.035 12.1233 6.09713 12.2031 6.177 12.2031ZM20.732 12.2031H29.323C29.4029 12.2031 29.465 12.1233 29.465 12.0256V9.89563C29.465 9.798 29.4029 9.71812 29.3186 9.71812H20.732C20.6521 9.71812 20.59 9.798 20.59 9.89563V12.0256C20.59 12.1233 20.6521 12.2031 20.732 12.2031ZM20.732 23.9625H29.323C29.4029 23.9625 29.465 23.8826 29.465 23.785V21.655C29.465 21.5574 29.4029 21.4775 29.3186 21.4775H20.732C20.6521 21.4775 20.59 21.5574 20.59 21.655V23.785C20.59 23.8826 20.6521 23.9625 20.732 23.9625ZM20.732 28.5775H29.323C29.4029 28.5775 29.465 28.4976 29.465 28.4V26.27C29.465 26.1724 29.4029 26.0925 29.3186 26.0925H20.732C20.6521 26.0925 20.59 26.1724 20.59 26.27V28.4C20.59 28.4976 20.6521 28.5775 20.732 28.5775ZM12.0478 24.9831L14.7636 21.6594C14.9544 21.4287 14.7946 21.0781 14.5017 21.0781H12.2475C12.1454 21.0781 12.0478 21.1225 11.9857 21.2068L10.4769 23.0528L8.96819 21.2068C8.93645 21.1677 8.8966 21.136 8.8514 21.1137C8.8062 21.0915 8.75672 21.0794 8.70638 21.0781H6.44769C6.15481 21.0781 5.99506 21.4287 6.18587 21.6594L8.90163 24.9831L6.11931 28.3911C5.92406 28.6219 6.08381 28.9724 6.37669 28.9724H8.63094C8.733 28.9724 8.83062 28.9281 8.89275 28.8438L10.4681 26.9134L12.0434 28.8438C12.1099 28.9236 12.2076 28.9724 12.3052 28.9724H14.5594C14.8523 28.9724 15.0121 28.6219 14.8212 28.3911L12.0478 24.9831ZM34.08 0H1.42C0.634562 0 0 0.634562 0 1.42V34.08C0 34.8654 0.634562 35.5 1.42 35.5H34.08C34.8654 35.5 35.5 34.8654 35.5 34.08V1.42C35.5 0.634562 34.8654 0 34.08 0ZM32.4825 32.4825H3.0175V3.0175H32.4825V32.4825Z" fill="white"/>
</svg>
