<svg width="28" height="36" viewBox="0 0 28 36" fill="none" xmlns="http://www.w3.org/2000/svg">
<path d="M2.75148 10.2953C2.23996 6.92623 4.61544 3.89997 8.24428 2.79123C8.88826 2.59567 9.58251 2.65233 10.1863 2.94973C10.79 3.24713 11.2581 3.763 11.4955 4.39274L12.6605 7.49935C12.848 7.99912 12.8819 8.54353 12.7579 9.06271C12.6338 9.58189 12.3574 10.0521 11.9642 10.4131L8.4987 13.5867C8.32767 13.7433 8.20023 13.9416 8.12887 14.1623C8.05752 14.3829 8.04468 14.6183 8.09163 14.8454L8.12377 14.9847L8.20679 15.3328C8.63884 17.0241 9.29546 18.6499 10.1591 20.1668C11.1022 21.7775 12.271 23.2448 13.63 24.5241L13.7371 24.6205C13.9101 24.7741 14.1199 24.8802 14.3462 24.9285C14.5724 24.9769 14.8073 24.9658 15.0279 24.8964L19.5084 23.485C20.0176 23.3251 20.563 23.321 21.0745 23.4732C21.586 23.6255 22.0404 23.927 22.3794 24.3393L24.5004 26.913C25.3842 27.9842 25.2771 29.5589 24.2621 30.5043C21.4849 33.0941 17.6659 33.6243 15.0092 31.4899C11.7513 28.8645 9.00582 25.6605 6.91058 22.0388C4.79485 18.4219 3.38542 14.4373 2.75148 10.2953ZM10.8983 15.0222L13.7692 12.3869C14.5562 11.6652 15.1094 10.7249 15.3581 9.68649C15.6067 8.64811 15.5393 7.55913 15.1645 6.55933L14.0022 3.45272C13.5254 2.18536 12.584 1.14703 11.3693 0.548637C10.1546 -0.0497585 8.75769 -0.163343 7.46227 0.230954C2.95501 1.61018 -0.663116 5.65145 0.102824 10.6997C0.638446 14.2241 1.87306 18.7072 4.59669 23.3886C6.85732 27.2936 9.81887 30.7481 13.3327 33.5788C17.3177 36.7791 22.6365 35.6865 26.0912 32.4674C27.0797 31.547 27.6798 30.284 27.7689 28.9363C27.8579 27.5885 27.4294 26.2576 26.5706 25.215L24.4495 22.6387C23.771 21.8151 22.8619 21.213 21.8389 20.9095C20.8159 20.6061 19.7255 20.6151 18.7077 20.9354L14.9878 22.1058C14.0272 21.1155 13.1859 20.0163 12.4811 18.8304C11.8009 17.6312 11.2702 16.3532 10.901 15.0248" fill="white"/>
</svg>
