<svg width="135" height="135" viewBox="0 0 135 135" fill="none" xmlns="http://www.w3.org/2000/svg">
<path d="M105.695 10.0883C98.5701 5.31909 90.4541 1.91248 81.7806 0.116275C77.9394 -0.626984 74.3461 2.28411 74.3461 6.24816C74.3461 9.09732 76.2667 11.6987 79.0546 12.2562C86.3032 13.6807 93.0562 16.5918 98.9418 20.5559C101.358 22.1663 104.518 21.7327 106.562 19.6888C109.412 16.9015 108.978 12.2562 105.695 10.0883ZM61.9553 6.24816C61.9553 2.28411 58.362 -0.626984 54.5209 0.116275C45.8473 1.91248 37.7314 5.31909 30.6067 10.0883C27.3851 12.2562 26.9514 16.9015 29.6774 19.6268C31.7219 21.6708 34.8815 22.1043 37.2977 20.494C43.2453 16.5299 49.9363 13.6807 57.1849 12.1942C60.0348 11.6987 61.9553 9.09732 61.9553 6.24816ZM20.9419 28.422C20.2947 27.7724 19.5114 27.2744 18.6484 26.9642C17.7854 26.6539 16.8642 26.5391 15.9514 26.628C15.0386 26.7169 14.1569 27.0072 13.37 27.4782C12.5831 27.9491 11.9106 28.5888 11.401 29.3511C6.5297 36.5839 3.13961 44.7096 1.42644 53.2593C1.24268 54.1593 1.26146 55.0889 1.4814 55.9807C1.70135 56.8726 2.11696 57.7044 2.69813 58.4158C3.2793 59.1273 4.01148 59.7006 4.84163 60.0943C5.67178 60.4879 6.57912 60.692 7.49792 60.6919C10.3478 60.6919 12.9499 58.7718 13.5074 55.9846C14.9324 48.7378 17.8442 41.9865 21.8093 36.0404C23.3581 33.6868 22.9244 30.466 20.9419 28.422ZM128.804 60.6919C129.722 60.692 130.63 60.4879 131.46 60.0943C132.29 59.7006 133.022 59.1273 133.603 58.4158C134.184 57.7044 134.6 56.8726 134.82 55.9807C135.04 55.0889 135.059 54.1593 134.875 53.2593C133.078 44.5879 129.671 36.5359 124.9 29.3511C122.732 26.1303 118.086 25.6348 115.36 28.422C113.315 30.466 112.881 33.6249 114.492 36.0404C118.457 41.9865 121.307 48.7378 122.794 55.9846C123.352 58.7718 125.954 60.6919 128.804 60.6919Z" fill="white"/>
<path fill-rule="evenodd" clip-rule="evenodd" d="M68.1488 37.1836C85.2574 37.1836 99.1257 51.0485 99.1257 68.1527C99.1257 85.2569 85.2574 99.1218 68.1488 99.1218C51.0402 99.1218 37.1719 85.2569 37.1719 68.1527C37.1719 51.0485 51.0402 37.1836 68.1488 37.1836ZM44.0023 73.7581C45.0863 78.4108 47.4912 82.6517 50.9278 85.971C54.3645 89.2903 58.6867 91.5469 63.3753 92.4696C62.7774 84.3403 60.1041 79.4626 56.7276 76.7652C53.4936 74.1793 49.1073 73.179 44.0023 73.755V73.7581ZM79.57 76.7621C76.1935 79.4657 73.5202 84.3403 72.9223 92.4696C77.6113 91.5467 81.9338 89.2896 85.3705 85.9697C88.8072 82.6498 91.2118 78.4083 92.2953 73.755C87.1903 73.179 82.804 74.1793 79.57 76.7652V76.7621ZM68.1488 43.3774C62.3748 43.3764 56.7816 45.3911 52.3351 49.0737C47.8887 52.7563 44.868 57.8756 43.7947 63.5476L43.6615 64.3156L50.5074 62.9468C52.3103 62.5876 54.0233 61.6368 55.9377 60.3454L57.4153 59.3172C59.8842 57.5644 63.5425 55.7651 68.1488 55.7651C72.4484 55.7651 75.9209 57.3321 78.3712 58.9673L80.3599 60.3454C82.0327 61.4758 83.5567 62.3429 85.118 62.7858L85.7902 62.9468L92.6361 64.3156C91.721 58.4803 88.7508 53.1637 84.2609 49.3246C79.771 45.4854 74.0569 43.3763 68.1488 43.3774Z" fill="white"/>
<path d="M68.1492 122.604C58.9999 122.602 49.9929 120.34 41.9295 116.017C33.8661 111.695 26.9965 105.447 21.9317 97.8291H30.9769C34.3844 97.8291 37.1723 95.0418 37.1723 91.6352C37.1723 88.2286 34.3844 85.4414 30.9769 85.4414H6.19538C2.78792 85.4414 0 88.2286 0 91.6352V116.411C0 119.817 2.78792 122.604 6.19538 122.604C9.60285 122.604 12.3908 119.817 12.3908 116.411V105.881C24.7196 123.471 45.0404 134.992 68.1492 134.992C95.7187 134.992 119.385 118.64 130.103 95.1657C130.473 94.3266 130.654 93.4163 130.633 92.4995C130.613 91.5826 130.39 90.6816 129.982 89.8601C129.575 89.0387 128.991 88.3169 128.273 87.746C127.555 87.175 126.721 86.7689 125.828 86.5563C123.04 85.9369 120.067 87.2376 118.889 89.901C110.092 109.164 90.7004 122.604 68.1492 122.604Z" fill="white"/>
</svg>
