<svg width="127" height="141" viewBox="0 0 127 141" fill="none" xmlns="http://www.w3.org/2000/svg">
<path opacity="0.4" d="M63.5721 0C75.94 0 86.1041 4.1736 93.012 8.17095C102.364 13.5783 105.952 23.7515 105.952 32.8319V44.8873C112.359 48.9061 118.546 53.2646 124.486 57.944C125.895 59.1281 126.785 60.8146 126.966 62.644C127.147 64.4735 126.605 66.3011 125.455 67.7374C124.305 69.1736 122.639 70.1048 120.811 70.3324C118.984 70.5601 117.139 70.0662 115.671 68.9561C112.511 66.4723 109.269 64.0928 105.952 61.8215V109.881C105.952 118.134 102.667 126.05 96.8204 131.886C90.9735 137.721 83.0433 141 74.7745 141H52.3696C44.1008 141 36.1707 137.721 30.3238 131.886C24.4769 126.05 21.1921 118.134 21.1921 109.881V61.8215C17.8935 64.1057 14.6232 66.4533 11.48 68.9561C10.017 70.1247 8.14871 70.6653 6.28628 70.4591C4.42385 70.2528 2.71978 69.3165 1.54896 67.8563C0.378144 66.396 -0.163526 64.5312 0.0431164 62.6723C0.249759 60.8134 1.18779 59.1126 2.65084 57.944C8.59336 53.2668 14.7826 48.9107 21.1921 44.8944V32.8319C21.1921 23.7444 24.7803 13.5783 34.1321 8.17095C41.0401 4.1736 51.2113 0 63.5721 0ZM91.8254 66.3687L90.9707 67.2288L90.0101 68.244C86.9748 71.7043 85.1522 76.0579 84.8186 80.645L84.7621 82.1818V105.75L84.7268 106.808C84.474 110.165 83.0262 113.32 80.6451 115.705C78.2641 118.089 75.1069 119.544 71.7444 119.808L70.6354 119.85H56.5088L55.4493 119.815C52.0859 119.562 48.924 118.117 46.5351 115.741C44.1463 113.364 42.6882 110.213 42.4245 106.857L42.3821 105.75V82.1818L42.3326 80.7859C42.0304 76.1966 40.2376 71.8307 37.2259 68.3497L36.1734 67.2217L35.3188 66.3758V109.874L35.3753 111.228C35.6968 115.262 37.4484 119.051 40.3157 121.913C43.183 124.774 46.9783 126.523 51.0205 126.844L52.3696 126.9H74.7745L76.1236 126.844C80.1659 126.523 83.9612 124.774 86.8285 121.913C89.6958 119.051 91.4474 115.262 91.7689 111.228L91.8254 109.881V66.3687ZM63.5721 42.3C59.659 42.3 54.5028 43.6536 48.5413 46.1563C46.5306 47.007 44.5081 47.9423 42.4739 48.9622L39.4367 50.5344L46.168 57.2531C52.3331 63.4082 55.9988 71.6223 56.4593 80.3136L56.5088 82.1818V105.75H70.6354V82.1818C70.6339 73.4771 73.8594 65.0795 79.6906 58.6067L80.9761 57.2531L87.7075 50.5344C84.7418 48.9311 81.7011 47.4701 78.5958 46.1563C72.6485 43.6536 67.4922 42.3 63.5721 42.3ZM63.5721 14.1C54.4109 14.1 46.6907 17.202 41.2166 20.3745C37.6002 22.4543 35.3188 26.9522 35.3188 32.8248V36.7728C37.8686 35.4686 40.4679 34.2419 43.0602 33.1491C49.6856 30.3714 56.8902 28.2 63.5721 28.2C70.254 28.2 77.4586 30.3714 84.084 33.1562C86.6762 34.2489 89.2756 35.4756 91.8254 36.7728V32.8248C91.8254 26.9592 89.544 22.4613 85.9275 20.3675C80.4534 17.202 72.7332 14.1 63.5721 14.1Z" fill="white"/>
</svg>
