<svg width="220" height="250" viewBox="0 0 220 250" fill="none" xmlns="http://www.w3.org/2000/svg">
<g clip-path="url(#clip0_2065_10287)">
<g filter="url(#filter0_f_2065_10287)">
<circle cx="116.395" cy="80.6075" r="59.1205" transform="rotate(135.553 116.395 80.6075)" fill="url(#paint0_linear_2065_10287)"/>
</g>
<g opacity="0.7" filter="url(#filter1_f_2065_10287)">
<path d="M143.28 65.9622C153.108 104.108 117.956 138.588 80.0066 128.026C42.0574 117.464 29.7727 69.782 57.8941 42.198C86.0156 14.6139 133.452 27.8162 143.28 65.9622Z" fill="url(#paint1_linear_2065_10287)"/>
</g>
<rect x="114" y="76" width="4" height="4" rx="2" fill="white"/>
<rect x="108" y="76" width="4" height="4" rx="2" fill="white"/>
<rect x="120" y="76" width="4" height="4" rx="2" fill="white"/>
<rect x="126" y="76" width="4" height="4" rx="2" fill="white"/>
<rect x="132" y="76" width="4" height="4" rx="2" fill="white"/>
</g>
<defs>
<filter id="filter0_f_2065_10287" x="23.0045" y="-12.7856" width="186.781" height="186.782" filterUnits="userSpaceOnUse" color-interpolation-filters="sRGB">
<feFlood flood-opacity="0" result="BackgroundImageFix"/>
<feBlend mode="normal" in="SourceGraphic" in2="BackgroundImageFix" result="shape"/>
<feGaussianBlur stdDeviation="17.135" result="effect1_foregroundBlur_2065_10287"/>
</filter>
<filter id="filter1_f_2065_10287" x="16.8239" y="1.82098" width="153.829" height="153.835" filterUnits="userSpaceOnUse" color-interpolation-filters="sRGB">
<feFlood flood-opacity="0" result="BackgroundImageFix"/>
<feBlend mode="normal" in="SourceGraphic" in2="BackgroundImageFix" result="shape"/>
<feGaussianBlur stdDeviation="12.8512" result="effect1_foregroundBlur_2065_10287"/>
</filter>
<linearGradient id="paint0_linear_2065_10287" x1="69.4965" y1="29.6351" x2="152.019" y2="139.728" gradientUnits="userSpaceOnUse">
<stop stop-color="#6100FF"/>
<stop offset="1" stop-color="#00FFFF" stop-opacity="0"/>
</linearGradient>
<linearGradient id="paint1_linear_2065_10287" x1="165.392" y1="151.791" x2="22.0614" y2="5.66712" gradientUnits="userSpaceOnUse">
<stop stop-color="#0075FF" stop-opacity="0.75"/>
<stop offset="1" stop-color="#00FFFF" stop-opacity="0"/>
</linearGradient>
<clipPath id="clip0_2065_10287">
<rect width="250" height="250" fill="white"/>
</clipPath>
</defs>
</svg>
