<svg width="141" height="141" viewBox="0 0 141 141" fill="none" xmlns="http://www.w3.org/2000/svg">
<path d="M39.3919 1.93875C40.6302 0.698897 42.3102 0.00154265 44.0625 0L96.9375 0C98.6912 0 100.366 0.696187 101.608 1.93875L139.061 39.3919C140.304 40.6256 141 42.3088 141 44.0625V96.9375C140.998 98.6898 140.301 100.37 139.061 101.608L101.608 139.061C100.37 140.301 98.6898 140.998 96.9375 141H44.0625C42.3102 140.998 40.6302 140.301 39.3919 139.061L1.93875 101.608C0.698897 100.37 0.00154265 98.6898 0 96.9375L0 44.0625C0 42.3088 0.696187 40.6344 1.93875 39.3919L39.3919 1.93875ZM46.7944 13.2188L13.2188 46.7944V94.2056L46.7944 127.781H94.2056L127.781 94.2056V46.7944L94.2056 13.2188H46.7944ZM70.5 35.25C72.2529 35.25 73.934 35.9463 75.1735 37.1858C76.413 38.4253 77.1094 40.1065 77.1094 41.8594V72.7031C77.1094 74.456 76.413 76.1372 75.1735 77.3767C73.934 78.6162 72.2529 79.3125 70.5 79.3125C68.7471 79.3125 67.066 78.6162 65.8265 77.3767C64.587 76.1372 63.8906 74.456 63.8906 72.7031V41.8594C63.8906 40.1065 64.587 38.4253 65.8265 37.1858C67.066 35.9463 68.7471 35.25 70.5 35.25ZM70.5 105.75C68.1628 105.75 65.9213 104.822 64.2686 103.169C62.616 101.516 61.6875 99.2747 61.6875 96.9375C61.6875 94.6003 62.616 92.3588 64.2686 90.7061C65.9213 89.0535 68.1628 88.125 70.5 88.125C72.8372 88.125 75.0787 89.0535 76.7314 90.7061C78.384 92.3588 79.3125 94.6003 79.3125 96.9375C79.3125 99.2747 78.384 101.516 76.7314 103.169C75.0787 104.822 72.8372 105.75 70.5 105.75Z" fill="white"/>
</svg>
