<svg width="16" height="20" viewBox="0 0 16 20" fill="none" xmlns="http://www.w3.org/2000/svg">
<path d="M10.1 13.5L8 11.4L5.9 13.5L4.5 12.1L6.6 10L4.5 7.9L5.9 6.5L8 8.6L10.1 6.5L11.5 7.9L9.4 10L11.5 12.1L10.1 13.5ZM8 20C10.3167 19.4167 12.2293 18.0873 13.738 16.012C15.2467 13.9367 16.0007 11.6327 16 9.1V3L8 0L0 3V9.1C0 11.6333 0.753999 13.9377 2.262 16.013C3.77 18.0883 5.68267 19.4173 8 20ZM8 17.9C6.26667 17.35 4.83333 16.25 3.7 14.6C2.56667 12.95 2 11.1167 2 9.1V4.375L8 2.125L14 4.375V9.1C14 11.1167 13.4333 12.95 12.3 14.6C11.1667 16.25 9.73333 17.35 8 17.9Z" fill="#F24E1E"/>
</svg>
