<!DOCTYPE svg PUBLIC "-//W3C//DTD SVG 1.1//EN" "http://www.w3.org/Graphics/SVG/1.1/DTD/svg11.dtd">
<!-- Uploaded to: SVG Repo, www.svgrepo.com, Transformed by: SVG Repo Mixer Tools -->
<svg fill="#ffffff" version="1.1" id="Capa_1" xmlns="http://www.w3.org/2000/svg" xmlns:xlink="http://www.w3.org/1999/xlink" width="800px" height="800px" viewBox="0 0 95.098 95.098" xml:space="preserve" stroke="#ffffff">
<g id="SVGRepo_bgCarrier" stroke-width="0"/>
<g id="SVGRepo_tracerCarrier" stroke-linecap="round" stroke-linejoin="round"/>
<g id="SVGRepo_iconCarrier"> <g> <g> <path d="M0,2.137v90.824c0,1.178,0.959,2.137,2.137,2.137h90.824c1.178,0,2.137-0.959,2.137-2.137V2.137 C95.098,0.959,94.139,0,92.961,0H2.137C0.959,0,0,0.959,0,2.137z M86.1,8.998V86.1H8.998V8.998H86.1z"/> <path d="M65.484,73.963v-52.83c0-0.445-0.332-0.846-0.852-1.015c-0.514-0.171-1.105-0.077-1.5,0.237L30.018,46.772 c-0.269,0.215-0.404,0.496-0.404,0.776s0.136,0.562,0.404,0.776L63.133,74.74c0.395,0.313,0.986,0.41,1.5,0.238 C65.152,74.809,65.484,74.408,65.484,73.963z"/> </g> </g> </g>
</svg>