<svg width="47" height="49" viewBox="0 0 47 49" fill="none" xmlns="http://www.w3.org/2000/svg">
<path fill-rule="evenodd" clip-rule="evenodd" d="M25.5 11.8906C25.5 11.0622 24.8284 10.3906 24 10.3906C23.1716 10.3906 22.5 11.0622 22.5 11.8906V15.8906C22.5 16.7191 23.1716 17.3906 24 17.3906C24.8284 17.3906 25.5 16.7191 25.5 15.8906V11.8906ZM15.8683 14.6376C15.2825 14.0518 14.3327 14.0518 13.747 14.6376C13.1612 15.2234 13.1612 16.1731 13.747 16.7589L16.5754 19.5873C17.1612 20.1731 18.1109 20.1731 18.6967 19.5873C19.2825 19.0015 19.2825 18.0518 18.6967 17.466L15.8683 14.6376ZM34.2531 16.7589C34.8388 16.1731 34.8388 15.2234 34.2531 14.6376C33.6673 14.0518 32.7175 14.0518 32.1317 14.6376L29.3033 17.466C28.7175 18.0518 28.7175 19.0015 29.3033 19.5873C29.8891 20.1731 30.8388 20.1731 31.4246 19.5873L34.2531 16.7589ZM11 23.3906C10.1716 23.3906 9.5 24.0622 9.5 24.8906C9.5 25.7191 10.1716 26.3906 11 26.3906H15C15.8284 26.3906 16.5 25.7191 16.5 24.8906C16.5 24.0622 15.8284 23.3906 15 23.3906H11ZM33 23.3906C32.1716 23.3906 31.5 24.0622 31.5 24.8906C31.5 25.7191 32.1716 26.3906 33 26.3906H37C37.8284 26.3906 38.5 25.7191 38.5 24.8906C38.5 24.0622 37.8284 23.3906 37 23.3906H33ZM18.6967 32.3152C19.2825 31.7295 19.2825 30.7797 18.6967 30.1939C18.1109 29.6081 17.1612 29.6081 16.5754 30.1939L13.747 33.0224C13.1612 33.6081 13.1612 34.5579 13.747 35.1437C14.3327 35.7295 15.2825 35.7295 15.8683 35.1437L18.6967 32.3152ZM31.4246 30.1939C30.8388 29.6081 29.8891 29.6081 29.3033 30.1939C28.7175 30.7797 28.7175 31.7295 29.3033 32.3152L32.1317 35.1437C32.7175 35.7295 33.6673 35.7295 34.2531 35.1437C34.8388 34.5579 34.8388 33.6081 34.2531 33.0224L31.4246 30.1939ZM25.5 33.8906C25.5 33.0622 24.8284 32.3906 24 32.3906C23.1716 32.3906 22.5 33.0622 22.5 33.8906V37.8906C22.5 38.7191 23.1716 39.3906 24 39.3906C24.8284 39.3906 25.5 38.7191 25.5 37.8906V33.8906ZM27 24.8906C27 26.5475 25.6569 27.8906 24 27.8906C22.3431 27.8906 21 26.5475 21 24.8906C21 23.2338 22.3431 21.8906 24 21.8906C25.6569 21.8906 27 23.2338 27 24.8906ZM30 24.8906C30 28.2043 27.3137 30.8906 24 30.8906C20.6863 30.8906 18 28.2043 18 24.8906C18 21.5769 20.6863 18.8906 24 18.8906C27.3137 18.8906 30 21.5769 30 24.8906Z" fill="white"/>
</svg>
