<svg width="28" height="28" viewBox="0 0 28 28" fill="none" xmlns="http://www.w3.org/2000/svg">
<path d="M8 1H3C1.89543 1 1 1.89543 1 3V25C1 26.1046 1.89543 27 3 27H8C9.10456 27 10 26.1046 10 25V3C10 1.89543 9.10456 1 8 1Z" stroke="white" stroke-width="2" stroke-linecap="round" stroke-linejoin="round"/>
<path d="M25 1H20C18.8954 1 18 1.89543 18 3V25C18 26.1046 18.8954 27 20 27H25C26.1046 27 27 26.1046 27 25V3C27 1.89543 26.1046 1 25 1Z" stroke="white" stroke-width="2" stroke-linecap="round" stroke-linejoin="round"/>
</svg>
