<svg width="31" height="31" viewBox="0 0 31 31" fill="none" xmlns="http://www.w3.org/2000/svg">
<path d="M15.3195 8.4787C11.6458 8.4787 8.72565 11.3988 8.72565 15.0726C8.72565 18.7463 11.6458 21.6664 15.3195 21.6664C18.9932 21.6664 21.9134 18.7463 21.9134 15.0726C21.9134 11.3988 18.9932 8.4787 15.3195 8.4787ZM15.3195 19.7824C12.682 19.7824 10.6096 17.7101 10.6096 15.0726C10.6096 12.435 12.682 10.3627 15.3195 10.3627C17.957 10.3627 20.0294 12.435 20.0294 15.0726C20.0294 17.7101 17.957 19.7824 15.3195 19.7824Z" fill="white"/>
<path d="M29.1666 11.9631L26.5291 11.1154L25.9639 9.70238L27.2827 7.25324C27.5653 6.68805 27.4711 5.93447 27.0001 5.46348L24.7393 3.20273C24.2683 2.73174 23.5148 2.63754 22.9496 2.92013L20.5004 4.23891L19.0875 3.67372L18.2397 1.03618C18.0513 0.470989 17.4861 0 16.8267 0H13.624C12.9646 0 12.3994 0.470989 12.3052 1.13037L11.4574 3.76792C10.8922 3.86211 10.4213 4.05051 9.95027 4.3331L7.50112 3.01433C6.93593 2.73174 6.18235 2.82594 5.71136 3.29693L3.45061 5.55768C2.97962 6.02867 2.88543 6.78225 3.16802 7.34744L4.39259 9.70238C4.2042 10.1734 4.0158 10.7386 3.8274 11.2095L1.18986 12.0573C0.624676 12.2457 0.153687 12.8109 0.153687 13.4703V16.673C0.153687 17.3324 0.624676 17.8976 1.28406 18.086L3.9216 18.9338L4.48679 20.3467L3.16802 22.7959C2.88543 23.3611 2.97962 24.1147 3.45061 24.5857L5.71136 26.8464C6.18235 27.3174 6.93593 27.4116 7.50112 27.129L9.95027 25.8102L11.3632 26.3754L12.211 29.1072C12.3994 29.6723 12.9646 30.1433 13.624 30.1433H16.8267C17.4861 30.1433 18.0513 29.6723 18.2397 29.1072L19.0875 26.3754L20.5004 25.8102L22.9496 27.129C23.5148 27.4116 24.2683 27.3174 24.7393 26.8464L27.0001 24.5857C27.4711 24.1147 27.5653 23.3611 27.2827 22.7959L25.9639 20.3467L26.5291 18.9338L29.2608 18.086C29.826 17.8976 30.297 17.3324 30.297 16.673V13.4703C30.297 12.8109 29.826 12.1515 29.1666 11.9631ZM28.4131 16.3904L25.0219 17.4266L24.9277 17.8976L24.08 19.8758L23.7974 20.3467L25.4929 23.4553L23.609 25.3392L20.5004 23.6437L20.0294 23.9263C19.3701 24.3031 18.7107 24.5856 18.0513 24.774L17.5803 24.8682L16.5441 28.2594H13.9066L12.8704 24.8682L12.3994 24.774L10.4213 23.9263L9.95027 23.6437L6.84174 25.3392L4.95778 23.4553L6.65334 20.3467L6.37075 19.8758C5.99396 19.2164 5.71136 18.557 5.52297 17.8976L5.42877 17.4266L2.03764 16.3904V13.7529L5.24037 12.8109L5.42877 12.3399C5.61716 11.5863 5.89976 10.927 6.27655 10.2676L6.55914 9.79658L4.95778 6.68805L6.84174 4.80409L9.85607 6.49965L10.3271 6.21706C10.9864 5.84027 11.6458 5.55768 12.3994 5.36928L12.8704 5.18088L13.9066 1.88396H16.5441L17.5803 5.18088L18.0513 5.36928C18.7107 5.55768 19.3701 5.84027 20.0294 6.21706L20.5004 6.49965L23.609 4.80409L25.4929 6.68805L23.7974 9.79658L24.08 10.2676C24.4567 10.927 24.7393 11.5863 24.9277 12.2457L25.0219 12.7167L28.4131 13.7529V16.3904Z" fill="white"/>
</svg>
