<svg width="30" height="30" viewBox="0 0 30 30" fill="none" xmlns="http://www.w3.org/2000/svg">
<circle cx="15" cy="15" r="15" fill="white"/>
<path d="M15 0C6.72 0 0 6.72 0 15C0 23.28 6.72 30 15 30C23.28 30 30 23.28 30 15C30 6.72 23.28 0 15 0ZM15 23.88C10.095 23.88 6.12 19.905 6.12 15C6.12 10.095 10.095 6.12 15 6.12C19.905 6.12 23.88 10.095 23.88 15C23.88 19.905 19.905 23.88 15 23.88ZM15 7.215C10.71 7.215 7.215 10.71 7.215 15C7.215 19.29 10.71 22.785 15 22.785C19.29 22.785 22.785 19.29 22.785 15C22.785 10.71 19.29 7.215 15 7.215ZM12.105 19.425V10.575L19.77 15L12.105 19.425Z" fill="#FF0000"/>
</svg>
