<svg width="31" height="32" viewBox="0 0 31 32" fill="none" xmlns="http://www.w3.org/2000/svg">
<path d="M5.91257 30.26C8.3231 30.26 10.2772 28.2812 10.2772 25.84C10.2772 23.399 8.3231 21.4199 5.91257 21.4199C3.50205 21.4199 1.54793 23.399 1.54793 25.84C1.54793 28.2812 3.50205 30.26 5.91257 30.26Z" stroke="white" stroke-width="2" stroke-linecap="round" stroke-linejoin="round"/>
<path d="M25.5555 24.7385C27.9661 24.7385 29.9202 22.7597 29.9202 20.3185C29.9202 17.8774 27.9661 15.8984 25.5555 15.8984C23.1449 15.8984 21.1909 17.8774 21.1909 20.3185C21.1909 22.7597 23.1449 24.7385 25.5555 24.7385Z" stroke="white" stroke-width="2" stroke-linecap="round" stroke-linejoin="round"/>
<path d="M29.9175 20.3161V2.98945C29.9166 2.82036 29.8774 2.65375 29.8027 2.50244C29.7283 2.35113 29.6205 2.21915 29.4876 2.11668C29.3549 2.0142 29.2006 1.94396 29.0367 1.91136C28.8728 1.87876 28.7039 1.88467 28.5426 1.92863L11.0841 6.83491C10.8534 6.89783 10.6494 7.03567 10.5036 7.2273C10.3577 7.41896 10.2779 7.65377 10.2766 7.89573V25.8413" stroke="white" stroke-width="2" stroke-linecap="round" stroke-linejoin="round"/>
<path d="M10.2769 13.6834L29.9178 8.15836" stroke="white" stroke-width="2" stroke-linecap="round" stroke-linejoin="round"/>
</svg>
