<svg width="29" height="28" viewBox="0 0 29 28" fill="none" xmlns="http://www.w3.org/2000/svg">
<path d="M26.108 11.0684C26.4061 10.9441 26.5986 10.8889 26.7758 10.712C26.9528 10.535 27.0523 10.295 27.0523 10.0447C27.0523 9.79447 26.9528 9.55446 26.7758 9.3775C26.5986 9.20055 26.5388 9.09453 26.108 8.96816C25.6771 8.84178 4.72877 1.75995 4.72877 1.75995C4.39447 1.64558 4.03477 1.62722 3.69056 1.70694C3.34635 1.78667 3.03141 1.96129 2.78156 2.21095C2.53171 2.46061 2.35696 2.77531 2.27717 3.11926C2.19739 3.46322 2.21576 3.82264 2.33022 4.15669C2.33022 4.15669 9.57952 25.2518 9.66808 25.5386C9.75665 25.8254 9.8709 26.0288 10.048 26.2058C10.2251 26.3828 10.4653 26.4821 10.7157 26.4821C10.9662 26.4821 11.2063 26.3828 11.3834 26.2058C11.5605 26.0288 11.601 25.9285 11.7338 25.5386C11.8665 25.1487 15.4373 14.8571 15.4373 14.8571C15.4373 14.8571 25.81 11.1927 26.108 11.0684Z" stroke="white" stroke-width="3" stroke-linecap="round" stroke-linejoin="round"/>
</svg>
