<svg width="28" height="28" viewBox="0 0 28 28" fill="none" xmlns="http://www.w3.org/2000/svg">
<path d="M1 1V27" stroke="white" stroke-width="2" stroke-linecap="round" stroke-linejoin="round"/>
<path d="M26.9598 23.3183C26.9608 23.6781 26.8648 24.0315 26.6818 24.3413C26.4986 24.6511 26.2354 24.9057 25.9198 25.0783C25.6158 25.2539 25.271 25.3463 24.9198 25.3463C24.5688 25.3463 24.224 25.2539 23.9198 25.0783L9.53984 15.6784C9.25914 15.4971 9.02834 15.2483 8.86854 14.9549C8.70874 14.6614 8.625 14.3326 8.625 13.9984C8.625 13.6642 8.70874 13.3354 8.86854 13.0419C9.02834 12.7485 9.25914 12.4997 9.53984 12.3184L23.9598 2.99841C24.264 2.82287 24.6088 2.73047 24.9598 2.73047C25.311 2.73047 25.6558 2.82287 25.9598 2.99841C26.2756 3.17111 26.5386 3.42575 26.7218 3.73549C26.9048 4.04525 27.0008 4.39863 26.9998 4.75841L26.9598 23.3183Z" stroke="white" stroke-width="2" stroke-linecap="round" stroke-linejoin="round"/>
</svg>
