<svg width="19" height="19" viewBox="0 0 19 19" fill="none" xmlns="http://www.w3.org/2000/svg">
<path d="M15.2125 16.25C13.65 16.25 12.1062 15.9095 10.5812 15.2285C9.05625 14.5475 7.66875 13.5817 6.41875 12.3312C5.16875 11.0807 4.20325 9.69325 3.52225 8.16875C2.84125 6.64425 2.5005 5.1005 2.5 3.5375C2.5 3.3125 2.575 3.125 2.725 2.975C2.875 2.825 3.0625 2.75 3.2875 2.75H6.325C6.5 2.75 6.65625 2.8095 6.79375 2.9285C6.93125 3.0475 7.0125 3.188 7.0375 3.35L7.525 5.975C7.55 6.175 7.54375 6.34375 7.50625 6.48125C7.46875 6.61875 7.4 6.7375 7.3 6.8375L5.48125 8.675C5.73125 9.1375 6.028 9.58425 6.3715 10.0153C6.715 10.4463 7.09325 10.862 7.50625 11.2625C7.89375 11.65 8.3 12.0095 8.725 12.341C9.15 12.6725 9.6 12.9755 10.075 13.25L11.8375 11.4875C11.95 11.375 12.097 11.2907 12.2785 11.2347C12.46 11.1788 12.638 11.163 12.8125 11.1875L15.4 11.7125C15.575 11.7625 15.7188 11.8532 15.8312 11.9847C15.9437 12.1163 16 12.263 16 12.425V15.4625C16 15.6875 15.925 15.875 15.775 16.025C15.625 16.175 15.4375 16.25 15.2125 16.25Z" fill="white"/>
</svg>
