<svg width="30" height="30" viewBox="0 0 30 30" fill="none" xmlns="http://www.w3.org/2000/svg">
<path d="M15 0C6.71578 0 0 6.7159 0 15C0 23.2847 6.7159 30 15 30C23.2848 30 30 23.2847 30 15C30 6.71648 23.2848 0.000820313 14.9998 0.000820313L15 0ZM21.8788 21.6345C21.6101 22.0751 21.0333 22.2148 20.5927 21.9443C17.0708 19.7931 12.6374 19.3058 7.41609 20.4988C7.17431 20.5538 6.92056 20.5106 6.71064 20.3786C6.50073 20.2466 6.35184 20.0366 6.29672 19.7948C6.26927 19.6752 6.26569 19.5512 6.28618 19.4302C6.30668 19.3091 6.35084 19.1933 6.41615 19.0893C6.48145 18.9853 6.56662 18.8952 6.66678 18.8242C6.76694 18.7532 6.88012 18.7026 6.99984 18.6754C12.7139 17.3699 17.615 17.9319 21.5689 20.3483C22.0096 20.6188 22.1493 21.1938 21.8788 21.6345ZM23.7148 17.5501C23.3761 18.1003 22.6561 18.2741 22.1063 17.9355C18.0743 15.4573 11.9282 14.7395 7.15922 16.1871C6.5407 16.3739 5.8875 16.0254 5.69977 15.4079C5.51344 14.7894 5.86219 14.1374 6.47965 13.9494C11.9271 12.2964 18.6994 13.0971 23.3297 15.9424C23.8795 16.2811 24.0533 17.001 23.7148 17.5501ZM23.8724 13.297C19.0379 10.4255 11.0618 10.1613 6.44613 11.5624C5.70492 11.7872 4.92105 11.3687 4.69652 10.6275C4.47188 9.88594 4.88988 9.10266 5.63168 8.8773C10.9301 7.26879 19.7384 7.57969 25.3042 10.8839C25.9724 11.2795 26.1908 12.1406 25.795 12.8064C25.401 13.4732 24.5375 13.6929 23.8731 13.297H23.8724Z" fill="#1ED760"/>
</svg>
