<svg width="35" height="35" viewBox="0 0 35 35" fill="none" xmlns="http://www.w3.org/2000/svg">
<path d="M12.5 16.25C15.9518 16.25 18.75 13.4518 18.75 10C18.75 6.54822 15.9518 3.75 12.5 3.75C9.04822 3.75 6.25 6.54822 6.25 10C6.25 13.4518 9.04822 16.25 12.5 16.25Z" stroke="white" stroke-width="2" stroke-linecap="round" stroke-linejoin="round"/>
<path d="M1.25 33.7508H12.5H23.75V32.3955C23.7301 30.49 23.2276 28.6205 22.2893 26.962C21.3511 25.3033 20.0077 23.9095 18.3848 22.9108C16.7619 21.9121 14.9123 21.341 13.0088 21.2509C12.8391 21.2428 12.6695 21.2386 12.5 21.2383C12.3305 21.2386 12.1609 21.2428 11.9912 21.2509C10.0877 21.341 8.23812 21.9121 6.61518 22.9108C4.99225 23.9095 3.64892 25.3033 2.71068 26.962C1.77244 28.6205 1.2699 30.49 1.25 32.3955V33.7508Z" stroke="white" stroke-width="2" stroke-linecap="round" stroke-linejoin="round"/>
<path d="M22.5 16.25C25.9517 16.25 28.75 13.4518 28.75 10C28.75 6.54822 25.9517 3.75 22.5 3.75" stroke="white" stroke-width="2" stroke-linecap="round" stroke-linejoin="round"/>
<path d="M28.75 33.7499H33.75V32.3944C33.73 30.4889 33.2275 28.6194 32.2892 26.9609C31.351 25.3022 30.0077 23.9085 28.3847 22.9098C27.3357 22.2641 26.1918 21.7972 25 21.5234" stroke="white" stroke-width="2" stroke-linecap="round" stroke-linejoin="round"/>
</svg>
