<svg width="28" height="28" viewBox="0 0 28 28" fill="none" xmlns="http://www.w3.org/2000/svg">
<path d="M10 11C12.7614 11 15 8.76142 15 6C15 3.23858 12.7614 1 10 1C7.23858 1 5 3.23858 5 6C5 8.76142 7.23858 11 10 11Z" stroke="white" stroke-width="2" stroke-linecap="round" stroke-linejoin="round"/>
<path d="M13 24.9983H1V23.9141C1.01592 22.3897 1.41795 20.8941 2.16854 19.5673C2.91914 18.2403 3.9938 17.1253 5.29214 16.3263C6.5905 15.5273 8.07018 15.0705 9.59296 14.9984C11.1158 14.9263 12.632 15.2413 14 15.9141" stroke="white" stroke-width="2" stroke-linecap="round" stroke-linejoin="round"/>
<path d="M21 15V27" stroke="white" stroke-width="2" stroke-linecap="round" stroke-linejoin="round"/>
<path d="M15 21H27" stroke="white" stroke-width="2" stroke-linecap="round" stroke-linejoin="round"/>
</svg>
