<svg width="65" height="83" viewBox="0 0 65 83" fill="none" xmlns="http://www.w3.org/2000/svg">
<path d="M30.4798 5.43359H37.3223L44.9698 5.63484L48.3911 6.03734L50.2023 6.43984L50.0011 7.44609L47.9886 7.84859L45.7748 8.25109L45.5736 13.2823H37.9261L38.5298 14.4898L39.5361 15.4961L40.1398 16.3011L40.7436 16.5023V16.9048L41.9511 17.5086L42.1523 18.1123L43.7623 18.5148H46.3786L46.5798 17.9111H46.9823V16.5023L44.3661 16.0998L41.5486 15.8986V15.4961L42.7561 15.2948L47.7873 15.0936L54.0261 14.4898L55.0323 14.6911L56.0386 18.5148L56.4411 22.5398L56.6423 23.1436L57.4473 23.3448V22.7411L58.2523 22.9423L58.4536 23.1436L59.2586 29.5836L59.4598 32.4011L60.0636 32.6023L60.2648 31.7973L61.0698 38.4386L62.6798 49.7086L62.8811 50.3123L63.4848 55.3436L63.8873 57.3561L64.0886 60.1736V74.8648L63.6861 80.0973L63.0823 81.1036L62.0761 81.5061L59.6611 81.7073L57.6486 82.1098L52.2148 82.5123H13.5748L7.53732 82.1098L2.50607 81.5061L1.90232 80.9023L1.09732 76.4748L0.694824 69.6323V61.1798L0.896074 58.9661L1.29857 56.7523L2.90857 46.6898L3.31107 46.8911L4.11607 41.6586L4.51857 40.6523L4.92107 37.4323L5.52482 34.8161L5.72607 34.0111H6.53107L7.53732 36.0236L8.14107 35.6211L7.93982 34.4136L7.33607 33.2061L7.13482 30.7911L6.53107 28.7786V25.7598L6.93357 23.9486H7.33607V23.5461H7.73857L7.93982 22.9423H8.94607L9.14732 22.1373L10.1536 21.7348L10.5561 20.5273L10.7573 16.3011L11.1598 15.2948L12.1661 15.0936L17.5998 15.2948L18.4048 15.6973L17.8011 16.0998L15.7886 16.3011V18.7161L14.9836 19.3198L13.9773 19.5211L14.1786 20.5273L15.5873 19.9236L18.2036 19.5211H21.8261L22.6311 20.3261V21.9361L22.2286 22.3386L15.3861 22.9423L14.9836 23.1436L15.1848 23.7473L15.9898 23.5461L17.5998 24.9548L18.4048 25.7598V26.3636H18.8073L19.2098 26.9673H19.6123L19.0086 25.7598L18.4048 25.3573L18.6061 24.5523H20.4173L20.6186 24.3511L23.8386 24.5523L25.4486 25.1561L26.4548 26.3636L37.1211 26.5648L37.5236 25.7598L38.1273 25.1561L40.3411 24.3511L43.5611 24.5523L43.9636 25.1561V26.1623H44.3661V26.5648L45.1711 26.1623L45.5736 24.9548L46.3786 23.9486L50.2023 23.7473L50.0011 23.3448H47.3848L46.1773 22.9423L42.5548 22.7411L41.1461 21.9361L40.3411 21.3323L40.5423 20.7286L41.9511 20.1248L42.1523 19.7223L41.5486 19.5211L40.3411 18.1123L39.5361 17.1061L38.3286 15.8986L37.9261 15.6973L37.5236 14.2886L36.7186 13.4836L36.5173 12.4773L35.7123 12.0748L34.7061 10.8673L33.0961 9.45859L31.0836 7.64734L29.2723 6.23859L28.0648 5.83609V5.63484L30.4798 5.43359Z" fill="#474749"/>
<path d="M14.7824 45.2812H24.0399L50.2024 45.4825L50.8061 46.4887L51.0074 46.8913L51.4099 51.3187L51.6111 56.7525L52.0136 57.3562V58.3625L53.2211 57.3562L55.4349 52.9288H55.8374V54.9412L55.2336 56.7525V57.155L55.6361 56.9537L55.4349 57.7587L54.2274 59.57L53.2211 60.5763H52.8186L52.4161 61.7838L53.4224 61.5825V61.985L52.8186 62.3875L52.4161 63.595L52.6174 67.2175L53.0199 70.4375V73.0538L52.4161 75.0662L51.4099 76.475L51.2086 77.4813L52.2149 77.6825L54.4286 78.89L56.4411 80.2988V81.9087L52.2149 82.5125H13.5749L9.95236 82.3112L8.34236 81.9087L8.14111 80.0975L8.94611 79.4938L10.5561 79.0913L11.5624 77.8838H13.5749L12.7699 76.2738L11.9649 73.8587L11.5624 72.0475L11.7636 69.23L11.9649 65.0037L11.5624 62.9913L10.7574 61.18L10.3549 59.9725H10.9586L10.3549 58.1613L9.54986 57.155L8.74486 54.3375V53.3313L11.3611 55.9475L12.5686 56.35L12.7699 55.7463L12.9711 51.3187L13.1724 49.5075L13.9774 46.2875L14.3799 45.4825L14.7824 45.2812Z" fill="#919090"/>
<path d="M26.6561 0H41.1461L45.7749 0.4025L48.9949 1.2075L50.8061 2.0125L52.0136 2.8175L53.6236 5.2325L54.4286 7.245L55.6361 10.0625L57.0449 13.4838L58.0511 16.1L58.6549 18.3137L59.2586 19.7225H58.8561L59.0574 21.9363L59.2586 22.1375L59.6611 26.3638L60.0636 29.3825V32.6025L59.2586 32.4012L58.8561 27.7725L58.2524 23.1438L57.4474 22.7413V23.345L56.4411 23.1438L55.6361 17.9113L54.8311 14.6912L49.1961 15.0938L47.7874 15.295L41.5486 15.4963V15.8988H44.3661L46.9824 16.5025V17.9113H46.5799L46.3786 18.7162H43.7624L42.1524 18.3137L41.9511 17.5088L40.7436 16.905V16.5025L39.9386 16.3013L39.3349 15.4963V15.0938L38.5299 14.6912L37.9261 13.8863V13.2825H45.5736V8.25125L46.5799 7.84875L49.5986 7.44625L50.2024 6.44L48.3911 6.23875L44.9699 5.83625L37.3224 5.635H30.4799L28.6686 5.83625L30.0774 6.64125L32.0899 8.4525L33.6999 9.86125L35.5111 11.4713L36.7186 12.88L36.9199 13.8863L37.7249 14.2887L37.9261 15.6975L38.9324 16.1L39.1336 16.905L39.9386 17.3075L40.9449 18.7162L42.1524 19.7225L41.7499 20.5275L40.5424 20.93L40.3411 21.3325L41.1461 21.735L42.5549 22.54L46.1774 22.7413L47.3849 23.1438H50.0011L50.2024 23.7475L49.1961 23.9487L46.3786 24.15L45.5736 25.1562L45.1711 26.3638L44.3661 26.565V26.1625H43.9636L43.5611 24.5525H40.3411L38.1274 25.3575H37.7249L37.3224 26.1625L36.7186 26.7663L26.4549 26.565L26.2536 25.9613L25.4486 25.5588V25.1562L24.2411 24.955L22.2286 24.5525H20.6186L20.4174 24.7537L18.6061 24.5525V25.3575L19.6124 26.3638V26.9675L19.0086 27.1688L18.8074 26.3638H18.4049L17.8011 25.3575L16.3924 23.9487L15.7886 23.7475H14.9836V22.9425L16.9961 22.54L22.2286 22.1375L22.4299 21.9363V20.3263L22.2286 19.7225H18.2036L15.5874 20.125L14.7824 20.5275H14.1786L13.7761 19.5212L14.1786 19.1187L15.1849 18.9175L15.7886 18.7162V16.3013L18.2036 15.6975L17.5999 15.4963L12.1661 15.295H11.1599L10.9586 16.3013L10.7574 20.5275L10.1536 21.9363L9.14736 22.1375L8.94611 23.1438L7.93986 22.9425L7.73861 23.7475L7.33611 23.5462V23.9487H6.93361L6.73236 25.76V28.7787L7.33611 30.7913L7.53736 33.2062L8.34236 35.0175L8.14111 35.8225H7.73861L7.53736 36.225L6.53111 34.4137V34.0112H5.72611L5.52486 35.2188L4.92111 38.2375L4.71986 40.6525L4.11611 42.665L3.31111 47.6963H3.10986V45.885L3.91486 40.8538L4.51861 36.4263L4.92111 34.2125L5.12236 29.1812L5.32361 27.5713H5.52486V30.9925L6.12861 27.1688L6.73236 23.1438L7.53736 19.9237L7.93986 15.0938L8.54361 14.0875L9.95236 11.0688L11.3611 7.04375L12.9711 4.025L14.3799 2.415L15.7886 1.61L18.8074 0.805L24.0399 0.20125L26.6561 0Z" fill="#5F7C9A"/>
<path d="M30.4798 5.43359H37.3223L44.9698 5.63484L48.3911 6.03734L50.2023 6.43984L50.0011 7.44609L47.9886 7.84859L45.7748 8.25109L45.5736 13.2823H37.9261L38.5298 14.4898L39.5361 15.4961L40.1398 16.3011L40.7436 16.5023V16.9048L41.9511 17.5086L42.1523 18.1123L43.7623 18.5148H46.3786L46.5798 17.9111H46.9823V16.5023L44.3661 16.0998L41.5486 15.8986V15.4961L42.7561 15.2948L47.7873 15.0936L54.0261 14.4898L55.0323 14.6911L56.0386 18.5148L56.4411 22.5398L56.6423 23.5461H57.2461L57.4473 24.5523L56.8436 24.7536H55.4348L55.2336 24.9548L55.4348 26.7661L56.0386 28.5773L56.8436 29.7848L57.4473 30.7911V35.2186L56.8436 36.2248L56.4411 36.4261L56.0386 39.0423L54.2273 38.4386L53.8248 37.0298L53.6236 35.4198H52.4161L52.6173 36.6273L52.2148 36.4261V36.0236L49.7998 35.8223L40.7436 36.0236L40.3411 36.4261L41.5486 37.0298L41.9511 37.6336V38.6398L40.7436 39.0423L39.3348 38.6398L37.7248 38.4386L37.1211 37.2311L36.1148 35.4198L35.7123 34.0111H34.5048L34.1023 36.2248L30.6811 35.6211L30.0773 33.0048L28.8698 32.6023L28.6686 33.6086L27.4611 36.4261L26.6561 36.6273L26.0523 36.0236H17.3986L14.3798 36.4261L13.7761 37.0298L16.1911 36.8286H20.2161L22.2286 37.0298L22.6311 37.8348L22.4298 38.2373H23.8386V38.8411L22.4298 39.0423L22.2286 38.6398H17.8011L15.9898 38.8411L15.7886 39.2436H15.1848L14.9836 39.8473L14.3798 40.0486V39.6461L13.1723 40.2498H10.3548L10.5561 39.4448L11.7636 39.0423H12.3673L12.5686 38.0361L12.3673 36.8286H11.9648L10.9586 35.8223L9.75109 34.8161L8.74484 33.8098L8.34234 32.8036L8.74484 32.1998L8.94609 30.5898H9.54984L9.75109 27.9736L9.95234 26.5648V24.7536L9.34859 23.9486V23.5461L8.74484 23.7473L8.54359 24.5523V25.3573H8.14109L7.93984 26.7661L7.73859 25.9611L6.93359 26.1623V23.9486H7.33609V23.5461H7.73859L7.93984 22.9423H8.94609L9.14734 22.1373L10.1536 21.7348L10.5561 20.5273L10.7573 16.3011L11.1598 15.2948L12.1661 15.0936L17.5998 15.2948L18.4048 15.6973L17.8011 16.0998L15.7886 16.3011V18.7161L14.9836 19.3198L13.9773 19.5211L14.1786 20.5273L15.5873 19.9236L18.2036 19.5211H21.8261L22.6311 20.3261V21.9361L22.2286 22.3386L15.3861 22.9423L14.9836 23.1436L15.1848 23.7473L15.9898 23.5461L17.5998 24.9548L18.4048 25.7598V26.3636H18.8073L19.2098 26.9673H19.6123L19.0086 25.7598L18.4048 25.3573L18.6061 24.5523H20.4173L20.6186 24.3511L23.8386 24.5523L25.4486 25.1561L26.4548 26.3636L37.1211 26.5648L37.5236 25.7598L38.1273 25.1561L40.3411 24.3511L43.5611 24.5523L43.9636 25.1561V26.1623H44.3661V26.5648L45.1711 26.1623L45.5736 24.9548L46.3786 23.9486L50.2023 23.7473L50.0011 23.3448H47.3848L46.1773 22.9423L42.5548 22.7411L41.1461 21.9361L40.3411 21.3323L40.5423 20.7286L41.9511 20.1248L42.1523 19.7223L41.5486 19.5211L40.3411 18.1123L39.5361 17.1061L38.3286 15.8986L37.9261 15.6973L37.5236 14.2886L36.7186 13.4836L36.5173 12.4773L35.7123 12.0748L34.7061 10.8673L33.0961 9.45859L31.0836 7.64734L29.2723 6.23859L28.0648 5.83609V5.63484L30.4798 5.43359Z" fill="#282F38"/>
<path d="M6.32982 38.2383L7.13482 38.6408L7.33607 43.8733L8.14107 48.0995L8.34232 48.7033V42.062L8.54357 40.6533L9.34857 39.8483L9.14732 40.8545L8.94607 41.6595V42.062L9.54982 42.2633V42.6658L11.5623 43.4708L20.8198 43.672H33.0961L34.3036 43.2695H35.9136L37.7248 43.8733H42.3536L44.5673 44.0745H50.4036L52.2148 44.477L53.2211 45.0808L53.8248 46.4895L54.4286 48.9045V51.5208L54.6298 52.527H56.0386L56.6423 53.9358L57.0448 56.3508L56.6423 59.1683L56.8436 59.772V61.1808L57.2461 63.9983V67.2183L56.8436 71.4445L56.6423 72.0483V73.457H58.6548L59.6611 74.0608L60.0636 75.4695V77.2808L59.4598 80.5008L58.2523 81.9095L57.6486 82.1108H55.6361L56.4411 81.9095V80.2995L55.6361 79.897L52.8186 78.0858L51.4098 77.8845L51.0073 77.0795L52.0136 75.2683L52.6173 73.8595L52.8186 73.0545V70.4383L52.2148 64.602L52.4161 62.992L53.0198 61.9858H52.8186L52.0136 61.7845H52.4161L52.6173 60.9795L53.6236 59.9733L55.0323 58.162L55.4348 57.1558L54.8311 57.5583L55.0323 56.7533L55.6361 54.942L55.8373 52.9295L55.4348 53.1308L53.8248 56.7533L52.8186 57.7595L51.8123 58.5645V57.357L51.4098 56.7533L51.2086 50.5145L50.8061 46.892L50.2023 45.6845L24.0398 45.4833H14.7823L14.3798 45.6845L13.9773 46.6908L13.5748 49.1058L13.3736 49.5083L13.1723 52.7283L12.9711 56.1495L12.1661 56.552L10.9586 55.747L9.34857 54.137L8.94607 53.5333L9.14732 55.1433L9.75107 57.5583L10.3548 57.7595L10.9586 59.1683V59.9733H10.3548L11.1598 61.382L11.7636 62.992L12.1661 65.0045L11.9648 69.2308L11.7636 72.0483L12.3673 74.4633L13.1723 76.4758L13.5748 77.2808V77.8845L11.5623 78.0858L10.5561 79.2933L8.74482 79.6958L8.34232 80.0983V81.1045L8.74482 82.1108L6.12857 81.9095L2.50607 81.507L1.90232 80.9033L1.09732 76.4758L0.694824 69.6333V61.1808L0.896074 58.967L1.29857 56.7533L1.70107 56.552L2.50607 52.527L3.51232 48.9045L4.11607 44.8795L4.51857 43.4708H4.92107V41.0558L5.32357 39.4458L6.32982 38.2383Z" fill="#5C4A4D"/>
<path d="M14.7823 45.2812H24.0398L50.2023 45.4825L50.8061 46.4887L51.0073 46.8913L51.4098 51.3187L51.6111 56.7525L52.0136 57.3562V58.3625L53.0198 57.5575L52.6173 58.3625L52.2148 58.765L48.5923 59.7712L45.9761 59.9725L41.9511 60.375L37.5236 60.1737L34.7061 59.7712H32.6936L25.2473 58.9663L21.2223 58.3625L18.2036 57.5575L16.1911 56.7525V56.35L15.1848 56.1488L14.7823 55.9475L14.3798 56.9537L13.7761 57.3562L12.5686 57.155L11.3611 56.35L11.7636 56.1488L12.5686 56.35L12.7698 55.7463L12.9711 51.3187L13.1723 49.5075L13.9773 46.2875L14.3798 45.4825L14.7823 45.2812Z" fill="#919090"/>
<path d="M28.4674 6.03906L29.4736 6.24031L31.6874 8.05156L34.1024 10.2653L35.5111 11.4728L36.7186 12.8816L36.9199 13.8878L37.7249 14.2903L37.9261 15.6991L38.9324 16.1016L39.1336 16.9066L39.9386 17.3091L40.9449 18.7178L42.1524 19.7241L41.7499 20.5291L40.5424 20.9316L40.3411 21.3341L41.1461 21.7366L42.5549 22.5416L46.1774 22.7428L47.3849 23.1453H50.0011L50.2024 23.7491L49.1961 23.9503L46.3786 24.1516L45.5736 25.1578L45.1711 26.3653L44.3661 26.5666V26.1641H43.9636L43.5611 24.5541H40.3411L38.1274 25.3591H37.7249L37.3224 26.1641L36.7186 26.7678L26.4549 26.5666L26.2536 25.9628L25.4486 25.5603V25.1578L24.2411 24.9566L22.2286 24.5541H20.6186L20.4174 24.7553L18.6061 24.5541V25.3591L19.6124 26.3653V26.9691L19.0086 27.1703L18.8074 26.3653H18.4049L17.8011 25.3591L16.3924 23.9503L15.7886 23.7491H14.9836V22.9441L16.9961 22.5416L22.2286 22.1391L22.4299 21.9378V20.3278L22.2286 19.7241H18.2036L15.5874 20.1266L14.7824 20.5291H14.1786L13.7761 19.5228L14.1786 19.1203L15.1849 18.9191L15.7886 18.7178V16.3028L18.2036 15.6991L17.5999 15.4978L12.1661 15.2966H11.1599L10.9586 16.3028L10.7574 20.5291L10.1536 21.9378L9.14736 22.1391L8.94611 23.1453L7.93986 22.9441L7.73861 23.7491L7.33611 23.5478V23.9503H6.93361L6.73236 25.7616V28.7803L7.33611 30.7928L7.53736 33.2078L8.34236 35.0191L8.14111 35.8241H7.73861L7.53736 36.2266L6.53111 34.4153V34.0128H5.72611L5.52486 35.2203L4.92111 38.2391L4.71986 40.6541L4.11611 42.6666L3.31111 47.6978H3.10986V45.8866L3.91486 40.8553L4.51861 36.4278L4.92111 34.2141L5.12236 29.1828L5.32361 27.5728H5.52486V30.9941L6.12861 27.1703L6.73236 23.1453L7.53736 19.9253L7.93986 15.0953L8.34236 14.8941V15.6991L8.94611 14.6928L9.95236 12.0766L10.5561 10.8691H10.9586L11.3611 9.86281L12.3674 8.05156L13.9774 7.24656L14.1786 7.64906H19.0086L20.0149 8.05156V12.8816L19.8136 13.2841L35.9136 13.0828L34.5049 11.4728L34.1024 11.2716V10.8691H33.6999V10.4666L32.6936 10.0641L32.2911 9.25906L30.6811 8.05156L29.8761 7.64906V7.24656H29.2724V6.84406L28.4674 6.44156V6.03906Z" fill="#8B8A8B"/>
<path d="M12.1661 15.0938L17.5998 15.295L18.4048 15.6975L17.8011 16.1L15.7886 16.3012V18.7162L14.9836 19.32L13.9773 19.5213L14.1786 20.5275L15.5873 19.9237L18.2036 19.5213H21.8261L22.6311 20.3263V21.9363L22.2286 22.3387L15.3861 22.9425L14.9836 23.1438L15.1848 23.7475L15.9898 23.5463L17.5998 24.955L18.4048 25.76V26.3638H18.8073L19.2098 26.9675H19.6123L19.0086 25.76L18.4048 25.3575L18.6061 24.5525H20.4173L20.6186 24.3512L23.8386 24.5525L25.4486 25.1562L26.4548 26.3638L36.9198 26.565L36.5173 27.9738L36.1148 29.9862V32.4013L35.9136 34.0112H34.5048L34.1023 36.225L30.6811 35.6213L30.0773 33.005L28.8698 32.6025L28.6686 33.6087L27.4611 36.4263L26.6561 36.6275L26.0523 36.0238H17.3986L14.3798 36.4263L13.7761 37.03L16.1911 36.8288H20.2161L22.2286 37.03L22.6311 37.835L22.4298 38.2375H23.8386V38.8412L22.4298 39.0425L22.2286 38.64H17.8011L15.9898 38.8412L15.7886 39.2437H15.1848L14.9836 39.8475L14.3798 40.0487V39.6462L13.1723 40.25H10.3548L10.5561 39.445L11.7636 39.0425H12.3673L12.5686 38.0363L12.3673 36.8288H11.9648L10.9586 35.8225L9.75109 34.8162L8.74484 33.81L8.34234 32.8038L8.74484 32.2L8.94609 30.59H9.54984L9.75109 27.9738L9.95234 26.565V24.7537L9.34859 23.9488V23.5463L8.74484 23.7475L8.54359 24.5525V25.3575H8.14109L7.93984 26.7662L7.73859 25.9613L6.93359 26.1625V23.9488H7.33609V23.5463H7.73859L7.93984 22.9425H8.94609L9.14734 22.1375L10.1536 21.735L10.5561 20.5275L10.7573 16.3012L11.1598 15.295L12.1661 15.0938Z" fill="#282F38"/>
<path d="M53.2211 61.582L53.4224 61.9845L52.8186 62.387L52.4161 63.5945L52.6174 67.217L53.0199 70.437V73.0533L52.4161 75.0658L51.4099 76.4745L51.2086 77.4808L52.2149 77.682L54.4286 78.8895L56.4411 80.2983V81.9083L52.2149 82.512H13.5749L9.95236 82.3108L8.34236 81.9083L8.14111 80.097L8.94611 79.4933L10.5561 79.0908L11.5624 77.8833H13.5749L12.7699 76.2733L11.9649 73.8583L11.5624 72.047L11.7636 69.2295L11.9649 65.0033L11.5624 62.9908L11.3611 62.1858L13.5749 63.5945L14.9836 64.3995V64.802H15.3861V65.2045H15.7886L15.9899 68.4245L16.1911 69.2295L15.3861 74.6633L15.7886 76.4745L16.9961 77.4808L19.6124 78.0845L22.6311 78.2858L29.0711 78.487H41.1461L45.5736 78.0845L47.7874 77.0783L48.3911 76.4745L48.7936 75.4683L48.5924 72.852L47.9886 70.2358V68.2233L48.5924 64.802L48.9949 63.7958L52.0136 62.387H52.4161V61.9845L53.2211 61.582Z" fill="#7E7C7C"/>
<path d="M30.4799 5.43359H37.3224L44.9699 5.63484L48.3912 6.03734L50.2024 6.43984L50.0012 7.44609L47.9887 7.84859L45.7749 8.25109L45.5737 13.2823H37.9262L38.5299 14.4898L39.5362 15.4961L40.1399 16.3011L40.7437 16.5023V16.9048L41.9512 17.5086L42.1524 18.1123L43.7624 18.5148H46.3787L46.5799 17.9111H46.9824V16.5023L44.3662 16.0998L41.5487 15.8986V15.4961L42.7562 15.2948L47.7874 15.0936L54.0262 14.4898L55.0324 14.6911L56.0387 18.5148L56.4412 22.5398L56.6424 23.3448L55.8374 22.9423L55.6362 21.9361L54.4287 21.7348L51.6112 22.1373L50.6049 22.9423L50.8062 23.5461L51.2087 23.9486L51.0074 24.3511H46.5799H45.9762L46.3787 23.9486L50.2024 23.7473L50.0012 23.3448H47.3849L46.1774 22.9423L42.5549 22.7411L41.1462 21.9361L40.3412 21.3323L40.5424 20.7286L41.9512 20.1248L42.1524 19.7223L41.5487 19.5211L40.3412 18.1123L39.5362 17.1061L38.3287 15.8986L37.9262 15.6973L37.5237 14.2886L36.7187 13.4836L36.5174 12.4773L35.7124 12.0748L34.7062 10.8673L33.0962 9.45859L31.0837 7.64734L29.2724 6.23859L28.0649 5.83609V5.63484L30.4799 5.43359Z" fill="#363739"/>
<path d="M10.556 14.6914H13.776L22.631 14.8927L27.8635 15.4964L28.0648 15.8989L26.2535 16.1002L19.6123 16.3014L16.996 16.5027L16.191 16.7039L15.9898 18.1127H16.3923L16.191 18.9177L15.386 19.5214H14.1785L14.3798 19.9239L15.386 19.7227L15.5873 19.5214L23.6373 18.7164L27.0585 19.9239L28.6685 20.3264L39.536 20.5277L40.5423 19.5214L40.1398 19.1189L37.926 18.7164L37.5235 18.1127L37.7248 17.7102L39.9385 17.3077L40.9448 18.7164L42.1523 19.7227L41.7498 20.5277L40.5423 20.9302L40.341 21.3327L41.146 21.7352L42.5548 22.5402L46.1773 22.7414L47.3848 23.1439H50.001L50.2023 23.7477L49.196 23.9489L46.3785 24.1502L45.5735 25.1564L45.171 26.3639L44.366 26.5652V26.1627H43.9635L43.561 24.5527H40.341L38.1273 25.3577H37.7248L37.3223 26.1627L36.7185 26.7664L26.4548 26.5652L26.2535 25.9614L25.4485 25.5589V25.1564L24.241 24.9552L22.2285 24.5527H20.6185L20.4173 24.7539L18.606 24.5527V25.3577L19.6123 26.3639V26.9677L19.0085 27.1689L18.8073 26.3639H18.4048L17.801 25.3577L16.3923 23.9489L15.7885 23.7477H14.9835V22.9427L16.996 22.5402L22.2285 22.1377L22.4298 21.9364V20.3264L22.2285 19.7227H18.2035L15.5873 20.1252L14.7823 20.5277H14.1785L13.776 19.5214L14.1785 19.1189L15.1848 18.9177L15.7885 18.7164V16.3014L18.2035 15.6977L17.5998 15.4964L12.166 15.2952H11.1598L10.9585 16.3014L10.7573 20.5277L10.1535 21.9364L9.14727 22.1377L8.94602 23.1439L7.93977 22.9427L7.73852 23.7477L7.33602 23.5464L7.13477 23.9489L7.33602 22.7414L7.93977 21.7352L8.74477 21.5339L9.14727 17.5089L9.75102 16.1002H10.1535V14.8927L10.556 14.6914Z" fill="#676465"/>
<path d="M8.74487 53.332L11.9649 56.552L12.9711 57.1558L14.3799 56.9545L14.7824 55.9483L16.1911 56.3508V56.7533L18.0024 57.1558L19.8136 57.7595L22.6311 58.3633L28.6686 59.1683L33.0961 59.5708H35.3099L38.1274 59.9733L42.1524 60.1745L46.1774 59.772L48.5924 59.5708L52.2149 58.5645L53.6236 56.7533L55.2336 53.5333H55.4349L55.2336 55.747L54.0261 58.162L52.0136 60.1745L49.7999 61.1808L46.9824 61.9858L40.7436 62.5895L36.5174 62.7908L35.9136 62.992H30.6811L30.2786 63.1933H29.0711L27.8636 62.7908L19.4111 62.5895L15.9899 61.9858L13.5749 61.1808L12.3674 60.3758L11.3611 59.5708L10.1536 57.7595L9.54987 57.1558L8.74487 54.3383V53.332Z" fill="#A3878A"/>
<path d="M48.391 7.84766H52.2148L53.4223 8.65266L55.2335 11.8727L56.0385 14.2877L55.636 15.0927L55.8373 15.8977L56.8435 16.0989L57.6485 17.3064V17.7089H58.051L58.6548 20.5264L59.2585 22.1364L59.661 26.3627L60.0635 29.3814V32.6014L59.2585 32.4002L58.856 27.7714L58.2523 23.1427L57.4473 22.7402V23.3439L56.441 23.1427L55.636 17.9102L54.831 14.6902L49.196 15.0927L47.7873 15.2939L41.5485 15.4952V15.8977H44.366L46.9823 16.5014V17.9102H46.5798L46.3785 18.7152H43.7623L42.1523 18.3127L41.951 17.5077L40.7435 16.9039V16.5014L39.9385 16.3002L39.3348 15.4952V15.0927L38.5298 14.6902L37.926 13.8852V13.2814H45.5735V8.25016L45.7748 8.04891L48.391 7.84766Z" fill="#6E8FB2"/>
<path d="M26.6562 0H41.1462L45.7749 0.4025L48.9949 1.2075L50.8062 2.0125L52.0137 2.8175L53.6237 5.2325L54.0262 6.23875L53.8249 7.04375L52.2149 5.03125L51.8124 4.62875L50.4037 4.22625L47.5862 4.025L46.1774 3.6225H42.9574L41.5487 3.82375H37.3224L32.6937 3.6225L29.4737 3.42125L25.4487 3.6225L24.4424 3.22L24.2412 2.8175L22.0274 2.415L19.8137 2.61625L17.8012 3.01875L15.3862 3.22L13.9774 4.83L13.1724 6.0375H12.5687H12.1662V6.64125H11.7637L12.1662 5.43375L13.3737 3.6225L14.3799 2.415L15.7887 1.61L18.8074 0.805L24.0399 0.20125L26.6562 0Z" fill="#466D92"/>
<path d="M21.6247 5.63672H27.8635V6.03922L28.6685 6.44172L29.2722 6.84422V7.24672H29.876L30.0772 7.64922L31.486 8.45422L32.6935 9.46047V10.0642L33.6997 10.4667V10.8692H34.1022V11.2717L34.9072 11.6742L35.9135 12.6805V13.083L35.1085 13.2842H19.8135V8.05172L19.0085 7.85047H14.7822L14.1785 7.64922L14.3797 7.04547L18.2035 6.03922L21.6247 5.63672Z" fill="#373739"/>
<path d="M55.4347 52.9297H55.8372V54.9422L55.2335 56.7534V57.1559L55.636 56.9547L55.4347 57.7597L54.2272 59.5709L53.221 60.5772H52.8185L52.416 62.3884L50.4035 63.3947L46.5797 64.1997L40.7435 64.6022H22.4297L16.996 65.4072L15.386 65.2059V64.8034H14.9835V64.4009L13.9772 63.9984L11.7635 62.5897L11.1597 62.1872L10.556 60.7784L10.3547 59.9734H10.9585L10.7572 58.7659L12.166 59.9734L13.1722 60.7784L15.386 61.5834L17.801 62.1872L19.411 62.3884L27.8635 62.5897L29.071 62.9922H30.2785L30.681 62.7909H35.9135L36.5172 62.5897L43.3597 62.1872L46.9822 61.7847L50.806 60.5772L52.416 59.5709L54.026 57.9609L55.0322 55.7472L55.2335 53.5334L55.4347 52.9297Z" fill="#A28689"/>
<path d="M54.0261 14.4883L55.0323 14.6895L56.0386 18.5133L56.4411 22.5383L56.6423 23.3433L55.8373 22.9408L55.6361 21.9345L54.4286 21.7333L51.6111 22.1358L50.6048 22.9408L50.8061 23.5445L51.2086 23.947L51.0073 24.3495H46.5798H45.9761L46.3786 23.947L50.2023 23.7458L50.0011 23.3433H47.3848L46.1773 22.9408L42.5548 22.7395L41.1461 21.9345L40.3411 21.3308L40.5423 20.727L41.9511 20.1233L42.1523 19.7208L41.7498 19.5195L42.5548 19.7208L43.5611 20.9283L44.9698 21.532L45.5736 21.9345H45.9761L45.1711 20.5258L44.1648 19.7208L43.1586 19.5195L42.1523 19.117L41.7498 18.312V17.7083L40.9448 17.3058L41.1461 16.9033L41.9511 17.507L42.1523 18.1108L43.7623 18.5133H46.3786L46.5798 17.9095H46.9823V16.5008L44.3661 16.0983L41.5486 15.897V15.4945L42.7561 15.2933L47.7873 15.092L54.0261 14.4883Z" fill="#474749"/>
<path d="M12.1661 15.0938L17.5998 15.295L18.4048 15.6975L17.8011 16.1L15.7886 16.3012V18.7162L14.9836 19.32L13.9773 19.5213L14.1786 20.5275L15.5873 19.9237L18.2036 19.5213H21.8261L22.6311 20.3263V21.9363L22.2286 22.3387L15.3861 22.9425L14.9836 23.1438L15.1848 23.7475L15.9898 23.5463L16.9961 24.5525H13.7761L11.9648 23.7475L11.3611 25.9613L10.7573 28.5775L10.3548 31.395V34.2125L10.9586 35.2188L11.5623 36.0238L10.7573 35.6213L9.75109 34.8162L8.74484 33.81L8.34234 32.8038L8.74484 32.2L8.94609 30.59H9.54984L9.75109 27.9738L9.95234 26.565V24.7537L9.34859 23.9488V23.5463L8.74484 23.7475L8.54359 24.5525V25.3575H8.14109L7.93984 26.7662L7.73859 25.9613L6.93359 26.1625V23.9488H7.33609V23.5463H7.73859L7.93984 22.9425H8.94609L9.14734 22.1375L10.1536 21.735L10.5561 20.5275L10.7573 16.3012L11.1598 15.295L12.1661 15.0938Z" fill="#484749"/>
<path d="M14.7823 45.2812H24.0398L50.2023 45.4825L50.8061 46.4887L51.0073 46.8913L51.4098 51.3187L51.6111 56.7525L52.0136 57.3562V58.3625L53.0198 57.5575L52.6173 58.3625L52.2148 58.765L49.3973 59.57L47.9886 59.3688L47.5861 59.1675L47.7873 56.9537L48.3911 55.3438L48.7936 52.5262V50.5138L47.9886 47.0925L46.9823 46.0863H17.1973L16.1911 46.8913L15.7886 48.7025L15.1848 51.7213V54.74L14.7823 56.35L13.7761 57.3562L12.5686 57.155L11.3611 56.35L11.7636 56.1488L12.5686 56.35L12.7698 55.7463L12.9711 51.3187L13.1723 49.5075L13.9773 46.2875L14.3798 45.4825L14.7823 45.2812Z" fill="#7F7D7D"/>
<path d="M13.7698 44.4766H32.8886L43.3536 44.6778H48.7873L53.0136 44.8791L53.6173 45.6841L54.0198 49.1053L54.2211 53.1303V57.5578L52.8123 58.5641V57.3566L52.4098 56.7528L52.2086 50.5141L51.8061 46.8916L51.2023 45.6841L25.0398 45.4828H15.7823L15.3798 45.6841L14.9773 46.6903L14.5748 49.1053L14.3736 49.5078L14.1723 52.7278L13.9711 56.1491L13.1661 56.5516L11.9586 55.7466L10.5498 54.3378V53.3316L11.3548 52.9291L11.7573 51.9228L12.1598 48.9041L12.9648 45.6841L13.5686 44.6778L13.7698 44.4766Z" fill="#686566"/>
<path d="M28.8698 22.5391H32.6936L35.7123 22.9416L38.5298 23.3441L39.3348 23.5453H42.5548L43.7623 23.3441H46.5798L45.5736 25.1553L45.1711 26.3628L44.3661 26.5641V26.1616H43.9636L43.5611 24.5516H40.3411L38.1273 25.3566H37.7248L37.3223 26.1616L36.7186 26.7653L26.4548 26.5641L26.2536 25.9603L25.4486 25.5578V25.1553L24.2411 24.9541L22.2286 24.5516H20.6186L20.4173 24.7528L18.6061 24.5516V25.3566L19.6123 26.3628V26.9666L19.0086 27.1678L18.8073 26.3628H18.4048L17.8011 25.3566L16.9961 24.5516L16.3923 23.5453V23.1428L16.9961 22.9416L19.8136 22.7403H27.4611L28.8698 22.5391Z" fill="#7E7C7C"/>
<path d="M54.4286 21.5352L55.6361 21.7364L56.2398 23.1452L57.2461 23.5477L57.4473 24.5539L56.8436 24.7552H55.4348L55.2336 24.9564L55.4348 26.7677L56.0386 28.5789L56.8436 29.7864L57.4473 30.7927V35.2202L56.8436 36.2264L56.4411 36.4277L56.0386 39.0439L54.2273 38.4402L53.8248 37.0314L53.6236 35.4214L53.0198 35.2202H53.8248L54.0261 33.8114L53.0198 31.3964L51.8123 28.7802L51.2086 27.1702L50.0011 26.1639L47.3848 25.3589L46.1773 25.1577L45.3723 25.9627L45.5736 24.9564L45.7748 24.5539L46.5798 24.1514H50.0011L51.0073 24.3527L50.6048 23.5477V22.7427L51.6111 21.9377L54.4286 21.5352Z" fill="#363739"/>
<path d="M8.74476 23.5469H9.34851L10.1535 24.9556V27.5719L9.95226 27.9744L9.54976 30.5906H8.94601V32.4019L8.54351 33.2069L9.54976 34.2131L10.3548 35.2194L11.9648 36.4269V36.8294H12.3673L12.7698 38.4394L12.5685 38.8419L10.7573 38.6406L9.54976 39.4456L8.74476 40.6531L8.54351 42.0619V49.3069L8.14101 48.7031L7.73851 47.4956L7.13476 43.4706L6.93351 38.6406H6.12851L5.32351 39.8481L4.92101 43.4706L4.31726 44.8794L3.51226 49.7094L2.50601 53.3319L1.70101 57.3569H1.49976V55.3444L2.90851 46.6906L3.31101 46.8919L4.11601 41.6594L4.51851 40.6531L4.92101 37.4331L5.52476 34.8169L5.72601 34.0119H6.53101L7.53726 36.0244L8.14101 35.6219L7.93976 34.4144L7.33601 33.2069L7.13476 30.7919L6.53101 28.7794V25.7606L6.73226 24.7544H6.93351V26.1631L7.93976 25.7606L8.14101 25.3581H8.54351L8.34226 24.1506L8.74476 23.5469Z" fill="#686566"/>
<path d="M55.2336 53.5312H55.4348L55.2336 55.745L54.0261 58.16L52.0136 60.1725L49.7998 61.1788L46.9823 61.9838L40.7436 62.5875L36.5173 62.7888L35.9136 62.99H30.6811L30.2786 63.1913H29.0711L27.8636 62.7888L19.4111 62.5875L15.9898 61.9838L13.5748 61.1788L12.3673 60.3738L11.3611 59.5688L9.9523 57.5563L9.5498 55.5438L9.75105 54.7388L11.1598 56.9525L12.1661 58.16L14.1786 59.3675L17.1973 60.3738L20.0148 60.7763L23.0336 60.9775L32.6936 61.1788H35.9136L36.9198 61.5813L37.7248 61.1788L44.9698 60.7763L48.5923 60.1725L51.2086 59.1663L52.8186 57.9588L54.2273 55.5438L55.2336 53.5312Z" fill="#F6FFFF"/>
<path d="M54.2273 60.7773L54.4286 61.3811L54.6298 63.5948L55.0323 64.6011L55.2336 66.6136L55.6361 68.6261L55.4348 71.2423L54.4286 74.6636V75.4686L57.0448 75.8711L58.0511 76.2736L58.6548 77.2798L58.8561 78.2861L58.6548 80.9023L58.0511 81.7073H57.6486V82.1098H55.6361L56.4411 81.9086V80.2986L55.6361 79.8961L52.8186 78.0848L51.4098 77.8836L51.0073 77.0786L52.0136 75.2673L52.6173 73.8586L52.8186 73.0536V70.4373L52.2148 64.6011L52.4161 62.9911L53.0198 61.9848H53.4223L53.2211 61.3811L54.2273 60.7773Z" fill="#676465"/>
<path d="M10.1536 60.1719L10.7573 60.7756L11.3611 62.1844L11.9648 63.3919L12.1661 66.4106L11.7636 71.4419L11.9648 73.0519L12.5686 75.0644L13.3736 76.8756L13.5748 77.8819L11.5623 78.0831L10.5561 79.2906L8.74482 79.6931L8.34232 80.0956V81.1019L8.74482 82.1081H7.53732L7.13482 81.1019L5.92732 80.4981L5.72607 78.6869L6.73232 76.6744H7.13482L7.33607 75.6681H9.95232V74.2594L9.14732 71.0394L8.94607 68.8256L9.75107 63.9956L9.95232 63.3919L10.1536 60.1719Z" fill="#676465"/>
<path d="M55.6362 52.5273L56.2399 52.7286L56.8437 54.5398L57.0449 56.3511L56.6424 59.1686L56.8437 59.7723V61.1811L57.2462 63.9986V67.2186L56.8437 71.4448L56.6424 72.0486V73.4573H58.6549L59.6612 74.0611L60.0637 75.4698V77.2811L59.4599 80.5011L58.2524 81.9098L57.6487 81.7086H58.0512L58.4537 80.9036L58.6549 78.0861L58.0512 76.6773L57.8499 76.2748L56.4412 75.8723L54.4287 75.4698L54.2274 74.4636L55.2337 71.2436L55.4349 68.6273L55.0324 66.6148L54.6299 63.9986L54.2274 62.1873V60.9798L53.2212 61.3823V61.7848L52.0137 61.9861L52.4162 61.7848L52.6174 60.9798L53.6237 59.9736L55.0324 58.1623L55.4349 57.1561L54.8312 57.5586L55.0324 56.7536L55.6362 54.9423L55.8374 52.9298L55.4349 52.7286L55.6362 52.5273Z" fill="#5C4A4D"/>
<path d="M28.4674 6.03906L29.4736 6.24031L31.6874 8.05156L34.1024 10.2653L35.5111 11.4728L36.7186 12.8816L37.1211 14.2903L36.3161 14.4916H20.0149L16.5936 13.8878L14.7824 13.6866L14.3799 13.2841V11.0703L14.7824 9.46031L15.1849 8.85656L18.0024 8.25281L18.4049 8.05156H20.0149V12.8816L19.8136 13.2841L35.9136 13.0828L34.5049 11.4728L34.1024 11.2716V10.8691H33.6999V10.4666L32.6936 10.0641L32.2911 9.25906L30.6811 8.05156L29.8761 7.64906V7.24656H29.2724V6.84406L28.4674 6.44156V6.03906Z" fill="#A6B8CC"/>
<path d="M26.6562 0H41.1462L45.7749 0.4025L48.9949 1.2075L50.8062 2.0125L52.0137 2.8175L53.6237 5.2325L54.0262 6.23875L53.8249 7.04375L52.2149 5.03125L50.8062 3.82375L48.9949 2.61625L47.5862 2.21375L43.3599 1.81125L29.6749 1.61L20.6187 1.40875L17.3987 2.21375L15.1849 3.42125L13.5749 5.43375L12.9712 6.0375H12.1662V6.64125H11.7637L12.1662 5.43375L13.3737 3.6225L14.3799 2.415L15.7887 1.61L18.8074 0.805L24.0399 0.20125L26.6562 0Z" fill="#44474C"/>
<path d="M28.8697 32.6016H29.876L30.2785 33.0041L30.681 35.6203L33.4985 35.8216L34.1022 36.2241L34.3035 34.4128L34.5047 34.0103H35.7122L36.316 35.4191L37.3222 37.2303L37.5235 37.4316V38.6391H36.1147L34.9072 38.4378V39.2428L36.1147 40.2491L36.316 40.8528L35.511 41.2553H31.8885L29.4735 41.0541L29.071 40.4503L29.6747 39.4441V38.6391L29.071 38.4378L28.4672 38.6391H26.0522V37.6328L27.461 36.0228L28.8697 32.6016Z" fill="#F1FAFA"/>
<path d="M0.896074 58.9648H1.09732L1.29857 63.5936L2.50607 66.0086L3.10982 67.4173L3.51232 69.4298L4.71982 73.6561L4.92107 77.6811L5.32357 80.4986L6.12857 81.1023V81.7061H3.71357L2.10357 81.3036L1.49982 79.0898L1.09732 76.4736L0.694824 69.6311V61.1786L0.896074 58.9648Z" fill="#464648"/>
<path d="M26.656 26.5664H36.9198L36.5173 27.9752L36.1148 29.9877V32.4027L35.9135 34.0127H34.5048L34.1023 36.2264L30.681 35.6227L30.0773 33.0064L28.4673 32.4027L28.0648 30.9939L27.6623 27.9752L28.4673 28.5789L30.2785 28.7802H33.2973L35.511 28.1764L36.1148 27.5727L36.316 26.7677H26.656V26.5664Z" fill="#353639"/>
<path d="M21.2224 3.82422H24.0399L27.0587 4.42797L28.4674 4.02547L29.6749 4.42797H37.3224L41.5487 4.22672H45.5737L49.1962 5.03172L49.7999 5.43422V6.03797H47.1837L44.9699 5.83672L37.3224 5.63547H30.4799L28.6687 5.83672L28.2662 6.23922L27.8637 6.03797V5.63547L21.6249 5.83672L18.2037 6.23922L14.3799 7.24547L12.9712 7.64797L14.1787 6.23922L15.9899 4.83047L17.5999 4.22672L21.2224 3.82422Z" fill="#6182A5"/>
<path d="M19.6122 16.1016H25.4485V16.3028L20.4172 16.5041L16.996 16.9066L16.3922 17.1078L16.191 17.7116L17.1972 18.1141V19.1203L19.8135 18.7178L22.8322 18.1141L27.6622 17.7116L35.511 17.5103H38.5297L37.7247 17.7116L37.926 18.5166L40.5422 19.1203V19.7241L39.536 20.7303L28.6685 20.5291L25.851 19.7241L23.6372 18.9191L15.5872 19.7241L14.9835 20.1266L14.1785 19.9253V19.5228L15.5872 19.1203L16.191 18.7178L16.3922 18.1141H15.9897V16.7053L16.996 16.3028L19.6122 16.1016Z" fill="#7F7D7D"/>
<path d="M45.976 8.25H48.7935L50.806 8.6525L51.8123 9.4575L52.2148 10.0612L52.416 12.275L51.2085 13.885L49.196 14.2875L43.1585 14.69H38.5298L37.926 13.885V13.2812H45.5735V8.45125L45.976 8.25Z" fill="#A4B4C7"/>
<path d="M17.3986 35.8242H26.0524L26.6561 36.2267V36.6292L27.0586 36.8305L26.2536 37.6355L26.0524 38.6417H27.2599V38.843L26.0524 39.0442L25.2474 40.0505H24.4424L24.2411 41.0567H22.8324L18.6061 40.2517H15.7886L15.3861 40.0505V39.2455H15.7886L15.9899 38.6417L17.8011 38.4405H22.2286L22.4299 39.0442L23.8386 38.6417L23.0336 38.4405L22.4299 38.2392L22.2286 37.233L20.2161 37.0317H13.7761L13.9774 36.428L15.9899 36.0255L17.3986 35.8242Z" fill="#4B484A"/>
<path d="M10.556 14.6914H13.776L22.631 14.8927L27.8635 15.4964L28.0648 15.8989L26.2535 16.1002L19.6123 16.3014L16.996 16.5027L16.191 16.7039L15.9898 18.1127H16.3923L16.191 18.9177L15.386 19.5214H14.1785L14.3798 19.9239L15.386 19.7227L15.5873 19.5214L17.5998 19.3202H19.411V19.5214L15.5873 20.1252L14.7823 20.5277H14.1785L13.776 19.5214L14.1785 19.1189L15.1848 18.9177L15.7885 18.7164V16.3014L18.2035 15.6977L17.5998 15.4964L12.166 15.2952H11.1598L10.9585 16.3014L10.7573 20.5277L10.1535 21.9364L9.14727 22.1377L8.94602 23.1439L7.93977 22.9427L7.73852 23.7477L7.33602 23.5464L7.13477 23.9489L7.33602 22.7414L7.93977 21.7352L8.74477 21.5339L9.14727 17.5089L9.75102 16.1002H10.1535V14.8927L10.556 14.6914Z" fill="#686566"/>
<path d="M23.0337 1.41016H32.2912L43.3599 1.61141L47.5862 2.01391L49.1962 2.61766L50.4037 3.42266L50.0012 3.62391L47.7874 3.02016L43.3599 2.81891H25.0462L24.2412 2.01391L23.0337 1.61141V1.41016Z" fill="#2F5A86"/>
<path d="M23.0337 23.9492L25.8512 24.1505L27.2599 24.553H37.3224L38.1274 24.3517H39.7374V24.7542L37.7249 25.358L37.3224 26.163L36.7187 26.7667L26.4549 26.5655L26.2537 25.9617L25.4487 25.5592V25.1567L24.2412 24.9555L23.0337 24.3517V23.9492Z" fill="#908F8F"/>
<path d="M12.166 15.0938L17.5997 15.295L18.4047 15.6975L17.801 16.1L15.7885 16.3012V18.7162L14.9835 19.32L13.9772 19.5213L14.3797 20.7288L12.971 20.3263L12.5685 19.9237H13.1722L13.3735 18.7162L12.3672 19.32H11.9647L11.7635 20.5275L11.1597 20.7288L10.9585 21.5338L10.3547 21.735L10.556 19.32L10.7572 16.3012L11.1597 15.295L12.166 15.0938Z" fill="#494749"/>
<path d="M11.5622 36.0234L14.3797 36.2247L13.776 37.0297L16.191 36.8284H20.216L22.2285 37.0297L22.631 37.8347L22.4297 38.2372H23.8385V38.8409L22.4297 39.0422L22.2285 38.6397H17.801L15.9897 38.8409L15.7885 39.2434H15.1847L14.9835 39.8472L14.3797 40.0484V39.6459L13.1722 40.2497H10.3547L10.556 39.4447L11.7635 39.0422H12.3672L12.5685 38.0359L12.3672 36.8284H11.9647L11.5622 36.0234Z" fill="#38383A"/>
<path d="M26.656 26.5664H36.9198L36.5173 27.9752L35.9135 31.3964L35.3098 31.5977L33.901 31.3964L28.6685 31.1952L28.8698 32.4027L29.2723 32.6039L28.4673 32.4027L28.0648 30.9939L27.6623 27.9752L28.4673 28.5789L30.2785 28.7802H33.2973L35.511 28.1764L36.1148 27.5727L36.316 26.7677H26.656V26.5664Z" fill="#5C4A4D"/>
<path d="M24.8448 81.1055H27.0585L31.0835 81.3067H40.9448L43.561 81.7092L43.9635 82.313H16.5935L16.996 81.9105L19.411 81.508L24.8448 81.1055Z" fill="#919090"/>
<path d="M30.8823 16.1016H38.9323L39.1336 16.9066H39.5361V17.3091L28.4673 17.5103L23.2348 17.7116H17.1973L16.9961 17.3091L19.6123 16.9066L26.4548 16.3028L30.8823 16.1016Z" fill="#A8BACE"/>
<path d="M63.8874 60.1719H64.0886V74.8631L63.6861 80.0956L63.0824 81.1019L62.0761 81.5044H60.2649V81.3031H61.2711L60.8686 79.4919L61.4724 77.4794L62.4786 75.2656L63.0824 71.8444L63.4849 68.4231L63.6861 63.7944V60.5744L63.8874 60.1719Z" fill="#333538"/>
<path d="M45.5737 0.605469L48.1899 1.00797L50.6049 1.81297L52.2149 3.02047L53.6237 5.23422L54.0262 6.24047L53.8249 7.04547L52.2149 5.03297L50.8062 3.82547L48.9949 2.61797L47.5862 2.21547L43.3599 1.81297L29.6749 1.61172L23.0337 1.41047V1.20922L28.0649 1.00797H36.5174L38.1274 1.20922L43.9637 1.00797L45.5737 0.605469Z" fill="#0F2434"/>
<path d="M54.026 13.8867L54.831 14.088V14.4905L52.416 14.893L47.7872 15.2955L41.5485 15.4967V15.8992H44.366L46.9822 16.503V17.9117H46.5797L46.3785 18.7167H43.7622L42.1522 18.3142L41.951 17.5092L40.7435 16.9055V16.503L39.9385 16.3017L39.3347 15.4967V15.0942L40.1397 15.2955L40.341 15.0942L41.7497 14.893L48.7935 14.6917L52.8185 14.2892L54.026 13.8867Z" fill="#807E7E"/>
<path d="M11.9648 23.7461L12.9711 23.9473L13.7761 24.3498L15.3861 24.5511L14.7823 25.1548L14.1786 26.5636L12.9711 27.5698L11.9648 29.5823L11.7636 30.3873L11.5623 33.8086L11.3611 35.6198L10.3548 34.8148L10.1536 34.2111V31.3936L10.7573 27.3686L11.9648 23.7461Z" fill="#363739"/>
<path d="M48.391 7.84766H51.8122L52.8185 8.85391L54.026 11.6714L54.6297 13.8852L52.8185 14.4889L48.7935 14.8914L41.7497 15.0927L40.341 15.2939L39.9385 15.6964V15.0927H38.9322L38.731 14.6902L46.9822 14.2877L50.2022 13.8852L51.4097 13.4827L52.2147 12.2752L52.0135 10.0614L51.8122 9.45766L50.2022 8.65266L48.7935 8.45141H45.5735L45.7747 8.04891L48.391 7.84766Z" fill="#919090"/>
<path d="M6.32986 26.9688H6.53111L6.93361 29.3837L7.33611 30.7925L7.53736 33.2075L8.34236 35.0188L8.14111 35.8238H7.73861L7.53736 36.2262L6.53111 34.415V34.0125H5.72611L5.52486 35.22L4.92111 38.2388L4.71986 40.6538L4.11611 42.6663L3.31111 47.6975H3.10986V45.8862L3.91486 40.855L4.51861 36.4275L4.92111 34.2137L5.12236 29.1825L5.32361 27.5725H5.52486V30.9938L6.12861 27.17L6.32986 26.9688Z" fill="#797777"/>
<path d="M25.4487 16.1016H30.8824V16.3028L26.4549 16.5041L17.5999 17.3091L17.1974 17.5103H23.2349L28.4674 17.3091L39.7374 17.1078V17.5103L35.5112 17.7116L27.6624 17.9128L22.8324 18.3153L19.2099 19.1203H17.1974V18.1141L16.1912 17.7116L16.3924 16.9066L18.6062 16.5041L20.4174 16.3028L25.4487 16.1016Z" fill="#908F8F"/>
<path d="M26.4548 26.5664L36.3161 26.7677L36.1148 27.7739L35.1086 28.5789L32.8948 28.9814H29.4736L28.2661 28.5789L27.8636 28.1764L27.4611 28.3777L26.6561 27.5727L26.4548 26.5664Z" fill="#363739"/>
<path d="M33.096 11.4727H34.706L35.9135 12.6802V13.0827L35.1085 13.2839H19.8135L20.216 12.2777L20.8197 11.8752L22.0272 12.0764V12.4789H28.4672L31.2847 12.0764L33.096 11.4727Z" fill="#282F38"/>
<path d="M55.636 17.5078L56.0385 17.7091L57.0447 20.1241L57.8497 21.7341L58.4535 21.9353L58.6547 20.7278H58.856L59.2585 22.1366L59.661 26.3628L60.0635 29.3816V32.6016L59.2585 32.4003L58.856 27.7716L58.2522 23.1428L57.4472 22.7403V23.3441L56.441 23.1428L56.0385 20.5266L55.636 17.5078Z" fill="#868485"/>
<path d="M10.3548 13.8867L12.9711 14.088L15.7886 14.4905L22.6311 14.6917L22.4298 15.0942L11.1598 14.893H10.1536V16.1005H9.75108L9.14733 18.918V20.7292L8.74483 21.5342L7.93983 21.9367L7.13483 23.9492L6.53108 26.968H6.32983V25.358L6.93358 22.5405L7.53733 21.333L8.14108 21.5342V21.1317L7.73858 20.9305L7.93983 18.918L8.54358 18.113L8.74483 16.3017L9.34858 14.4905L10.3548 13.8867Z" fill="#7F7D7D"/>
<path d="M0.694824 61.1797H0.896074L1.09732 68.4247L1.29857 72.2484L1.70107 75.0659L2.10357 75.6697L3.10982 79.2922L3.51232 80.4997L4.31732 80.9022L4.51857 81.3047L5.12232 81.7072L2.50607 81.5059L1.90232 80.9022L1.09732 76.4747L0.694824 69.6322V61.1797Z" fill="#333538"/>
<path d="M23.8387 13.4844H36.5174L37.1212 13.8869V14.2894L36.3162 14.4906H31.6874L22.6312 14.2894L22.4299 13.8869L23.8387 13.4844Z" fill="#F6FFFF"/>
<path d="M30.6811 32.6016L32.0898 33.0041L32.2911 32.8028H34.3036L35.3098 33.4066L35.1086 34.0103H34.5048L34.1023 36.2241L30.6811 35.6203L30.2786 34.0103L30.4798 32.8028L30.6811 32.6016Z" fill="#4C4B4D"/>
<path d="M22.4299 4.02344L25.6499 4.62719V5.02969H27.0587L27.4612 5.43219L19.4112 6.03594L14.9837 7.04219L12.9712 7.64594L13.7762 6.63969L16.1912 5.83469L16.3924 5.63344L18.4049 5.23094L20.2162 4.82844H21.2224V4.42594L22.4299 4.02344Z" fill="#6B8CAF"/>
<path d="M51.8123 7.44531L53.0198 7.84781L53.8248 8.65281L54.6298 9.86031L55.4348 10.6653H55.8373L57.8498 15.4953L58.6548 18.3128L59.2586 19.7216H58.8561L58.4536 20.5266L58.0511 17.7091H57.6486L56.6423 16.0991L55.6361 15.8978L55.4348 14.6903H55.8373L55.4348 12.8791L53.8248 9.65906L53.0198 8.45156L51.6111 7.84781L51.8123 7.44531Z" fill="#6384A7"/>
<path d="M45.5735 8.45312L46.781 8.85562L48.7935 9.86187L48.9947 11.0694L48.5922 12.6794L48.391 12.8806L45.976 13.0819L45.5735 11.2706V8.45312Z" fill="#F6FFFF"/>
<path d="M31.8885 25.3555H37.5235L37.3222 26.1605L36.7185 26.7642L26.4547 26.563L26.0522 25.758L26.2535 25.5567L31.8885 25.3555Z" fill="#A2B0C0"/>
<path d="M9.14734 22.1367L9.75109 22.338L9.54984 23.3442L10.5561 24.1492V26.7655L9.75109 32.1992L9.54984 33.8092V34.413L8.54359 33.608L8.34234 32.803L8.74484 32.1992L8.94609 30.5892H9.54984L9.75109 27.973L9.95234 26.5642V24.753L9.34859 23.948V23.5455L8.74484 23.7467L8.54359 24.5517V25.3567H8.14109L7.93984 26.7655L7.73859 25.9605L6.93359 26.1617V23.948H7.33609V23.5455H7.73859L7.93984 22.9417H8.94609L9.14734 22.1367Z" fill="#5C4A4D"/>
<path d="M26.656 26.5664H36.9198L36.5173 27.9752L36.316 29.5852L35.9135 28.7802L34.706 29.9877L29.876 29.7864L28.4673 29.3839L28.266 28.5789L30.2785 28.7802H33.2973L35.511 28.1764L36.1148 27.5727L36.316 26.7677H26.656V26.5664Z" fill="#4C4A4C"/>
<path d="M12.7697 18.7148H13.3735L13.1722 19.9223L12.971 20.1236L13.9772 20.5261L14.581 20.9286V21.9348L13.776 22.5386L11.1597 23.3436L10.3547 22.9411L11.1597 20.7273L11.7635 20.1236L11.9647 19.3186L12.7697 18.7148Z" fill="#363739"/>
<path d="M17.3986 35.8242H21.2224L24.2411 36.2267L25.2474 37.0317H13.7761L13.9774 36.428L15.9899 36.0255L17.3986 35.8242Z" fill="#8F9091"/>
<path d="M28.4672 6.03906L29.4735 6.24031L31.6872 8.05156L34.1022 10.2653L35.511 11.4728L36.7185 12.8816L36.9197 13.6866L19.8135 13.4853V13.2841L35.9135 13.0828L34.5047 11.4728L34.1022 11.2716V10.8691H33.6997V10.4666L32.6935 10.0641L32.291 9.25906L30.681 8.05156L29.876 7.64906V7.24656H29.2722V6.84406L28.4672 6.44156V6.03906Z" fill="#91969D"/>
<path d="M15.7885 39.043H20.0147L21.021 39.6467H23.6372L24.241 40.0492V41.0555H22.8322L18.606 40.2505H15.7885L15.386 40.0492V39.2442L15.7885 39.043Z" fill="#6B6869"/>
<path d="M21.2223 3.82422H24.0398L26.656 4.42797L26.8573 5.03172H25.6498V4.62922H24.241L22.4298 4.22672L21.2223 4.42797V4.83047L19.6123 5.23297L17.801 5.63547L16.3923 5.83672L14.581 6.64172L13.9773 6.44047L15.386 5.23297L16.996 4.42797L17.5998 4.22672L21.2223 3.82422Z" fill="#6687AA"/>
<path d="M38.9324 15.0938H39.3349L40.1399 16.3012L40.7436 16.5025L41.3474 17.5087L41.7499 17.71L42.1524 18.515V19.1188L43.1586 19.32L44.3661 19.7225L45.3724 20.5275L45.9761 21.3325V21.9363L45.3724 22.1375L44.3661 21.3325L43.3599 20.93L42.3536 19.7225L41.5486 19.5213L40.3411 18.1125L39.5361 17.1063L38.9324 16.5025V15.0938Z" fill="#36373A"/>
<path d="M52.416 35.418H53.6235L54.2273 38.2355L56.0385 39.0405V37.4305L56.441 36.223H56.8435L57.0448 35.418H57.4473L56.6423 38.638L56.441 40.6505H55.636L54.2273 39.443L53.221 37.833L52.6173 36.223L52.416 35.418Z" fill="#828488"/>
<path d="M8.1411 36.8281L9.14735 37.0294L9.7511 37.4319V38.6394L8.5436 40.4506L8.34235 41.0544L7.93985 44.0731L7.53735 43.2681V38.4381L7.93985 37.0294L8.1411 36.8281Z" fill="#7F7D7D"/>
<path d="M12.7699 5.63672L13.1724 6.24047L12.5686 7.24672L12.1661 8.85672L10.9586 10.8692H10.5561L10.1536 12.0767L8.74486 15.498L8.14111 16.1017L8.34236 14.693L9.95236 11.0705L11.3611 7.04547L11.5624 6.64297H12.1661V6.03922L12.7699 5.63672Z" fill="#456F96"/>
<path d="M58.8559 27.7734H59.0572L59.4597 32.4022L60.0634 32.6034L60.2647 31.7984L60.8684 37.2322V39.2447L60.4659 38.8422L59.2584 34.6159L58.6547 33.0059H58.2522L58.4534 32.2009H58.8559L59.0572 29.7859H58.6547L58.8559 27.7734Z" fill="#5A494C"/>
<path d="M39.7374 35.8242H40.7436L40.3411 36.428L41.5486 37.0317L41.9511 37.6355V38.6417L40.7436 39.0442L39.3349 38.6417L37.7249 38.4405V37.8367L39.1336 36.6292L39.7374 35.8242Z" fill="#363739"/>
<path d="M29.0711 38.2383L29.8761 38.6408V39.4458L29.2724 40.0495L26.2536 40.6533H24.4424V40.0495L25.4486 39.647L26.0524 38.842L29.0711 38.2383Z" fill="#3C3C3E"/>
<path d="M41.7498 16.3008H44.7686L45.9761 16.7033V17.5083L46.3786 17.7095L44.5673 18.112H42.3536L41.9511 17.9108V17.5083L41.1461 17.1058L40.9448 16.502L41.7498 16.3008Z" fill="#F6FFFF"/>
<path d="M45.7747 5.83594L48.391 6.03719L50.2022 6.43969L50.001 7.44594L47.9885 7.84844L45.5735 8.25094L45.7747 5.83594Z" fill="#4B484A"/>
<path d="M7.53724 18.5156H7.73849V19.9244L6.73224 24.3519L5.72599 31.1944L5.32349 30.9931L5.52474 26.3644L6.53099 21.7356L6.73224 20.3269L7.53724 18.5156Z" fill="#9DADBE"/>
<path d="M54.0261 14.4883L55.0323 14.6895L54.8311 15.2933H51.2086L48.3911 15.6958L47.1836 16.0983H46.1773L45.3723 16.2995L44.3661 16.0983L41.5486 15.897V15.4945L42.7561 15.2933L47.7873 15.092L54.0261 14.4883Z" fill="#686566"/>
<path d="M51.8123 7.84766L53.0198 8.25016L54.4285 10.2627L55.636 12.8789L56.0385 14.2877L55.4348 15.4952H55.0323L53.221 10.0614L52.6173 8.85391V8.45141L51.8123 8.04891V7.84766Z" fill="#6F90B3"/>
<path d="M35.5111 38.6406L37.1211 38.8419L38.1274 39.6469L38.9324 39.8481H40.3411L40.9449 40.0494V40.6531L39.9386 41.0556L36.3161 40.8544L35.1086 39.4456V39.0431H35.5111V38.6406Z" fill="#363739"/>
<path d="M43.7623 23.3438H46.5798L45.5735 25.155L45.171 26.3625L44.366 26.5638V26.1613H43.9635L43.561 24.5512L42.756 24.1488L42.3535 23.7463L43.7623 23.3438Z" fill="#817F7F"/>
<path d="M48.7936 17.9102H51.2086L51.8124 18.5139V19.7214L51.2086 20.5264H50.0011L48.9949 19.5202L48.3911 18.7152V18.1114L48.7936 17.9102Z" fill="#363739"/>
<path d="M30.4799 5.43359H37.3224L38.5299 5.63484L37.7249 6.03734H31.4862L31.2849 6.84234L31.6874 7.84859L30.6812 7.44609L29.2724 6.23859L28.0649 5.83609V5.63484L30.4799 5.43359Z" fill="#273039"/>
<path d="M21.6249 5.63672H27.8636V6.03922L28.6686 6.44172L28.8699 7.04547L27.8636 6.64297L27.2599 6.44172H20.4174L19.6124 6.84422L19.4111 5.83797L21.6249 5.63672Z" fill="#292F38"/>
<path d="M10.5562 10.8672L10.7574 11.4709L9.95243 13.6847L9.75118 14.6909L9.34868 14.8922L8.94618 16.3009L8.74493 18.1122L8.14118 18.9172L7.93993 20.9297L8.14118 21.5334L7.33618 21.7347L7.73868 17.1059L7.93993 15.0934L8.34243 14.8922V15.6972L8.94618 14.6909L9.95243 12.0747L10.5562 10.8672Z" fill="#7395B8"/>
<path d="M55.636 17.5078L56.0385 17.7091L57.0447 20.1241L57.8497 21.7341L58.4535 21.9353L58.6547 20.7278H58.856L59.2585 22.1366L59.0572 22.9416L58.6547 22.3378L58.2522 22.5391V23.1428L57.4472 22.7403V23.3441L56.441 23.1428L56.0385 20.5266L55.636 17.5078Z" fill="#5E768F"/>
<path d="M47.1837 35.8242H50.0012V36.428L43.3599 36.8305H41.3474L40.7437 36.2267L41.1462 36.0255L47.1837 35.8242Z" fill="#747272"/>
<path d="M40.5422 16.1016H45.3722L46.9822 16.5041V17.9128H46.5797L46.3785 18.7178H43.7622L42.1522 18.3153L41.951 17.9128H44.5672L45.976 17.5103V16.7053L44.7685 16.5041H40.9447L40.7435 16.9066L40.5422 16.1016Z" fill="#89898B"/>
<path d="M13.9772 37.8359H14.3797V38.2384H14.7822V38.8422H15.386L14.9835 39.8484L14.3797 40.0497V39.6472L13.1722 40.2509H10.3547L10.556 39.4459L11.7635 39.0434L12.5685 38.8422L13.5747 38.6409L13.9772 37.8359Z" fill="#343639"/>
<path d="M17.3985 6.23828L18.8072 6.43953L19.411 7.44578L19.8135 7.84828H14.7822L14.1785 7.64703L14.3797 7.04328L17.3985 6.23828Z" fill="#4A484A"/>
<path d="M19.6123 8.25H19.8135V13.08L19.0085 13.4825L18.8073 13.2812L18.4048 10.2625V9.055L18.606 8.6525H19.6123V8.25Z" fill="#F6FFFF"/>
<path d="M27.6624 1.00781H36.5174L37.9262 1.20906L38.1274 1.61156H29.6749L23.0337 1.41031V1.20906L27.6624 1.00781Z" fill="#0E2231"/>
<path d="M40.9448 20.5273L41.5486 20.7286L41.1461 21.3323L43.1586 21.9361L44.7686 22.3386L47.3848 22.5398H49.1961L49.7998 23.1436L49.5986 23.3448H47.3848L46.1773 22.9423L42.5548 22.7411L41.1461 21.9361L40.3411 21.3323L40.5423 20.7286L40.9448 20.5273Z" fill="#5C4A4D"/>
<path d="M8.94608 17.5078L9.34858 17.9103L9.14733 19.5203V20.7278L8.74483 21.5328L7.93983 21.9353L7.13483 23.9478L6.53108 26.9666H6.32983V25.3566L6.93358 22.5391L7.53733 21.3316L8.14108 21.5328V21.1303L7.73858 20.9291L7.93983 18.9166L8.94608 17.5078Z" fill="#818081"/>
<path d="M5.12236 35.2188H5.32361V36.6275L4.92111 38.2375L4.71986 40.6525L4.11611 42.665L3.31111 47.6963H3.10986V45.885L3.91486 40.8538L4.51861 36.4263L4.71986 35.42L5.12236 35.2188Z" fill="#787576"/>
<path d="M16.3924 2.01172L17.1974 2.41422L15.1849 3.42047L13.5749 5.43297L12.9712 6.03672H12.1662V6.64047H11.7637L12.1662 5.43297L13.3737 3.62172L13.9774 2.81672L14.9837 2.61547L16.3924 2.01172Z" fill="#102536"/>
<path d="M27.6624 27.9727L28.2661 28.3752L28.6686 30.1864H33.0961L33.4986 30.7902L28.6686 30.9914L28.8699 32.4002L29.2724 32.6014L28.4674 32.4002L28.0649 30.9914L27.6624 27.9727Z" fill="#6D6A6B"/>
<path d="M38.9323 4.82812H44.1648L44.7685 5.23063L44.5673 5.43188H28.4673V5.23063L30.681 5.02938L38.9323 4.82812Z" fill="#6F90B3"/>
<path d="M17.3986 35.8242H21.2224L22.6311 36.0255V36.2267L16.1911 36.428L20.6186 36.6292L22.0274 36.8305V37.0317H13.7761L13.9774 36.428L15.9899 36.0255L17.3986 35.8242Z" fill="#767374"/>
<path d="M56.441 13.2812L57.0447 13.4825L58.051 16.0988L58.6547 18.3125L59.2585 19.7213H58.856L58.4535 20.5263L57.8497 17.7088L56.2397 14.4888L56.441 13.2812Z" fill="#5B7FA2"/>
<path d="M11.9649 20.5273H13.7762V20.9298H14.1787L13.9774 21.9361L13.3737 22.3386H11.1599L11.3612 21.3323L11.9649 20.5273Z" fill="#282F38"/>
<path d="M27.4612 33.8086L28.4674 34.0098L27.4612 36.4248L26.6562 36.6261L26.0524 36.0223H23.0337V35.8211L25.6499 35.4186L26.2537 35.2173L27.0587 34.0098L27.4612 33.8086Z" fill="#38393B"/>
<path d="M57.4473 14.0859L58.2523 15.0922L59.661 17.7084L59.8623 18.9159L59.661 19.3184H58.856L58.2523 17.9097L57.4473 14.8909V14.0859Z" fill="#F1FCFD"/>
<path d="M20.6185 0.605469H21.021V1.00797H20.6185V1.41047L17.3985 2.21547L15.7885 2.41672L14.7822 3.02047L14.1785 2.81922L14.7822 2.21547L15.7885 1.61172L18.8072 0.806719L20.6185 0.605469Z" fill="#3E454C"/>
<path d="M20.6185 24.3516L23.8385 24.5528L24.241 24.9553H21.2223L20.4173 25.1566V26.3641L19.6123 26.7666L19.0085 25.7603L18.4048 25.3578L18.606 24.5528H20.4173L20.6185 24.3516Z" fill="#403E40"/>
<path d="M21.2224 35.8242H26.0524L26.6562 36.2267V36.6292L27.0587 36.8305L26.4549 37.4342L22.2287 37.233V37.0317L24.8449 36.8305L24.2412 36.428L21.2224 36.0255V35.8242Z" fill="#534B4D"/>
<path d="M29.4737 37.6328H30.0774L30.2787 38.0353L33.6999 38.4378V39.0416L32.0899 39.2428L30.0774 39.0416L29.4737 38.4378L27.4612 38.6391L28.2662 38.2366L29.4737 37.6328Z" fill="#A0ADBC"/>
<path d="M20.6186 1.20703H21.8261L21.6248 2.21328L18.4048 2.41453L16.5936 3.01828L15.7886 2.81703L18.0023 1.81078L20.6186 1.20703Z" fill="#2F5A86"/>
<path d="M51.2085 15.0938H54.831L55.2335 15.8988L54.2272 15.6975L53.8247 15.4963H51.4097L49.3972 15.8988L47.586 16.5025L47.3847 17.1063H46.9822V16.5025L45.5735 16.1V15.8988H47.3847L49.3972 15.295L51.2085 15.0938Z" fill="#5C4A4D"/>
<path d="M6.12849 27.168H6.32974L6.53099 30.5892L6.73224 32.6017H5.92724L5.72599 33.0042H5.32349V30.9917L5.72599 30.1867L6.12849 27.168Z" fill="#919090"/>
<path d="M52.2148 5.03125L53.2211 6.0375L53.8248 6.8425L54.2273 6.64125L55.6361 10.0625V11.0687L55.0323 10.2638L54.2273 8.65375L53.6236 8.25125L52.2148 5.43375V5.03125Z" fill="#4D759A"/>
<path d="M45.171 11.875H45.5735V13.2837H40.7435L39.9385 12.8812L44.1647 12.4787L45.171 12.2775V11.875Z" fill="#252D37"/>
<path d="M27.6624 26.7656H32.8949L35.1086 26.9669V27.1681L32.6936 27.3694H27.6624V26.7656Z" fill="#282F38"/>
<path d="M53.8247 36.4258L54.026 36.8283L55.8372 37.0295L56.2397 36.4258L56.0385 39.042L54.2272 38.4383L53.8247 37.0295V36.4258Z" fill="#484749"/>
<path d="M11.1599 9.45703L11.3611 10.0608L10.9586 10.8658H10.5561L10.1536 12.0733L8.74486 15.4945L8.14111 16.0983L8.34236 14.6895L9.95236 11.067L10.3549 9.85953L11.1599 9.45703Z" fill="#51779C"/>
<path d="M59.0574 24.9531H59.2586L59.8624 27.3681V32.3994L59.4599 32.1981L59.0574 27.5694V24.9531Z" fill="#A0AFBF"/>
<path d="M28.4673 6.03906L29.4735 6.24031L31.6873 8.05156L33.4985 9.66156L33.2973 10.0641L30.681 8.05156L29.876 7.64906V7.24656H29.2723V6.84406L28.4673 6.44156V6.03906Z" fill="#C7D5DD"/>
<path d="M16.9961 22.5391H20.0149L19.8136 22.9416L16.3924 23.1428L16.9961 23.9478L16.7949 24.3503L15.7886 23.7466H14.9836V22.9416L16.9961 22.5391Z" fill="#686566"/>
<path d="M38.3286 13.6836H43.7624L43.5611 14.0861L39.9386 14.4886H38.7311L38.3286 13.6836Z" fill="#F6FFFF"/>
<path d="M20.4173 20.125L22.0273 20.3262L22.2285 21.3325L22.0273 21.5337L20.216 21.3325L19.0085 20.93L19.411 20.3262L20.4173 20.125Z" fill="#363739"/>
<path d="M13.9774 37.8359H14.3799V38.2384H14.7824V38.8422H15.3861L15.1849 39.6472H12.9711L12.5686 39.4459V38.8422L13.5749 38.6409L13.9774 37.8359Z" fill="#222C36"/>
<path d="M60.0635 31.7969H60.2648L60.466 34.0106V36.6269L60.0635 36.0231L59.2585 33.6081V32.4006L60.0635 32.6019V31.7969Z" fill="#635F61"/>
<path d="M57.4473 18.5156H58.051L58.6548 20.5281V21.9369L58.2523 22.1381L57.6485 20.9306H57.4473V18.5156Z" fill="#83A7CA"/>
<path d="M32.6936 9.66016L33.9011 10.0627L35.5111 11.4714L36.7186 12.8802L36.9199 13.6852H36.5174V13.2827H35.1086L35.9136 13.0814L34.5049 11.4714L34.1024 11.2702V10.8677H33.6999V10.4652L32.6936 10.0627V9.66016Z" fill="#7D7F84"/>
<path d="M57.0447 35.418H57.4472L56.6422 38.638L56.441 40.6505L55.8372 40.8517L55.636 40.0467L56.0385 39.443L56.2397 36.4242L56.8435 36.223L57.0447 35.418Z" fill="#778596"/>
<path d="M47.1835 35.8242H50.001V36.428L47.3847 36.6292H43.7622V36.428L46.3785 36.2267L47.1835 35.8242Z" fill="#676264"/>
<path d="M11.5623 36.0234L14.3798 36.2247L13.776 37.0297H16.191V37.2309H12.7698L12.5685 38.0359L12.3673 36.8284H11.9648L11.5623 36.0234Z" fill="#3D3D3F"/>
<path d="M19.0087 23.9492L20.0149 24.1505L20.6187 24.553L20.4174 24.7542L18.6062 24.553V25.358L19.6124 26.3642V26.968L19.0087 27.1692L18.8074 26.3642H18.4049L18.0024 25.358L18.2037 24.3517L19.0087 23.9492Z" fill="#686566"/>
<path d="M35.5111 38.6406L36.9199 39.0431L37.1211 40.4519L36.9199 40.8544L36.1149 40.6531L35.1086 39.4456V39.0431H35.5111V38.6406Z" fill="#22303B"/>
<path d="M50.2023 6.64062L50.8061 6.84187V7.24437L51.6111 7.64687V8.04937H46.5798V7.84812L49.5986 7.44562L50.2023 6.64062Z" fill="#767474"/>
<path d="M14.7822 15.293H17.5997L18.4047 15.6955L17.801 16.098L15.7885 16.2992L15.5872 17.1042L14.7822 16.2992L15.9897 16.098V15.4942H14.7822V15.293Z" fill="#5C4A4D"/>
<path d="M23.8385 4.62891L27.0585 5.03141L27.461 5.43391H22.2285L22.4298 5.03141L23.8385 4.62891Z" fill="#77A3C9"/>
<path d="M55.8373 13.6836L56.2398 13.8848L57.0448 15.8973L57.8498 17.1048L57.6486 17.7086L56.6423 16.0986L55.6361 15.8973L55.4348 14.6898H55.8373V13.6836Z" fill="#6586A9"/>
<path d="M37.1211 13.2812H37.9261L38.5298 14.4887L39.1336 15.2937V16.0987L37.9261 15.6962L37.5236 14.2875L37.1211 13.885V13.2812Z" fill="#262F38"/>
<path d="M56.0385 37.4336H56.2398V39.4461L55.636 40.6536L54.4285 39.6473L54.831 39.4461L54.2273 38.4398L55.636 38.8423L56.0385 39.0436V37.4336Z" fill="#706D6E"/>
<path d="M58.8559 27.7734H59.0572L59.2584 29.5847L59.4597 33.6097L59.6609 34.8172L59.2584 34.6159L58.6547 33.0059H58.2522L58.4534 32.2009H58.8559L59.0572 29.7859H58.6547L58.8559 27.7734Z" fill="#5F5255"/>
<path d="M15.7885 39.043L17.801 39.2442V39.848L16.7947 40.2505L15.386 40.0492V39.2442L15.7885 39.043Z" fill="#706D6E"/>
<path d="M29.071 40.0469L29.4735 40.8519L31.8885 41.0531V41.2544H25.2472L24.8447 40.8519L28.6685 40.6506L29.071 40.0469Z" fill="#757177"/>
<path d="M7.53726 18.5156H7.73851V19.9244L7.13476 22.5406L6.53101 22.7419L6.73226 20.3269L7.53726 18.5156Z" fill="#91ABC6"/>
<path d="M40.9448 16.9062L41.9511 17.51L42.1523 18.1138L43.7623 18.5163H46.5798V18.9188L42.1523 19.12L41.7498 18.315V17.7113L40.9448 17.3088V16.9062Z" fill="#676466"/>
<path d="M54.0261 13.8867L54.8311 14.088V14.4905L52.4161 14.893L48.3911 15.0942L48.7936 14.6917L52.8186 14.2892L54.0261 13.8867Z" fill="#7F7D7D"/>
<path d="M10.556 10.8672L10.7572 11.4709L9.95221 13.6847L9.75096 14.6909L9.34846 14.8922L8.74471 16.3009L8.54346 15.4959L10.1535 11.6722L10.556 10.8672Z" fill="#6685A5"/>
<path d="M7.33609 47.6953H7.73859L8.14109 49.7078L7.93984 50.1103L6.93359 49.9091V48.2991L7.33609 47.6953Z" fill="#474749"/>
<path d="M43.7623 24.3516H44.1648V24.7541L45.171 25.1566V26.3641L44.366 26.5653V26.1628H43.9635L43.561 24.5528L43.7623 24.3516Z" fill="#8A8E94"/>
<path d="M22.6311 3.82422H24.0399L26.6561 4.42797L26.8574 5.03172H25.6499V4.62922H24.2411L22.6311 4.22672V3.82422Z" fill="#6788AB"/>
<path d="M12.7699 5.63672L13.1724 6.24047L12.5687 7.24672L12.1662 8.05172L11.9649 7.64922L11.1599 8.45422L11.3612 7.04547L11.5624 6.64297H12.1662V6.03922L12.7699 5.63672Z" fill="#315C87"/>
<path d="M10.9586 36.4258H11.9648L12.3673 37.6333L12.1661 38.4383L11.1598 37.8345L10.7573 36.627L10.9586 36.4258Z" fill="#7E7C7C"/>
<path d="M5.12238 35.2188H5.32363V36.6275L4.71988 38.8412L4.31738 39.0425V37.4325L4.71988 35.42L5.12238 35.2188Z" fill="#747272"/>
<path d="M11.9648 20.7305H12.971L13.776 21.3342L13.5748 21.938H11.5623L11.9648 20.7305Z" fill="#0E2231"/>
<path d="M14.9835 6.84375H15.5872V7.4475H18.8072V7.64875L17.5997 7.85H14.7822L14.1785 7.64875L14.3797 7.045L14.9835 6.84375Z" fill="#686566"/>
<path d="M41.9512 17.9102L42.7562 18.1114H44.7687L46.5799 17.9102L46.3787 18.7152H43.7624L42.1524 18.3127L41.9512 17.9102Z" fill="#8A898A"/>
<path d="M41.3474 40.25H42.9574L43.5612 40.4513L43.3599 41.055H40.7437L40.9449 40.4513L41.3474 40.25Z" fill="#838384"/>
<path d="M24.241 36.2266L25.851 36.4278L26.4548 37.0316L25.851 37.4341L22.2285 37.2328V37.0316L24.8448 36.8303L24.241 36.2266Z" fill="#686566"/>
<path d="M28.6685 30.9922H35.9135L35.7122 31.5959L33.901 31.3947L28.6685 31.1934V30.9922Z" fill="#494749"/>
<path d="M21.4236 40.25H24.2411V41.055H22.8323L21.4236 40.6525V40.25Z" fill="#92959A"/>
<path d="M15.1849 39.2422L15.3861 40.0472L16.7949 40.2484L15.9899 41.0534H13.7761L13.9774 40.6509L14.7824 40.4497L15.1849 39.2422Z" fill="#5B494C"/>
<path d="M34.1022 35.2188L34.5047 36.0238L34.3035 36.4263L31.2847 36.225L30.4797 36.4263L30.681 35.6213L33.4985 35.8225L34.1022 36.225V35.2188Z" fill="#9AA2AD"/>
<path d="M50.2023 23.3438L51.2086 23.7463L51.0073 24.35H46.5798H45.9761L46.3786 23.9475L50.2023 23.7463V23.3438Z" fill="#4B4749"/>
<path d="M37.7248 14.6914H37.926V15.6977L38.3285 15.8989L33.4985 15.6977L34.3035 15.2952H36.5173L37.7248 15.0939V14.6914Z" fill="#686566"/>
<path d="M14.9835 22.5391H16.996V22.7403L14.9835 23.1428L15.1848 23.7466L15.5873 24.1491L14.7823 23.9478L13.3735 23.3441V22.9416L14.9835 22.5391Z" fill="#5C4A4D"/>
<path d="M35.9135 28.5781H36.1147V29.9869L35.9135 30.9931L34.3035 30.7919L35.3097 29.7856L35.7122 28.7794L35.9135 28.5781Z" fill="#686566"/>
<path d="M45.1711 16.5039H46.3786L46.7811 17.3089V17.9127L44.7686 18.3152H42.7561V18.1139L45.5736 17.7114L45.9761 17.5102V16.7052L45.1711 16.5039Z" fill="#A5B7CA"/>
<path d="M33.9012 34.6133L34.1024 35.217L33.4987 35.6195H31.8887L31.2849 35.0158L32.2912 34.8145L33.9012 34.6133Z" fill="#35373A"/>
<path d="M16.3924 6.44141L17.1974 6.64266L17.3987 7.04516L18.2037 7.44766H15.5874V6.64266L16.3924 6.44141Z" fill="#5A4B4E"/>
<path d="M20.216 2.01172L21.2223 2.21297V2.41422L17.801 3.01797H16.5935L16.7948 2.61547L18.8073 2.21297L20.216 2.01172Z" fill="#476E93"/>
<path d="M26.656 0H30.0772V0.20125L27.0585 0.4025L26.0522 0.805L24.241 0.60375V0.4025L26.656 0Z" fill="#3D4E61"/>
<path d="M58.4536 27.5703H58.6549L58.8561 30.1866H58.2524L57.8499 28.3753L58.2524 28.1741L58.4536 27.5703Z" fill="#363739"/>
<path d="M13.9774 7.24609L14.1786 7.64859L17.5999 7.84984V8.05109L13.1724 8.25234L13.3736 7.44734L13.9774 7.24609Z" fill="#7F7D7D"/>
<path d="M2.10351 53.332H2.30476L2.10351 55.5458L1.70101 57.357H1.49976V55.3445L1.90226 53.5333L2.10351 53.332Z" fill="#645F61"/>
<path d="M18.606 24.5508L20.216 24.752L19.8135 25.1545L20.0148 25.9595L19.2098 26.1608L18.4048 25.3558L18.606 24.5508Z" fill="#504A4C"/>
<path d="M57.6487 16.7031L58.2524 16.9044L58.8562 18.9169L59.2587 19.7219H58.8562L58.4537 20.5269L57.8499 17.7094L57.6487 16.7031Z" fill="#537A9F"/>
<path d="M16.7949 40.0469H18.6062L20.4174 40.4494L20.0149 40.8519H18.2037L18.0024 40.2481H16.7949V40.0469Z" fill="#5C4A4D"/>
<path d="M37.5236 37.8359H37.7248L37.5236 39.2447L35.5111 38.6409V39.0434H35.1086L34.9073 39.4459L34.7061 38.4397L35.7123 38.2384L37.5236 38.6409V37.8359Z" fill="#585456"/>
<path d="M55.636 17.5078L56.0385 17.7091L56.6422 19.3191L56.441 22.3378H56.2397L55.8372 18.5141L55.636 17.5078Z" fill="#42668A"/>
<path d="M38.731 14.6914H42.756V14.8927L40.341 15.2952L39.9385 15.6977V15.0939H38.9322L38.731 14.6914Z" fill="#8E8D8D"/>
<path d="M44.1649 23.9492L45.1711 24.1505V24.553H45.7749L45.3724 26.163H45.1711L44.9699 25.1567L44.1649 24.7542L43.9636 24.1505L44.1649 23.9492Z" fill="#636061"/>
<path d="M56.441 13.2812H56.8435L57.0447 14.8913L57.6485 16.7025L56.8435 15.8975L56.2397 14.4887L56.441 13.2812Z" fill="#5C7A99"/>
<path d="M24.0399 0.199219H25.4487L25.2474 0.802969L21.8262 1.00422L22.0274 0.601719L24.0399 0.199219Z" fill="#37404A"/>
<path d="M49.3973 20.9297L50.6048 21.1309L50.806 21.9359L49.7998 22.1372V21.7347L49.196 21.5334L49.3973 20.9297Z" fill="#5C4A4D"/>
<path d="M45.5735 15.8984H48.1897V16.3009L47.586 16.5022L47.3847 17.1059H46.9822V16.5022L45.5735 16.0997V15.8984Z" fill="#5A4D50"/>
<path d="M9.34861 13.082L9.54986 13.4845L8.74486 15.497L8.14111 16.1008L8.34236 14.692L8.94611 13.2833L9.34861 13.082Z" fill="#436E97"/>
<path d="M18.2036 25.3555L19.2099 25.758L19.6124 26.3617V26.9655L19.0086 27.1667L18.8074 26.3617H18.4049L18.2036 25.3555Z" fill="#6D696B"/>
<path d="M53.4224 8.25L54.2274 8.45125L55.0324 9.65875L55.2336 10.665L54.2274 9.65875L53.4224 8.25Z" fill="#607D9B"/>
<path d="M35.5111 38.6406L36.9199 39.0431L37.1211 40.0494H36.5174L36.1149 39.4456H35.1086V39.0431H35.5111V38.6406Z" fill="#282F38"/>
<path d="M52.2148 5.03125L53.2211 6.0375L53.8248 6.8425L54.2273 6.64125L54.4286 7.84875L53.4223 7.04375L52.6173 6.0375L52.2148 5.03125Z" fill="#37618B"/>
<path d="M15.7885 1.60938L16.5935 1.81063L16.3922 2.21313L14.9835 2.81688H14.1785L14.7822 2.21313L15.7885 1.60938Z" fill="#424B56"/>
<path d="M15.386 3.01953L15.7885 3.22078L13.5747 5.83703V5.23328L14.9835 3.42203L15.386 3.01953Z" fill="#476C91"/>
<path d="M56.0385 37.4336H56.2398V39.4461L55.4348 39.6473L55.2335 38.8423L54.2273 38.6411L54.6298 38.4398L56.0385 39.0436V37.4336Z" fill="#645A5B"/>
<path d="M34.706 37.8359L36.5172 38.2384L37.5235 38.4397V38.6409H36.1147L34.9072 38.4397L34.5047 39.0434L34.3035 38.2384L34.706 37.8359Z" fill="#9FA9B6"/>
<path d="M40.5422 16.1016H44.5672V16.3028L40.9447 16.5041L40.7435 16.9066L40.5422 16.1016Z" fill="#A6B7CA"/>
<path d="M38.1274 14.6914L38.9324 14.8927L39.1337 16.1002L38.1274 15.6977V14.6914Z" fill="#1A2834"/>
<path d="M13.3737 36.4258L13.9774 36.627L13.7762 37.0295H16.1912V37.2308H12.9712L13.3737 36.4258Z" fill="#484749"/>
<path d="M38.9324 15.0938H39.3349L40.1399 16.5025H39.5361V16.905H39.1336L38.9324 16.1V15.0938Z" fill="#41444A"/>
<path d="M16.3924 2.01172L17.1974 2.41422L15.3861 3.21922H14.9836L15.3861 2.41422L16.3924 2.01172Z" fill="#102331"/>
</svg>
