<svg width="14" height="11" viewBox="0 0 14 11" fill="none" xmlns="http://www.w3.org/2000/svg">
<path fill-rule="evenodd" clip-rule="evenodd" d="M13.0004 4.49962C13.1773 4.6066 13.3235 4.75741 13.425 4.93744C13.5265 5.11748 13.5798 5.32066 13.5798 5.52734C13.5798 5.73402 13.5265 5.93721 13.425 6.11725C13.3235 6.29728 13.1773 6.44808 13.0004 6.55507L6.45997 10.502L6.45857 10.5029C6.27592 10.6121 6.06744 10.6708 5.85459 10.673C5.64174 10.6753 5.43217 10.6208 5.24724 10.5154C5.06232 10.41 4.90874 10.2573 4.80218 10.0731C4.69586 9.88906 4.64022 9.68019 4.64097 9.46769L4.64094 9.46664L4.64094 7.60382L0.511439 7.60381C0.291285 7.60381 0.112523 7.42618 0.11105 7.20614L0.0884006 3.83134C0.0876636 3.7246 0.129566 3.62211 0.20465 3.54646C0.279847 3.47081 0.38211 3.42823 0.48879 3.42823L4.61829 3.42821L4.61831 1.56367L4.61834 1.56116C4.61969 1.34599 4.67879 1.13513 4.78948 0.950607C4.90022 0.766143 5.05848 0.614798 5.24767 0.512348C5.43687 0.409898 5.65018 0.360233 5.86514 0.368376C6.07804 0.376529 6.28485 0.441064 6.46449 0.555416L13.0004 4.49962Z" fill="white"/>
</svg>
