<svg width="14" height="12" viewBox="0 0 14 12" fill="none" xmlns="http://www.w3.org/2000/svg">
<path fill-rule="evenodd" clip-rule="evenodd" d="M0.77177 4.89805C0.594934 5.00504 0.448698 5.15584 0.347199 5.33588C0.245697 5.51592 0.192369 5.7191 0.192369 5.92578C0.192369 6.13246 0.245697 6.33564 0.347199 6.51568C0.448698 6.69572 0.594934 6.84652 0.77177 6.95351L7.31224 10.9004L7.31365 10.9013C7.49629 11.0105 7.70478 11.0693 7.91763 11.0715C8.13047 11.0737 8.34005 11.0193 8.52497 10.9138C8.7099 10.8084 8.86348 10.6557 8.97004 10.4715C9.07636 10.2875 9.132 10.0786 9.13125 9.86613L9.13128 9.86508L9.13128 8.00226L13.2608 8.00225C13.4809 8.00225 13.6597 7.82461 13.6612 7.60457L13.6838 4.22978C13.6846 4.12304 13.6427 4.02055 13.5676 3.9449C13.4924 3.86925 13.3901 3.82667 13.2834 3.82667L9.15393 3.82665L9.1539 1.96211L9.15388 1.95959C9.15253 1.74443 9.09342 1.53357 8.98273 1.34904C8.87199 1.16458 8.71374 1.01324 8.52454 0.910786C8.33534 0.808336 8.12204 0.75867 7.90708 0.766813C7.69417 0.774967 7.48736 0.839501 7.30772 0.953854L0.77177 4.89805Z" fill="white"/>
</svg>
