<svg width="243" height="182" viewBox="0 0 243 182" fill="none" xmlns="http://www.w3.org/2000/svg">
<path d="M54.1952 176H47.4921V157.091H54.2506C56.1526 157.091 57.7899 157.469 59.1626 158.227C60.5352 158.978 61.5908 160.058 62.3295 161.467C63.0742 162.877 63.4466 164.563 63.4466 166.527C63.4466 168.497 63.0742 170.189 62.3295 171.605C61.5908 173.021 60.529 174.107 59.1441 174.864C57.7653 175.621 56.1157 176 54.1952 176ZM51.49 172.575H54.029C55.2108 172.575 56.2049 172.365 57.0113 171.947C57.8238 171.522 58.4332 170.866 58.8394 169.98C59.2518 169.088 59.458 167.937 59.458 166.527C59.458 165.13 59.2518 163.988 58.8394 163.102C58.4332 162.215 57.8269 161.563 57.0205 161.144C56.2142 160.726 55.2201 160.516 54.0383 160.516H51.49V172.575ZM66.3343 176V161.818H70.2675V176H66.3343ZM68.3101 159.99C67.7253 159.99 67.2237 159.796 66.8051 159.408C66.3927 159.014 66.1865 158.544 66.1865 157.996C66.1865 157.454 66.3927 156.989 66.8051 156.602C67.2237 156.208 67.7253 156.011 68.3101 156.011C68.8949 156.011 69.3934 156.208 69.8058 156.602C70.2244 156.989 70.4337 157.454 70.4337 157.996C70.4337 158.544 70.2244 159.014 69.8058 159.408C69.3934 159.796 68.8949 159.99 68.3101 159.99ZM77.4623 176.268C76.5574 176.268 75.7511 176.111 75.0432 175.797C74.3354 175.477 73.7752 175.006 73.3628 174.384C72.9566 173.756 72.7535 172.975 72.7535 172.039C72.7535 171.251 72.8981 170.589 73.1874 170.054C73.4767 169.518 73.8706 169.088 74.3692 168.761C74.8678 168.435 75.4341 168.189 76.0681 168.023C76.7082 167.857 77.3792 167.74 78.0809 167.672C78.9057 167.586 79.5705 167.506 80.0752 167.432C80.5799 167.352 80.9462 167.235 81.1739 167.081C81.4017 166.927 81.5155 166.699 81.5155 166.398V166.342C81.5155 165.758 81.3309 165.305 80.9616 164.985C80.5984 164.665 80.0814 164.505 79.4104 164.505C78.7026 164.505 78.1394 164.662 77.7208 164.976C77.3022 165.284 77.0252 165.671 76.8898 166.139L73.252 165.844C73.4367 164.982 73.7999 164.237 74.3415 163.609C74.8832 162.975 75.5818 162.489 76.4374 162.151C77.2992 161.806 78.2963 161.634 79.4289 161.634C80.2168 161.634 80.9708 161.726 81.691 161.911C82.4173 162.095 83.0605 162.381 83.6207 162.769C84.1869 163.157 84.6332 163.656 84.9594 164.265C85.2857 164.868 85.4488 165.591 85.4488 166.435V176H81.7187V174.033H81.6079C81.3801 174.477 81.0754 174.867 80.6938 175.206C80.3122 175.538 79.8536 175.8 79.3181 175.991C78.7826 176.175 78.164 176.268 77.4623 176.268ZM78.5887 173.553C79.1673 173.553 79.6782 173.439 80.1214 173.212C80.5645 172.978 80.9123 172.664 81.1647 172.27C81.4171 171.876 81.5432 171.43 81.5432 170.931V169.426C81.4201 169.506 81.2509 169.58 81.0354 169.648C80.8261 169.709 80.5892 169.768 80.3245 169.823C80.0598 169.872 79.7951 169.919 79.5305 169.962C79.2658 169.999 79.0257 170.032 78.8103 170.063C78.3486 170.131 77.9455 170.239 77.6008 170.386C77.2561 170.534 76.9883 170.734 76.7975 170.987C76.6067 171.233 76.5113 171.54 76.5113 171.91C76.5113 172.445 76.7052 172.855 77.093 173.138C77.4869 173.415 77.9855 173.553 78.5887 173.553ZM94.8895 181.614C93.6153 181.614 92.5228 181.438 91.6118 181.087C90.7069 180.743 89.9868 180.272 89.4513 179.675C88.9157 179.078 88.568 178.407 88.4079 177.662L92.0457 177.173C92.1565 177.456 92.3319 177.72 92.572 177.967C92.8121 178.213 93.1291 178.41 93.523 178.558C93.9231 178.711 94.4094 178.788 94.9818 178.788C95.8374 178.788 96.5422 178.579 97.0961 178.161C97.6563 177.748 97.9363 177.056 97.9363 176.083V173.489H97.7702C97.5978 173.883 97.3393 174.255 96.9946 174.606C96.6499 174.957 96.2067 175.243 95.665 175.464C95.1234 175.686 94.4771 175.797 93.7261 175.797C92.6613 175.797 91.6918 175.551 90.8177 175.058C89.9498 174.56 89.2574 173.799 88.7403 172.778C88.2294 171.75 87.974 170.451 87.974 168.881C87.974 167.275 88.2356 165.933 88.7588 164.856C89.282 163.779 89.9775 162.972 90.8454 162.437C91.7195 161.901 92.6766 161.634 93.7169 161.634C94.5109 161.634 95.1757 161.769 95.7112 162.04C96.2467 162.304 96.6776 162.637 97.0038 163.037C97.3362 163.431 97.5916 163.819 97.7702 164.2H97.9179V161.818H101.823V176.138C101.823 177.345 101.528 178.354 100.937 179.167C100.346 179.979 99.5275 180.589 98.4811 180.995C97.4408 181.407 96.2436 181.614 94.8895 181.614ZM94.9726 172.842C95.6066 172.842 96.1421 172.685 96.5791 172.371C97.0223 172.051 97.3608 171.596 97.5947 171.005C97.8348 170.408 97.9548 169.694 97.9548 168.863C97.9548 168.032 97.8379 167.312 97.604 166.702C97.3701 166.087 97.0315 165.61 96.5883 165.271C96.1452 164.933 95.6066 164.763 94.9726 164.763C94.3263 164.763 93.7815 164.939 93.3383 165.29C92.8952 165.634 92.5597 166.115 92.3319 166.73C92.1042 167.346 91.9903 168.057 91.9903 168.863C91.9903 169.682 92.1042 170.389 92.3319 170.987C92.5658 171.577 92.9013 172.036 93.3383 172.362C93.7815 172.682 94.3263 172.842 94.9726 172.842ZM108.887 167.801V176H104.953V161.818H108.702V164.32H108.868C109.182 163.496 109.708 162.843 110.447 162.363C111.186 161.877 112.081 161.634 113.134 161.634C114.119 161.634 114.977 161.849 115.71 162.28C116.442 162.711 117.012 163.326 117.418 164.126C117.824 164.92 118.027 165.868 118.027 166.97V176H114.094V167.672C114.1 166.804 113.879 166.127 113.429 165.641C112.98 165.148 112.361 164.902 111.573 164.902C111.044 164.902 110.576 165.016 110.17 165.244C109.77 165.471 109.456 165.804 109.228 166.241C109.007 166.672 108.893 167.192 108.887 167.801ZM127.535 176.277C126.101 176.277 124.86 175.972 123.814 175.363C122.774 174.747 121.97 173.892 121.404 172.796C120.838 171.694 120.555 170.417 120.555 168.964C120.555 167.5 120.838 166.219 121.404 165.124C121.97 164.022 122.774 163.166 123.814 162.557C124.86 161.941 126.101 161.634 127.535 161.634C128.969 161.634 130.206 161.941 131.247 162.557C132.293 163.166 133.099 164.022 133.666 165.124C134.232 166.219 134.515 167.5 134.515 168.964C134.515 170.417 134.232 171.694 133.666 172.796C133.099 173.892 132.293 174.747 131.247 175.363C130.206 175.972 128.969 176.277 127.535 176.277ZM127.553 173.23C128.206 173.23 128.751 173.045 129.188 172.676C129.625 172.301 129.954 171.79 130.176 171.143C130.403 170.497 130.517 169.762 130.517 168.937C130.517 168.112 130.403 167.376 130.176 166.73C129.954 166.084 129.625 165.573 129.188 165.197C128.751 164.822 128.206 164.634 127.553 164.634C126.895 164.634 126.341 164.822 125.891 165.197C125.448 165.573 125.113 166.084 124.885 166.73C124.663 167.376 124.553 168.112 124.553 168.937C124.553 169.762 124.663 170.497 124.885 171.143C125.113 171.79 125.448 172.301 125.891 172.676C126.341 173.045 126.895 173.23 127.553 173.23ZM148.872 165.862L145.271 166.084C145.21 165.776 145.078 165.499 144.874 165.253C144.671 165 144.403 164.8 144.071 164.653C143.745 164.499 143.354 164.422 142.899 164.422C142.289 164.422 141.775 164.551 141.357 164.81C140.938 165.062 140.729 165.401 140.729 165.825C140.729 166.164 140.864 166.45 141.135 166.684C141.406 166.918 141.871 167.106 142.529 167.247L145.096 167.764C146.475 168.047 147.503 168.503 148.18 169.131C148.857 169.759 149.195 170.583 149.195 171.605C149.195 172.535 148.921 173.35 148.374 174.052C147.832 174.754 147.087 175.301 146.139 175.695C145.198 176.083 144.111 176.277 142.88 176.277C141.003 176.277 139.507 175.886 138.393 175.104C137.285 174.317 136.636 173.246 136.445 171.891L140.313 171.688C140.43 172.261 140.713 172.698 141.163 172.999C141.612 173.295 142.188 173.442 142.889 173.442C143.579 173.442 144.133 173.31 144.551 173.045C144.976 172.775 145.191 172.427 145.198 172.002C145.191 171.645 145.041 171.353 144.745 171.125C144.45 170.891 143.994 170.713 143.379 170.589L140.923 170.1C139.538 169.823 138.507 169.343 137.83 168.66C137.159 167.977 136.823 167.106 136.823 166.047C136.823 165.136 137.069 164.351 137.562 163.692C138.06 163.034 138.759 162.526 139.658 162.169C140.563 161.812 141.621 161.634 142.834 161.634C144.625 161.634 146.035 162.012 147.063 162.769C148.097 163.526 148.7 164.557 148.872 165.862ZM159.215 161.818V164.773H150.675V161.818H159.215ZM152.614 158.42H156.547V171.642C156.547 172.005 156.603 172.288 156.713 172.491C156.824 172.688 156.978 172.827 157.175 172.907C157.378 172.987 157.612 173.027 157.877 173.027C158.061 173.027 158.246 173.012 158.431 172.981C158.615 172.944 158.757 172.916 158.855 172.898L159.474 175.825C159.277 175.886 159 175.957 158.643 176.037C158.286 176.123 157.852 176.175 157.341 176.194C156.393 176.231 155.562 176.105 154.848 175.815C154.14 175.526 153.59 175.077 153.196 174.467C152.802 173.858 152.608 173.089 152.614 172.159V158.42ZM161.778 176V161.818H165.711V176H161.778ZM163.753 159.99C163.169 159.99 162.667 159.796 162.248 159.408C161.836 159.014 161.63 158.544 161.63 157.996C161.63 157.454 161.836 156.989 162.248 156.602C162.667 156.208 163.169 156.011 163.753 156.011C164.338 156.011 164.837 156.208 165.249 156.602C165.668 156.989 165.877 157.454 165.877 157.996C165.877 158.544 165.668 159.014 165.249 159.408C164.837 159.796 164.338 159.99 163.753 159.99ZM175.269 176.277C173.817 176.277 172.567 175.969 171.521 175.354C170.48 174.732 169.68 173.87 169.12 172.768C168.566 171.667 168.289 170.399 168.289 168.964C168.289 167.512 168.569 166.238 169.129 165.142C169.696 164.04 170.499 163.182 171.539 162.566C172.579 161.944 173.817 161.634 175.251 161.634C176.488 161.634 177.571 161.858 178.501 162.308C179.43 162.757 180.166 163.388 180.707 164.2C181.249 165.013 181.548 165.967 181.603 167.062H177.891C177.787 166.355 177.51 165.785 177.06 165.354C176.617 164.917 176.036 164.699 175.315 164.699C174.706 164.699 174.174 164.865 173.718 165.197C173.269 165.524 172.918 166.001 172.666 166.629C172.413 167.256 172.287 168.017 172.287 168.909C172.287 169.814 172.41 170.583 172.656 171.217C172.909 171.851 173.263 172.335 173.718 172.667C174.174 172.999 174.706 173.165 175.315 173.165C175.765 173.165 176.168 173.073 176.525 172.888C176.888 172.704 177.187 172.436 177.421 172.085C177.661 171.728 177.818 171.3 177.891 170.802H181.603C181.542 171.885 181.246 172.839 180.717 173.664C180.194 174.483 179.47 175.123 178.547 175.585C177.624 176.046 176.531 176.277 175.269 176.277ZM195.921 165.862L192.32 166.084C192.259 165.776 192.126 165.499 191.923 165.253C191.72 165 191.452 164.8 191.12 164.653C190.794 164.499 190.403 164.422 189.947 164.422C189.338 164.422 188.824 164.551 188.405 164.81C187.987 165.062 187.778 165.401 187.778 165.825C187.778 166.164 187.913 166.45 188.184 166.684C188.455 166.918 188.919 167.106 189.578 167.247L192.145 167.764C193.524 168.047 194.552 168.503 195.229 169.131C195.906 169.759 196.244 170.583 196.244 171.605C196.244 172.535 195.97 173.35 195.422 174.052C194.881 174.754 194.136 175.301 193.188 175.695C192.246 176.083 191.16 176.277 189.929 176.277C188.052 176.277 186.556 175.886 185.442 175.104C184.334 174.317 183.684 173.246 183.494 171.891L187.362 171.688C187.479 172.261 187.762 172.698 188.212 172.999C188.661 173.295 189.236 173.442 189.938 173.442C190.628 173.442 191.181 173.31 191.6 173.045C192.025 172.775 192.24 172.427 192.246 172.002C192.24 171.645 192.089 171.353 191.794 171.125C191.498 170.891 191.043 170.713 190.427 170.589L187.972 170.1C186.587 169.823 185.556 169.343 184.878 168.66C184.208 167.977 183.872 167.106 183.872 166.047C183.872 165.136 184.118 164.351 184.611 163.692C185.109 163.034 185.808 162.526 186.707 162.169C187.611 161.812 188.67 161.634 189.883 161.634C191.674 161.634 193.083 162.012 194.111 162.769C195.146 163.526 195.749 164.557 195.921 165.862Z" fill="white"/>
<path d="M157.477 101.64C160.52 96.7583 162.232 91.053 161.851 84.7771C161.027 71.1476 150.187 59.6101 136.684 58.1521C132.687 57.687 128.636 58.0731 124.798 59.2849C120.961 60.4966 117.423 62.5067 114.417 65.183C111.412 67.8593 109.006 71.1413 107.359 74.8133C105.712 78.4853 104.861 82.4642 104.861 86.4887C104.861 102.274 117.603 115.015 133.324 115.015C138.903 115.015 144.101 113.367 148.475 110.578L163.753 125.856C166.225 128.328 170.282 128.328 172.755 125.856C175.227 123.383 175.227 119.326 172.755 116.854L157.477 101.64ZM133.388 102.337C129.185 102.337 125.154 100.667 122.181 97.6951C119.209 94.723 117.54 90.6919 117.54 86.4887C117.54 82.2855 119.209 78.2544 122.181 75.2823C125.154 72.3102 129.185 70.6405 133.388 70.6405C137.591 70.6405 141.622 72.3102 144.594 75.2823C147.566 78.2544 149.236 82.2855 149.236 86.4887C149.236 90.6919 147.566 94.723 144.594 97.6951C141.622 100.667 137.591 102.337 133.388 102.337ZM131.106 48.453C126.415 48.5798 121.914 49.5941 117.793 51.3057L114.307 46.0441L94.7816 77.8039C94.2599 78.6545 93.5448 79.37 92.6944 79.8921C91.844 80.4142 90.8824 80.7282 89.8878 80.8085C88.8931 80.8888 87.8936 80.7332 86.9705 80.3543C86.0473 79.9754 85.2267 79.3839 84.5753 78.628L71.136 62.97L51.7378 94.0325C49.7726 97.1387 45.5887 97.9628 42.6092 95.8075C39.9467 93.8423 39.186 90.1655 40.961 87.3128L64.9235 48.9601C67.2057 45.3467 72.3405 44.9664 75.1298 48.1994L88.5057 63.7941L108.665 31.0199C109.219 30.1142 109.993 29.3629 110.914 28.8355C111.836 28.3081 112.876 28.0217 113.937 28.0027C114.999 27.9838 116.048 28.2329 116.988 28.727C117.928 29.2212 118.728 29.9444 119.315 30.8298L131.106 48.453ZM147.524 51.6226C143.467 49.8476 139.093 48.77 134.529 48.5164L163.309 2.93691C165.274 -0.169343 169.458 -0.930057 172.374 1.2253C175.1 3.19048 175.798 6.93066 174.023 9.71994L147.524 51.6226Z" fill="white"/>
</svg>
