<svg width="155" height="144" viewBox="0 0 155 144" fill="none" xmlns="http://www.w3.org/2000/svg">
<path d="M150 138.4V53.9874C150 44.19 150 39.2838 147.506 35.4893C145.012 31.6948 140.597 29.8717 131.774 26.2254L88.2735 8.29053C82.952 6.09684 80.2985 5 77.5 5C74.7015 5 72.048 6.09684 66.7265 8.29053L23.2265 26.2254C14.4032 29.8717 9.988 31.6948 7.494 35.4893C5 39.2838 5 44.19 5 53.9874V138.4M106.5 123.578V138.4M48.5 123.578V138.4" stroke="white" stroke-width="10" stroke-linecap="round" stroke-linejoin="round"/>
<path d="M44.8755 86.5312L46.6372 79.3424C49.269 68.5592 50.5885 63.1639 54.5252 60.029C58.4547 56.8867 63.8922 56.8867 74.7672 56.8867H80.2337C91.1087 56.8867 96.5462 56.8867 100.476 60.029C104.412 63.1639 105.732 68.5518 108.364 79.3424L110.125 86.5312M52.1255 104.985V105.059M102.875 104.985V105.059M113.75 86.5312H41.2505C39.3277 86.5312 37.4836 87.312 36.124 88.7018C34.7643 90.0917 34.0005 91.9767 34.0005 93.9423V116.176C34.0005 118.141 34.7643 120.026 36.124 121.416C37.4836 122.806 39.3277 123.587 41.2505 123.587H113.75C115.673 123.587 117.517 122.806 118.877 121.416C120.237 120.026 121 118.141 121 116.176V93.9423C121 91.9767 120.237 90.0917 118.877 88.7018C117.517 87.312 115.673 86.5312 113.75 86.5312Z" stroke="white" stroke-width="10" stroke-linecap="round" stroke-linejoin="round"/>
</svg>
