<svg width="135" height="128" viewBox="0 0 135 128" fill="none" xmlns="http://www.w3.org/2000/svg">
<path d="M117.477 101.64C120.52 96.7583 122.232 91.053 121.851 84.7771C121.027 71.1476 110.187 59.6101 96.6842 58.1521C92.6867 57.687 88.6361 58.0731 84.7984 59.2849C80.9607 60.4966 77.4228 62.5067 74.4172 65.183C71.4116 67.8593 69.0063 71.1413 67.3593 74.8133C65.7123 78.4853 64.8609 82.4642 64.861 86.4887C64.861 102.274 77.603 115.015 93.3244 115.015C98.903 115.015 104.101 113.367 108.475 110.578L123.753 125.856C126.225 128.328 130.282 128.328 132.755 125.856C135.227 123.383 135.227 119.326 132.755 116.854L117.477 101.64ZM93.3878 102.337C89.1846 102.337 85.1535 100.667 82.1814 97.6951C79.2093 94.723 77.5396 90.6919 77.5396 86.4887C77.5396 82.2855 79.2093 78.2544 82.1814 75.2823C85.1535 72.3102 89.1846 70.6405 93.3878 70.6405C97.591 70.6405 101.622 72.3102 104.594 75.2823C107.566 78.2544 109.236 82.2855 109.236 86.4887C109.236 90.6919 107.566 94.723 104.594 97.6951C101.622 100.667 97.591 102.337 93.3878 102.337ZM91.1057 48.453C86.4146 48.5798 81.9137 49.5941 77.7932 51.3057L74.3066 46.0441L54.7816 77.8039C54.2599 78.6545 53.5448 79.37 52.6944 79.8921C51.844 80.4142 50.8824 80.7282 49.8878 80.8085C48.8931 80.8888 47.8936 80.7332 46.9705 80.3543C46.0473 79.9754 45.2267 79.3839 44.5753 78.628L31.136 62.97L11.7378 94.0325C9.77262 97.1387 5.58869 97.9628 2.60923 95.8075C-0.0532734 93.8423 -0.813988 90.1655 0.961013 87.3128L24.9235 48.9601C27.2057 45.3467 32.3405 44.9664 35.1298 48.1994L48.5057 63.7941L68.6646 31.0199C69.2189 30.1142 69.9926 29.3629 70.9143 28.8355C71.8359 28.3081 72.8757 28.0217 73.9374 28.0027C74.9991 27.9838 76.0485 28.2329 76.9884 28.727C77.9283 29.2212 78.7283 29.9444 79.3146 30.8298L91.1057 48.453ZM107.524 51.6226C103.467 49.8476 99.0932 48.77 94.5289 48.5164L123.309 2.93691C125.274 -0.169343 129.458 -0.930057 132.374 1.2253C135.1 3.19048 135.798 6.93066 134.023 9.71994L107.524 51.6226Z" fill="white"/>
</svg>
