<svg width="25" height="25" viewBox="0 0 25 25" fill="none" xmlns="http://www.w3.org/2000/svg">
<path d="M12.4986 21.25C12.1925 21.25 11.897 21.3624 11.6682 21.5659C11.4394 21.7693 11.2932 22.0497 11.2574 22.3537L11.2486 22.5V23.75C11.249 24.0686 11.371 24.375 11.5897 24.6067C11.8084 24.8384 12.1073 24.9778 12.4254 24.9965C12.7434 25.0151 13.0566 24.9117 13.3009 24.7072C13.5452 24.5027 13.7023 24.2126 13.7399 23.8963L13.7486 23.75V22.5C13.7486 22.1685 13.6169 21.8505 13.3825 21.6161C13.1481 21.3817 12.8302 21.25 12.4986 21.25ZM4.60739 18.6375L4.48989 18.7412L3.61489 19.6163C3.3907 19.8412 3.26055 20.143 3.25085 20.4605C3.24116 20.7779 3.35266 21.0871 3.5627 21.3253C3.77274 21.5636 4.06558 21.7129 4.38173 21.743C4.69789 21.7731 5.01365 21.6818 5.26489 21.4875L5.38239 21.3838L6.25739 20.5087C6.47309 20.2934 6.6027 20.0067 6.62181 19.7025C6.64093 19.3983 6.54825 19.0976 6.3612 18.857C6.17415 18.6163 5.90563 18.4523 5.60613 18.3958C5.30663 18.3393 4.99679 18.3941 4.73489 18.55L4.60739 18.6375ZM18.7399 18.7412C18.5247 18.9565 18.3954 19.2429 18.3763 19.5466C18.3572 19.8504 18.4496 20.1507 18.6361 20.3913L18.7399 20.5087L19.6149 21.3838C19.8398 21.6079 20.1417 21.7381 20.4591 21.7478C20.7766 21.7575 21.0858 21.646 21.324 21.4359C21.5622 21.2259 21.7115 20.9331 21.7416 20.6169C21.7718 20.3008 21.6804 19.985 21.4861 19.7338L21.3824 19.6163L20.5074 18.7412C20.273 18.5069 19.9551 18.3753 19.6236 18.3753C19.2922 18.3753 18.9743 18.5069 18.7399 18.7412ZM22.4986 11.25C22.18 11.2504 21.8736 11.3723 21.6419 11.5911C21.4103 11.8098 21.2708 12.1087 21.2522 12.4267C21.2335 12.7448 21.337 13.058 21.5415 13.3023C21.746 13.5466 22.036 13.7036 22.3524 13.7413L22.4986 13.75H23.7486C24.0672 13.7496 24.3737 13.6277 24.6053 13.4089C24.837 13.1902 24.9764 12.8913 24.9951 12.5733C25.0138 12.2552 24.9103 11.942 24.7058 11.6977C24.5013 11.4534 24.2113 11.2964 23.8949 11.2587L23.7486 11.25H22.4986ZM1.24864 11.25C0.930038 11.2504 0.6236 11.3723 0.39193 11.5911C0.160259 11.8098 0.0208454 12.1087 0.00217438 12.4267C-0.0164967 12.7448 0.0869808 13.058 0.29147 13.3023C0.495956 13.5466 0.786018 13.7036 1.10239 13.7413L1.24864 13.75H2.49864C2.81724 13.7496 3.12368 13.6277 3.35535 13.4089C3.58702 13.1902 3.72643 12.8913 3.7451 12.5733C3.76377 12.2552 3.6603 11.942 3.45581 11.6977C3.25132 11.4534 2.96126 11.2964 2.64489 11.2587L2.49864 11.25H1.24864ZM19.7324 3.5125L19.6149 3.61625L18.7399 4.49125C18.5157 4.7162 18.3855 5.01804 18.3759 5.33548C18.3662 5.65292 18.4777 5.96214 18.6877 6.20035C18.8977 6.43855 19.1906 6.58788 19.5067 6.618C19.8229 6.64812 20.1386 6.55677 20.3899 6.3625L20.5074 6.25875L21.3824 5.38375C21.5973 5.16835 21.7262 4.88197 21.7451 4.57829C21.7639 4.27461 21.6713 3.97449 21.4847 3.73419C21.2981 3.49389 21.0302 3.32991 20.7313 3.27299C20.4324 3.21607 20.123 3.27012 19.8611 3.425L19.7324 3.5125ZM3.61489 3.61625C3.39967 3.83149 3.27038 4.11787 3.25128 4.42165C3.23218 4.72543 3.32457 5.02574 3.51114 5.26625L3.61489 5.38375L4.48989 6.25875C4.71484 6.48293 5.01668 6.61309 5.33412 6.62279C5.65155 6.63248 5.96078 6.52098 6.19899 6.31094C6.43719 6.1009 6.58652 5.80806 6.61664 5.49191C6.64676 5.17575 6.5554 4.85999 6.36114 4.60875L6.25739 4.49125L5.38239 3.61625C5.14798 3.38191 4.83009 3.25027 4.49864 3.25027C4.16718 3.25027 3.8493 3.38191 3.61489 3.61625ZM12.4986 0C12.1925 4.03882e-05 11.897 0.112445 11.6682 0.315894C11.4394 0.519343 11.2932 0.799686 11.2574 1.10375L11.2486 1.25V2.5C11.249 2.8186 11.371 3.12504 11.5897 3.35671C11.8084 3.58838 12.1073 3.72779 12.4254 3.74646C12.7434 3.76514 13.0566 3.66166 13.3009 3.45717C13.5452 3.25268 13.7023 2.96262 13.7399 2.64625L13.7486 2.5V1.25C13.7486 0.918479 13.6169 0.600537 13.3825 0.366116C13.1481 0.131696 12.8302 0 12.4986 0ZM12.4986 6.25C11.274 6.24993 10.0764 6.60961 9.05448 7.28437C8.03255 7.95914 7.23137 8.91924 6.75043 10.0455C6.2695 11.1717 6.13001 12.4143 6.34929 13.6191C6.56857 14.8239 7.13696 15.9378 7.98385 16.8223C8.83075 17.7069 9.91884 18.3231 11.113 18.5945C12.3071 18.866 13.5547 18.7806 14.7007 18.3491C15.8468 17.9175 16.8408 17.1588 17.5593 16.1672C18.2779 15.1756 18.6892 13.9947 18.7424 12.7712L18.7486 12.5L18.7424 12.2288C18.6725 10.6197 17.9841 9.09972 16.8209 7.98582C15.6576 6.87193 14.1092 6.25009 12.4986 6.25Z" fill="#F5EF54"/>
</svg>
