<svg width="25" height="31" viewBox="0 0 25 31" fill="none" xmlns="http://www.w3.org/2000/svg">
<path d="M3.31597 9.61823C2.88205 6.76026 4.89716 4.19309 7.9755 3.25255C8.52178 3.08666 9.11071 3.13473 9.62287 3.38701C10.135 3.63929 10.5321 4.0769 10.7335 4.61111L11.7217 7.24644C11.8808 7.67039 11.9096 8.13221 11.8044 8.57263C11.6991 9.01305 11.4646 9.41197 11.1311 9.71819L8.19132 12.4103C8.04623 12.5432 7.93813 12.7114 7.8776 12.8986C7.81706 13.0857 7.80618 13.2854 7.846 13.4781L7.87326 13.5962L7.94369 13.8915C8.3102 15.3262 8.86721 16.7054 9.59986 17.9922C10.3998 19.3585 11.3913 20.6032 12.5442 21.6885L12.635 21.7703C12.7818 21.9005 12.9598 21.9905 13.1517 22.0316C13.3436 22.0726 13.5429 22.0632 13.73 22.0043L17.5308 20.807C17.9628 20.6714 18.4254 20.6679 18.8593 20.797C19.2932 20.9262 19.6787 21.182 19.9662 21.5317L21.7655 23.7149C22.5152 24.6237 22.4243 25.9595 21.5633 26.7615C19.2074 28.9583 15.9678 29.4082 13.7141 27.5975C10.9505 25.3704 8.6215 22.6525 6.84412 19.5802C5.04936 16.512 3.85374 13.1319 3.31597 9.61823ZM10.2269 13.628L12.6623 11.3925C13.3298 10.7804 13.7992 9.98263 14.0101 9.10178C14.221 8.22093 14.1638 7.29715 13.8459 6.44902L12.8599 3.8137C12.4554 2.7386 11.6569 1.85779 10.6265 1.35017C9.59603 0.842556 8.41102 0.746202 7.31212 1.08068C3.48863 2.25068 0.419384 5.67887 1.06913 9.96127C1.52349 12.951 2.57081 16.7541 4.88126 20.7252C6.79894 24.0378 9.31121 26.9683 12.292 29.3695C15.6725 32.0844 20.1843 31.1575 23.115 28.4267C23.9535 27.6459 24.4626 26.5746 24.5381 25.4313C24.6137 24.288 24.2501 23.159 23.5216 22.2746L21.7224 20.0891C21.1468 19.3905 20.3756 18.8797 19.5078 18.6223C18.6399 18.3648 17.715 18.3725 16.8515 18.6442L13.696 19.637C12.8812 18.797 12.1675 17.8645 11.5695 16.8586C10.9925 15.8413 10.5424 14.7571 10.2292 13.6303" fill="white"/>
</svg>
