<svg width="48" height="48" viewBox="0 0 48 48" fill="none" xmlns="http://www.w3.org/2000/svg">
<path fill-rule="evenodd" clip-rule="evenodd" d="M17 10C16.4477 10 16 10.4477 16 11V14H11C10.4477 14 10 14.4477 10 15V17C10 17.5523 10.4477 18 11 18H16V21C16 21.5523 16.4477 22 17 22H19C19.5523 22 20 21.5523 20 21V18H37C37.5523 18 38 17.5523 38 17V15C38 14.4477 37.5523 14 37 14H20V11C20 10.4477 19.5523 10 19 10H17ZM10 31C10 30.4477 10.4477 30 11 30H28V27C28 26.4477 28.4477 26 29 26H31C31.5523 26 32 26.4477 32 27V30H37C37.5523 30 38 30.4477 38 31V33C38 33.5523 37.5523 34 37 34H32V37C32 37.5523 31.5523 38 31 38H29C28.4477 38 28 37.5523 28 37V34H11C10.4477 34 10 33.5523 10 33V31Z" fill="white"/>
</svg>
