<svg width="28" height="28" viewBox="0 0 28 28" fill="none" xmlns="http://www.w3.org/2000/svg">
<path d="M27 1V27" stroke="white" stroke-width="2" stroke-linecap="round" stroke-linejoin="round"/>
<path d="M1.04001 23.3183C1.03903 23.6781 1.13511 24.0315 1.31815 24.3413C1.50118 24.6511 1.76438 24.9057 2.08 25.0783C2.38404 25.2539 2.72894 25.3463 3.08 25.3463C3.43108 25.3463 3.77596 25.2539 4.08 25.0783L18.46 15.6784C18.7407 15.4971 18.9715 15.2483 19.1313 14.9549C19.2911 14.6614 19.3748 14.3326 19.3748 13.9984C19.3748 13.6642 19.2911 13.3354 19.1313 13.0419C18.9715 12.7485 18.7407 12.4997 18.46 12.3184L4.04 2.99841C3.73596 2.82287 3.39108 2.73047 3.04 2.73047C2.68894 2.73047 2.34404 2.82287 2.04 2.99841C1.72438 3.17111 1.46118 3.42575 1.27815 3.73549C1.09511 4.04525 0.999025 4.39863 1.00001 4.75841L1.04001 23.3183Z" stroke="white" stroke-width="2" stroke-linecap="round" stroke-linejoin="round"/>
</svg>
