<svg width="28" height="18" viewBox="0 0 28 18" fill="none" xmlns="http://www.w3.org/2000/svg">
<path fill-rule="evenodd" clip-rule="evenodd" d="M14.9001 17.7C14.3754 18.0935 13.6559 18.1005 13.1237 17.7173L0.623655 8.7173C-0.0486424 8.23325 -0.201244 7.29584 0.28281 6.62354C0.766864 5.95125 1.70427 5.79865 2.37657 6.2827L13.982 14.6386L25.1001 6.3C25.7629 5.80294 26.7031 5.93726 27.2001 6.6C27.6972 7.26274 27.5629 8.20294 26.9001 8.7L14.9001 17.7ZM1.00104 3.00001C0.448754 3.00001 0.00103844 2.5523 0.00103844 2.00001V1.00001C0.00103844 0.447727 0.448753 1.14441e-05 1.00104 1.14441e-05H27.001C27.5533 1.14441e-05 28.001 0.447727 28.001 1.00001V2.00001C28.001 2.55229 27.5533 3.00001 27.001 3.00001H1.00104Z" fill="#FAF6F6"/>
</svg>
