<svg width="117" height="65" viewBox="0 0 117 65" fill="none" xmlns="http://www.w3.org/2000/svg">
<path fill-rule="evenodd" clip-rule="evenodd" d="M36 12C34.8954 12 34 12.8954 34 14V21.9999H30L27.9709 17.9416C27.1162 16.2323 25.1717 15.3663 23.3295 15.8745L18.3883 17.2376C14.3751 18.3447 11.1349 21.3068 9.67312 25.2049L9.37542 25.9987C9.12716 26.6608 9 27.362 9 28.069C9 30.24 10.7599 31.9999 12.9308 31.9999H24C26.3563 31.9999 29 29.9253 29 27.9999H31V28.4999C31 28.776 31.2239 28.9999 31.5 28.9999H34V34C34 35.1046 34.8954 36 36 36C37.1046 36 38 35.1046 38 34V14C38 12.8954 37.1046 12 36 12Z" fill="white"/>
<path fill-rule="evenodd" clip-rule="evenodd" d="M81 12C82.1046 12 83 12.8954 83 14V21.9999H87L89.0291 17.9416C89.8838 16.2323 91.8283 15.3663 93.6705 15.8745L98.6117 17.2376C102.625 18.3447 105.865 21.3068 107.327 25.2049L107.625 25.9987C107.873 26.6608 108 27.362 108 28.069C108 30.24 106.24 31.9999 104.069 31.9999H93C90.6437 31.9999 88 29.9253 88 27.9999H86V28.4999C86 28.776 85.7761 28.9999 85.5 28.9999H83V34C83 35.1046 82.1046 36 81 36C79.8954 36 79 35.1046 79 34V14C79 12.8954 79.8954 12 81 12Z" fill="white"/>
</svg>
