<svg width="48" height="48" viewBox="0 0 48 48" fill="none" xmlns="http://www.w3.org/2000/svg">
<path fill-rule="evenodd" clip-rule="evenodd" d="M16 19C16 14.5817 19.5817 11 24 11C28.4183 11 32 14.5817 32 19C32 19.3756 31.8344 20.2585 31.3109 21.6737C30.8228 22.9934 30.1478 24.4523 29.4358 25.8501C28.8322 27.035 28.2251 28.1312 27.7262 29H20.2738C19.7749 28.1312 19.1678 27.035 18.5642 25.8501C17.8522 24.4523 17.1772 22.9934 16.6891 21.6737C16.1656 20.2585 16 19.3756 16 19ZM36 19C36 23.4417 30 33 30 33H18C18 33 12 23.4417 12 19C12 12.3726 17.3726 7 24 7C30.6274 7 36 12.3726 36 19ZM18 36V37.1459C18 38.2822 18.642 39.321 19.6584 39.8292L21.1554 40.5777C21.7108 40.8554 22.3233 41 22.9443 41H25.0557C25.6767 41 26.2892 40.8554 26.8446 40.5777L28.3416 39.8292C29.358 39.321 30 38.2822 30 37.1459V36C30 35.4477 29.5523 35 29 35H19C18.4477 35 18 35.4477 18 36Z" fill="white"/>
</svg>
