<svg width="48" height="48" viewBox="0 0 48 48" fill="none" xmlns="http://www.w3.org/2000/svg">
<path fill-rule="evenodd" clip-rule="evenodd" d="M38.0435 36.5H37.3043C36.0797 36.5 35.087 35.5124 35.087 34.2941H12.913C12.913 35.5124 11.9203 36.5 10.6957 36.5H9.95652C8.73189 36.5 7.73913 35.5124 7.73913 34.2941V24.3568C7.73913 23.1868 8.20636 22.0646 9.03805 21.2372L9.95652 20.3235H8.45831C7.65291 20.3235 7 19.674 7 18.8728C7 18.429 7.30362 18.0421 7.73641 17.9345L9.03813 17.6108C9.50463 17.4947 9.95652 17.8457 9.95652 18.3241V19.5882H10.6957L12.0218 14.751C12.548 12.8316 14.3004 11.5 16.3003 11.5H31.6997C33.6996 11.5 35.452 12.8316 35.9782 14.751L37.3043 19.5882H38.0435V18.3241C38.0435 17.8457 38.4954 17.4947 38.9619 17.6108L40.2636 17.9345C40.6964 18.0421 41 18.429 41 18.8728C41 19.674 40.3471 20.3235 39.5417 20.3235H38.0435L38.962 21.2372C39.7936 22.0646 40.2609 23.1868 40.2609 24.3568V34.2941C40.2609 35.5124 39.2681 36.5 38.0435 36.5ZM11.5201 19.3048L12.7039 15.3793C13.2666 13.5132 14.9932 12.2353 16.9516 12.2353H31.1204C33.0789 12.2353 34.8054 13.5132 35.3682 15.3793L36.552 19.3048C36.5996 19.4627 36.5125 19.6297 36.3553 19.6818C35.0735 20.1068 33.7312 20.3235 32.3802 20.3235H15.6919C14.3408 20.3235 12.9985 20.1068 11.7168 19.6818C11.5596 19.6297 11.4725 19.4627 11.5201 19.3048ZM32.3741 24.2209C34.2921 23.4293 35.3285 22.4999 36.5624 21.2952C36.8866 20.9787 37.4176 21.0236 37.6816 21.3913L38.3654 22.3436C38.7469 22.875 38.6864 23.6029 38.2222 24.0646C37.5485 24.7349 36.6577 25.1459 35.7082 25.2246L33.6764 25.393C33.1011 25.4407 32.5452 25.1737 32.2249 24.6958C32.1121 24.5275 32.1863 24.2984 32.3741 24.2209ZM15.5 24.221C13.582 23.4294 12.5457 22.5 11.3118 21.2953C10.9876 20.9788 10.4566 21.0237 10.1926 21.3914L9.50879 22.3437C9.12725 22.8751 9.18781 23.603 9.65197 24.0647C10.3257 24.735 11.2165 25.146 12.166 25.2247L14.1978 25.3931C14.7731 25.4408 15.329 25.1738 15.6492 24.6959C15.7621 24.5276 15.6879 24.2985 15.5 24.221ZM15.6528 31.5683C15.7914 31.4304 15.9794 31.3529 16.1754 31.3529H31.824C32.02 31.3529 32.208 31.4304 32.3466 31.5683L32.9775 32.1959C33.2103 32.4275 33.0455 32.8235 32.7162 32.8235H15.2832C14.954 32.8235 14.7891 32.4275 15.0219 32.1959L15.6528 31.5683Z" fill="white"/>
</svg>
