<svg width="55" height="44" viewBox="0 0 55 44" fill="none" xmlns="http://www.w3.org/2000/svg">
<g clip-path="url(#clip0_3115_8217)">
<circle cx="27.5994" cy="21.7664" r="17.6" stroke="white" stroke-width="3.2"/>
<path d="M22.0733 29.166V14.046H27.9701C29.2949 14.046 30.4253 14.2548 31.3613 14.6724C32.2973 15.09 33.0173 15.6948 33.5213 16.4868C34.0253 17.2788 34.2773 18.222 34.2773 19.3164C34.2773 20.4108 34.0253 21.354 33.5213 22.146C33.0173 22.9236 32.2973 23.5284 31.3613 23.9604C30.4253 24.378 29.2949 24.5868 27.9701 24.5868H23.2613L24.2333 23.5716V29.166H22.0733ZM24.2333 23.7876L23.2613 22.7076H27.9053C29.2877 22.7076 30.3317 22.4124 31.0373 21.822C31.7573 21.2316 32.1173 20.3964 32.1173 19.3164C32.1173 18.2364 31.7573 17.4012 31.0373 16.8108C30.3317 16.2204 29.2877 15.9252 27.9053 15.9252H23.2613L24.2333 14.8452V23.7876Z" fill="white"/>
</g>
<path d="M10.8682 2.01812C10.3999 2.43066 9.94284 2.86334 9.49807 3.31617C-0.499356 13.4947 -0.499356 29.9973 9.49807 40.1758C10.1385 40.8278 10.8045 41.4381 11.4926 42.0066M44.0819 1.80078C44.6378 2.27799 45.1784 2.78312 45.7019 3.31617C55.6994 13.4947 55.6994 29.9973 45.7019 40.1758C44.9822 40.9085 44.2303 41.5885 43.4508 42.2158" stroke="white" stroke-width="3.2" stroke-linecap="round" stroke-linejoin="round"/>
<defs>
<clipPath id="clip0_3115_8217">
<rect width="38.4" height="38.4" fill="white" transform="translate(8.39941 2.56641)"/>
</clipPath>
</defs>
</svg>
