<svg width="48" height="48" viewBox="0 0 48 48" fill="none" xmlns="http://www.w3.org/2000/svg">
<path fill-rule="evenodd" clip-rule="evenodd" d="M18 16H30C33.866 16 37 19.134 37 23V25C37 28.866 33.866 32 30 32H18C14.134 32 11 28.866 11 25V23C11 19.134 14.134 16 18 16ZM8 23C8 17.4772 12.4772 13 18 13H30C35.5228 13 40 17.4772 40 23V25C40 30.5228 35.5228 35 30 35H18C12.4772 35 8 30.5228 8 25V23ZM25 19C22.2386 19 20 21.2386 20 24C20 26.7614 22.2386 29 25 29H28C30.7614 29 33 26.7614 33 24C33 21.2386 30.7614 19 28 19H25Z" fill="#737373"/>
</svg>
