<svg width="48" height="48" viewBox="0 0 48 48" fill="none" xmlns="http://www.w3.org/2000/svg">
<path fill-rule="evenodd" clip-rule="evenodd" d="M31.1912 12.9057C32.294 12.8446 33.1386 11.901 33.0775 10.7981C33.0164 9.69525 32.0728 8.85072 30.9699 8.91181C29.0751 9.01677 27.2055 9.79474 25.7576 11.2427C23.6638 13.3365 22.9732 16.3022 23.6859 18.9711L10.9083 31.7487C10.1273 32.5298 10.1273 33.7961 10.9083 34.5772L13.7368 37.4056C14.5178 38.1867 15.7842 38.1867 16.5652 37.4056L29.3428 24.628C32.0117 25.3407 34.9775 24.6502 37.0713 22.5564C38.5192 21.1084 39.2972 19.2388 39.4021 17.344C39.4632 16.2412 38.6187 15.2976 37.5158 15.2365C36.4129 15.1754 35.4694 16.0199 35.4083 17.1228C35.3556 18.0728 34.9682 19.0026 34.2429 19.7279C32.6808 21.29 30.1481 21.29 28.586 19.7279C27.0239 18.1658 27.0239 15.6332 28.586 14.0711C29.3113 13.3458 30.2411 12.9583 31.1912 12.9057Z" fill="white"/>
</svg>
