<svg width="20" height="25" viewBox="0 0 20 25" fill="none" xmlns="http://www.w3.org/2000/svg">
<path fill-rule="evenodd" clip-rule="evenodd" d="M0.393506 3.57396C-0.0758137 3.97418 -0.133511 4.68106 0.264631 5.15283C0.662774 5.6246 1.36601 5.6826 1.83531 5.28238C2.51497 4.70279 3.25539 4.19438 4.04558 3.76704C5.79347 2.82179 7.73641 2.29926 9.72007 2.24083C11.7055 2.29997 13.6499 2.82485 15.3979 3.77371C16.1825 4.1996 16.9177 4.70558 17.5927 5.28193C18.0618 5.68244 18.765 5.62487 19.1635 5.15334C19.562 4.68182 19.5046 3.9749 19.0355 3.57439C18.2424 2.89724 17.3788 2.30277 16.457 1.8024C14.3928 0.681943 12.0956 0.0646976 9.75063 0.000416719C9.7305 -0.00013531 9.71035 -0.000138877 9.69024 0.000405982C7.34797 0.0638391 5.05308 0.678156 2.98964 1.79408C2.0615 2.29603 1.19181 2.89317 0.393506 3.57396ZM4.70322 7.07848C4.20134 7.43658 4.08325 8.13583 4.43948 8.64033C4.7957 9.14484 5.49134 9.26353 5.99322 8.90545C7.16899 8.06654 8.4515 7.60742 9.74312 7.53478C11.0379 7.60375 12.324 8.06102 13.5031 8.9C14.0055 9.2574 14.701 9.13778 15.0565 8.6328C15.4121 8.12782 15.293 7.42871 14.7907 7.07131C13.2749 5.99281 11.563 5.37431 9.7916 5.29412C9.7571 5.29256 9.72254 5.29261 9.68804 5.29428C7.92104 5.37952 6.21434 6.00032 4.70322 7.07848ZM13.8158 15.0749C13.1661 15.0749 12.6394 15.6043 12.6394 16.2574V20.8628C12.6394 21.5159 13.1661 22.0453 13.8158 22.0453H15.3429C15.9927 22.0453 16.5194 21.5159 16.5194 20.8628V20.4479H15.3429C14.7275 20.4479 14.2286 19.9464 14.2286 19.3277C14.2286 18.709 14.7275 18.2075 15.3429 18.2075H17.6337C18.249 18.2075 18.7481 18.709 18.7481 19.3277V20.8628C18.7481 22.7531 17.2235 24.2857 15.3429 24.2857H13.8158C11.9352 24.2857 10.4107 22.7531 10.4107 20.8628V16.2574C10.4107 14.367 11.9352 12.8345 13.8158 12.8345H15.3429C16.8273 12.8345 18.0871 13.7886 18.5539 15.1166C18.7592 15.6998 18.455 16.3398 17.8746 16.546C17.2944 16.7522 16.6577 16.4464 16.4527 15.8631C16.2906 15.4023 15.8534 15.0749 15.3429 15.0749H13.8158ZM7.5839 15.0805H3.56765L3.28239 16.801C3.67074 16.7179 4.06794 16.6756 4.46763 16.6756H5.67611C7.55592 16.6756 9.07983 18.2075 9.07983 20.0971V20.8642C9.07983 22.7538 7.55592 24.2857 5.67611 24.2857H4.14987C2.66613 24.2857 1.40684 23.332 0.940119 22.0047C0.735021 21.4213 1.03916 20.7812 1.61942 20.5751C2.1997 20.369 2.83637 20.6748 3.04147 21.258C3.20329 21.7182 3.64002 22.0453 4.14987 22.0453H5.67611C6.32503 22.0453 6.85108 21.5164 6.85108 20.8642V20.0971C6.85108 19.4447 6.32503 18.916 5.67611 18.916H4.46763C3.92983 18.916 3.39939 19.0418 2.91835 19.2836L2.35888 19.5648C1.98399 19.7532 1.53562 19.7143 1.19848 19.4639C0.861311 19.2137 0.692407 18.7943 0.76132 18.3787L1.52442 13.7761C1.61398 13.236 2.07888 12.8401 2.62364 12.8401H7.5839C8.19935 12.8401 8.69827 13.3416 8.69827 13.9603C8.69827 14.579 8.19935 15.0805 7.5839 15.0805Z" fill="white"/>
</svg>
