<svg width="28" height="28" viewBox="0 0 28 28" fill="none" xmlns="http://www.w3.org/2000/svg">
<path d="M1.05661 24.6685C1.05522 25.0822 1.19118 25.4885 1.45017 25.8446C1.70916 26.2008 2.08158 26.4935 2.52818 26.6919C2.95839 26.8938 3.44641 27 3.94315 27C4.43992 27 4.92792 26.8938 5.35813 26.6919L25.7055 15.8854C26.1027 15.677 26.4293 15.391 26.6554 15.0536C26.8815 14.7162 27 14.3382 27 13.954C27 13.5699 26.8815 13.1918 26.6554 12.8544C26.4293 12.517 26.1027 12.2311 25.7055 12.0226L5.30153 1.30803C4.87132 1.10623 4.38333 1 3.88655 1C3.38981 1 2.90179 1.10623 2.47158 1.30803C2.02498 1.50658 1.65256 1.79932 1.39357 2.15541C1.13458 2.51152 0.998621 2.91778 1.00001 3.33139L1.05661 24.6685Z" stroke="white" stroke-width="2" stroke-linecap="round" stroke-linejoin="round"/>
</svg>
