<svg width="30" height="29" viewBox="0 0 30 29" fill="none" xmlns="http://www.w3.org/2000/svg">
<path d="M28.8715 17.2375C28.5359 15.984 27.9115 14.8264 27.0481 13.8575C26.1848 12.8887 25.1066 12.1354 23.8999 11.6581C22.6932 11.1808 21.3914 10.9926 20.0989 11.1087C18.8064 11.2248 17.5591 11.642 16.4568 12.3268L18.7272 3.26161C18.7836 3.03639 18.7677 2.79916 18.682 2.58342C18.5962 2.36768 18.4449 2.18431 18.2493 2.05921C17.3068 1.46403 16.2541 1.06454 15.154 0.884508C14.0539 0.704471 12.9288 0.747567 11.8457 1.01123C10.7626 1.2749 9.74363 1.75374 8.84937 2.41927C7.95511 3.0848 7.20386 3.92342 6.64033 4.88523C6.0768 5.84703 5.7125 6.91236 5.56911 8.01784C5.42572 9.12331 5.50617 10.2463 5.80567 11.3201C6.10517 12.3938 6.61761 13.3964 7.31248 14.268C8.00735 15.1397 8.87047 15.8626 9.85046 16.3939L0.864256 18.9608C0.641008 19.0244 0.44336 19.1565 0.299203 19.3384C0.155045 19.5203 0.0716568 19.7429 0.0608034 19.9748C-0.0244856 21.867 0.539046 23.7315 1.65808 25.2596C2.77712 26.7878 4.38453 27.8879 6.21414 28.3778C6.91982 28.5673 7.64725 28.6637 8.37792 28.6646C9.49134 28.6616 10.5928 28.4353 11.6172 27.9989C12.6415 27.5625 13.5679 26.925 14.3414 26.1241C15.1149 25.3233 15.7198 24.3753 16.1203 23.3364C16.5207 22.2975 16.7087 21.1888 16.6729 20.0759L23.3886 26.5756C23.5556 26.7372 23.7692 26.8422 23.9992 26.8757C24.2291 26.9093 24.4638 26.8697 24.67 26.7626C26.3504 25.8908 27.6828 24.4714 28.4468 22.7393C29.2108 21.0073 29.3606 19.0663 28.8715 17.2375ZM12.1098 16.2678C12.1098 15.8295 12.2398 15.401 12.4834 15.0365C12.7269 14.672 13.0731 14.3879 13.4781 14.2201C13.8831 14.0524 14.3287 14.0085 14.7586 14.094C15.1886 14.1795 15.5835 14.3906 15.8935 14.7006C16.2035 15.0106 16.4146 15.4055 16.5001 15.8354C16.5856 16.2654 16.5417 16.711 16.374 17.116C16.2062 17.521 15.9221 17.8672 15.5576 18.1107C15.1931 18.3543 14.7646 18.4843 14.3262 18.4843C13.7384 18.4843 13.1747 18.2508 12.759 17.8351C12.3433 17.4194 12.1098 16.8557 12.1098 16.2678ZM7.67698 9.06448C7.67663 8.03744 7.93581 7.02696 8.43045 6.12688C8.92509 5.22679 9.63915 4.4663 10.5063 3.916C11.3735 3.36571 12.3657 3.04346 13.3907 2.97919C14.4157 2.91492 15.4404 3.1107 16.3695 3.54836L14.2944 11.835C13.5004 11.841 12.7225 12.0601 12.0422 12.4695C11.3618 12.8789 10.8039 13.4635 10.4267 14.1622C9.5802 13.6087 8.88532 12.8524 8.40513 11.9622C7.92494 11.072 7.67465 10.0759 7.67698 9.06448ZM11.4172 25.6281C10.528 26.1419 9.5233 26.4227 8.49652 26.4444C7.46974 26.466 6.45413 26.2279 5.54398 25.7521C4.63384 25.2763 3.85868 24.5783 3.29047 23.7228C2.72227 22.8673 2.37945 21.882 2.29385 20.8586L10.5098 18.512C10.9005 19.1774 11.458 19.7293 12.1274 20.1132C12.7967 20.4971 13.5546 20.6996 14.3262 20.7007H14.4523C14.3965 21.7097 14.0897 22.6889 13.5597 23.5494C13.0297 24.4098 12.2933 25.1243 11.4172 25.6281ZM26.1245 22.442C25.6762 23.2198 25.0612 23.8887 24.3237 24.4007L18.1842 18.4593C18.5771 17.7693 18.7768 16.9861 18.7624 16.1922C18.7481 15.3983 18.5201 14.6229 18.1025 13.9475C19.2746 13.3558 20.6066 13.1584 21.9 13.3848C23.1934 13.6111 24.3791 14.2491 25.2807 15.2037C26.1822 16.1584 26.7514 17.3786 26.9034 18.6828C27.0555 19.9871 26.7823 21.3055 26.1245 22.442Z" fill="white"/>
</svg>
